<?xml version="1.0" encoding="UTF-8"?>
<svg id="Layer_1" xmlns="http://www.w3.org/2000/svg" version="1.1" viewBox="0 0 400 400">
  <!-- Generator: Adobe Illustrator 30.4.0, SVG Export Plug-In . SVG Version: 2.1.4 Build 226)  -->
  <defs>
    <style>
      .st0 {
        fill: #156d34;
      }

      .st1 {
        fill: #231f20;
      }

      .st2 {
        fill: #f26522;
      }

      .st3 {
        fill: #fff;
      }
    </style>
  </defs>
  <g id="Logo1-Colour">
    <circle class="st3" cx="200" cy="200" r="165.59"/>
    <path class="st2" d="M200,366.59c-91.86,0-166.59-74.73-166.59-166.59S108.14,33.41,200,33.41s166.59,74.73,166.59,166.59-74.73,166.59-166.59,166.59ZM200,35.42c-90.75,0-164.58,73.83-164.58,164.58s73.83,164.58,164.58,164.58,164.58-73.83,164.58-164.58S290.75,35.42,200,35.42Z"/>
    <path class="st0" d="M200,41.22c87.69,0,158.78,71.09,158.78,158.78s-71.09,158.78-158.78,158.78S41.22,287.69,41.22,200,112.31,41.22,200,41.22M200,37.14c-89.8,0-162.86,73.06-162.86,162.86s73.06,162.86,162.86,162.86,162.86-73.06,162.86-162.86S289.8,37.14,200,37.14h0Z"/>
    <path class="st0" d="M200,313.57c-62.63,0-113.57-50.95-113.57-113.57s50.95-113.57,113.57-113.57,113.58,50.95,113.58,113.57-50.95,113.57-113.58,113.57ZM200,90.51c-60.37,0-109.49,49.12-109.49,109.49s49.12,109.49,109.49,109.49,109.49-49.12,109.49-109.49-49.12-109.49-109.49-109.49Z"/>
    <path class="st2" d="M200,307.98c-59.54,0-107.98-48.44-107.98-107.98s48.44-107.98,107.98-107.98,107.98,48.44,107.98,107.98-48.44,107.98-107.98,107.98ZM200,94.03c-58.43,0-105.97,47.54-105.97,105.97s47.54,105.97,105.97,105.97,105.97-47.54,105.97-105.97-47.54-105.97-105.97-105.97Z"/>
    <g>
      <path class="st1" d="M62.9,231.66v-.62s-.13-.02-.13-.02c-3.05-.52-4.98-2.32-5.45-5.09-.89-5.29,3.55-8.88,8.39-9.69,2.49-.42,4.66-.07,6.27,1,1.53,1.02,2.53,2.67,2.88,4.77.47,2.82-.82,5.69-3.21,7.14l-.11.07.24.54,3.68-.73.03-.07c.69-1.52.64-4.3.29-6.39-.52-3.12-2.03-5.76-4.26-7.43-2.15-1.62-4.82-2.25-7.52-1.81-2.94.49-5.18,1.86-6.5,3.96-1.29,2.06-1.69,4.83-1.15,8.01.58,3.49,1.66,5.39,2.42,6.51l.05.07,3.96-.22h.14Z"/>
      <path class="st1" d="M75.09,254.6c2.89-1.04,4.95-2.93,5.95-5.49.86-2.18.87-4.75.05-7.05-1.88-5.26-7.23-7.81-12.45-5.94-2.95,1.06-5.04,2.97-6.03,5.52-.84,2.16-.84,4.73,0,7.06.82,2.3,2.45,4.27,4.47,5.41,1.35.77,2.83,1.15,4.38,1.15,1.18,0,2.4-.22,3.64-.67ZM66.84,252.86c-1.21-.52-2.1-1.56-2.65-3.09-1.22-3.4,1.13-8.67,7.06-11.28,1.28-.56,2.49-.84,3.6-.84.78,0,1.5.14,2.16.42,1.24.53,2.17,1.58,2.68,3.02,1.62,4.51-2.72,9.23-7.62,11.39-1.96.85-3.81.99-5.22.38Z"/>
      <path class="st1" d="M95.04,271.95l.08.07.55-.32-2-3.43-.04-.07-12.55.09,6.06-11.08.04-.07-2.15-3.69-.55.32.02.1c.23,1.16-.19,2.11-3.03,3.77l-8.98,5.23c-1.72,1-2.39,1.14-3,.62l-.08-.07-.55.32,1.89,3.25.07.13.55-.32-.03-.11c-.31-1.31.06-2.28,2.92-3.95l9.19-5.35-5.93,10.95-.04.07.4.68,12.56-.12-10.77,6.27c-1.72,1-2.4,1.14-3,.62l-.08-.07-.55.32,2.67,4.58.55-.32-.02-.11c-.16-.78.29-1.3,2.01-2.3l8.98-5.23c2.84-1.66,3.87-1.55,4.77-.78Z"/>
      <path class="st1" d="M111.2,291l.09.05.48-.42-2.63-2.98-.06-.06-12.3,2.51,3.81-12.05.03-.08-2.73-3.1-.1-.11-.48.42.04.1c.45,1.1.22,2.11-2.25,4.28l-7.8,6.87c-1.5,1.32-2.12,1.59-2.82,1.19l-.09-.05-.48.42,2.48,2.82.1.11.48-.42-.04-.1c-.55-1.23-.38-2.25,2.11-4.44l7.99-7.03-3.7,11.9-.03.08.52.59,12.31-2.55-9.36,8.24c-1.5,1.32-2.13,1.59-2.82,1.19l-.09-.05-.48.42,3.41,3.87.1.11.48-.42-.04-.1c-.31-.73.03-1.33,1.53-2.65l7.8-6.87c2.47-2.17,3.5-2.27,4.54-1.69Z"/>
      <path class="st1" d="M127.57,304.29l.1.04.39-.5-3.06-2.43-.4.5.06.09c.76,1.11.77,2.15-1.29,4.74l-4.08,5.12c-1.45,1.82-3.01,2.86-4.64,3.09-1.71.25-2.94-.49-3.51-.95-3.13-2.49-3.31-5.38-.55-8.85l5.18-6.51c1.24-1.56,1.82-1.93,2.57-1.66l.1.04.4-.5-4.15-3.31-.4.5.06.09c.44.67.2,1.31-1.04,2.88l-5.05,6.35c-1.68,2.12-2.29,4.25-1.81,6.34.5,2.15,2.05,3.75,3.26,4.71,1.43,1.14,2.89,1.71,4.33,1.71.23,0,.45-.01.68-.04,1.83-.23,3.59-1.38,5.22-3.43l5.05-6.35c1.24-1.56,1.81-1.94,2.57-1.66Z"/>
      <path class="st1" d="M144.45,314.09l.1.02.31-.55-3.3-1.86-.13-.07-.31.56.07.08c.93.98,1.1,2-.53,4.89l-4.28,7.58-2.81-17.48v-.07s-2.86-1.61-2.86-1.61l-.31.56.09.08c.75.72.69,1.4-.31,3.16l-5.91,10.46c-.98,1.74-1.49,2.19-2.28,2.05l-.1-.02-.31.55,3.27,1.85.13.07.31-.56-.07-.08c-.93-.98-1.1-2,.53-4.89l5.05-8.94,3.09,19.67v.07s.51.28.51.28l7.77-13.76c.98-1.74,1.49-2.2,2.28-2.05Z"/>
      <path class="st1" d="M148.71,315.79l.08.07c.6.52.55,1.21-.21,3.05l-4.61,11.09c-.77,1.84-1.22,2.37-2.01,2.3h-.11s-.25.58-.25.58l4.9,2.04.24-.59-.08-.07c-.6-.52-.55-1.21.22-3.05l4.61-11.09c.77-1.84,1.21-2.37,2.01-2.3h.11s.24-.58.24-.58l-4.9-2.04-.24.59Z"/>
      <path class="st1" d="M157.76,318.88l-1.11,3.22-.04.13.52.25.07-.09c1.48-1.7,2.76-2.05,5.06-1.38l.66.19-4.14,14.21c-.56,1.92-.95,2.48-1.75,2.51h-.11s-.18.61-.18.61l5.13,1.49.18-.61-.09-.06c-.66-.45-.69-1.14-.13-3.06l4.14-14.21.6.18c2.3.67,3.19,1.65,3.53,3.88l.02.11.57.07.79-3.31.03-.14-13.61-3.96-.14-.04Z"/>
      <path class="st1" d="M186.05,325.85l.12.04c.39.13.61.31.67.54.11.37-.16.98-.82,1.86l-4.35,5.62-2.51-6.61c-.1-.27-.2-.51-.28-.73-.32-.8-.53-1.34-.4-1.56.05-.09.17-.15.36-.18l.11-.02.09-.63-5.28-.76-.09.62.08.05c.8.54,1.43,1.47,1.94,2.86l2.9,7.68-.71,5.14c-.28,1.98-.6,2.59-1.38,2.73l-.11.02-.09.63,5.13.74.15.02.09-.63-.1-.05c-.71-.36-.84-1.03-.55-3.01l.74-5.11,5.04-6.56c1.24-1.63,2.2-2.01,2.9-2.15l.1-.02.09-.63-3.74-.54-.09.64Z"/>
      <path class="st1" d="M200.17,326.07h-.14s.02,3.42.02,3.42v.13l.57.06.04-.11c.83-2.1,1.92-2.85,4.31-2.99l.68-.04.83,14.78c.11,2-.07,2.66-.81,2.95l-.1.04.04.63,5.33-.3-.04-.63-.1-.03c-.77-.21-1.02-.85-1.13-2.84l-.83-14.78.63-.04c2.38-.14,3.55.49,4.62,2.49l.05.1.56-.13-.37-3.52-14.16.79Z"/>
      <path class="st1" d="M235.26,336.59l-.61.03-.02.12c-.41,2.59-1.76,3.88-4.67,4.48l-2.54.51c-.38.08-.69.04-.93-.12-.24-.16-.4-.43-.48-.81l-1.59-7.83,2.39-.48c3.26-.66,4.17-.18,4.81,1.01l.05.1.63-.13-.96-4.73-.63.13v.11c-.14,1.34-.8,2.14-4.05,2.8l-2.39.48-1.55-7.63,2.94-.6c3.06-.62,4.74-.04,6.21,2.17l.07.11.56-.25-1.08-3.79-.04-.13-12.96,2.63.13.62h.11c.79.11,1.13.7,1.53,2.66l2.39,11.77c.4,1.96.31,2.64-.38,3.04l-.09.05.13.62,13.51-2.74.14-.03-.62-4.03-.02-.13Z"/>
      <path class="st1" d="M251.44,316.01l.08-.07-.22-.6-3.69,1.36.22.6h.11c1.34-.08,2.24.46,3.38,3.56l3.01,8.16-15.14-9.16-.06-.04-3.06,1.13.22.6h.12c1.02-.11,1.51.37,2.21,2.26l4.15,11.27c.69,1.87.71,2.56.09,3.06l-.08.07.22.6,3.67-1.35-.22-.6h-.11c-1.34.08-2.23-.45-3.38-3.56l-3.54-9.63,16.99,10.37.06.04.54-.2-5.45-14.82c-.69-1.87-.71-2.56-.09-3.06Z"/>
      <path class="st1" d="M268.87,306.63l.07-.08-.31-.55-3.43,1.92.31.56.11-.02c1.31-.28,2.28.1,3.9,3l4.24,7.6-16.38-6.7-.07-.03-2.85,1.59.31.56.11-.03c1-.26,1.55.14,2.54,1.9l5.85,10.49c.97,1.75,1.1,2.42.56,3.01l-.07.08.31.55,3.41-1.9-.31-.56-.11.02c-1.32.29-2.28-.11-3.89-3l-5-8.96,18.4,7.61.07.03.5-.28-7.69-13.8c-.97-1.75-1.1-2.42-.56-3.01Z"/>
      <path class="st1" d="M286.92,315.48c-.75.24-1.32-.16-2.49-1.78l-7.03-9.73c-1.17-1.62-1.37-2.27-.91-2.92l.06-.09-.37-.51-4.3,3.11.37.51.1-.03c.75-.24,1.32.16,2.49,1.78l7.03,9.73c1.17,1.62,1.37,2.27.91,2.92l-.06.09.37.51,4.18-3.02.12-.09-.37-.52-.1.03Z"/>
      <path class="st1" d="M290.52,298.8l-.39.14c-2.12.78-4.53,1.67-5.99.04-.65-.72-.93-1.58-.8-2.48.12-.86.61-1.71,1.39-2.41,1.96-1.76,4.63-2.06,7.16-.81l.13.07.27-.5-2.5-2.61-.06-.06-.09.02c-1.62.45-3.23,1.36-4.66,2.65-1.57,1.41-2.55,2.98-2.83,4.54-.28,1.58.16,3.07,1.29,4.33,2.12,2.36,4.51,1.52,7.28.55l.48-.17c2.09-.77,5.25-1.94,6.86-.15,1.49,1.66.84,3.6-.39,4.71-2.37,2.13-5.56,2.37-8.76.68l-.11-.06-.39.47,2.87,3.03.05.05h.07c1.49-.14,4.05-1.03,6.32-3.07,2.43-2.18,3.47-6.08,1.01-8.82-2.2-2.45-5.54-1.17-8.22-.15Z"/>
      <path class="st1" d="M319.32,273.95l.07.1c1.79,2.52,1.88,5.16.25,7.45-3.11,4.36-8.78,3.77-12.77.92-4.05-2.89-4.96-6.93-2.38-10.54,1.66-2.33,4.61-3.44,7.32-2.78l.13.03.21-.55-3.12-2.08-.07.03c-1.56.58-3.49,2.58-4.72,4.31-3.72,5.21-2.96,11.46,1.79,14.85,1.85,1.32,3.77,1.99,5.64,1.99.59,0,1.17-.07,1.75-.2,2.37-.55,4.61-2.22,6.48-4.85,2.05-2.87,2.63-4.98,2.9-6.31v-.08s-3.04-2.74-3.04-2.74l-.43.45Z"/>
      <path class="st1" d="M329.96,256.85l.07.09c1.48,1.85,1.56,3.32.31,5.81l-.99,1.97c-.35.7-.91.89-1.6.54l-12.17-6.07c-1.79-.89-2.27-1.38-2.16-2.17v-.11s-.55-.28-.55-.28l-2.37,4.75.57.28.08-.08c.56-.56,1.24-.47,3.03.42l10.75,5.36c1.79.89,2.27,1.38,2.16,2.17v.11s.55.28.55.28l5.79-11.6.06-.13-3.18-1.84-.35.49Z"/>
      <path class="st1" d="M333.67,235.47l-7.69-2.54c-1.9-.63-2.45-1.04-2.45-1.83v-.11l-.6-.2-1.22,3.71.6.2.06-.09c.78-1.1,1.75-1.46,4.89-.43l6.21,2.05c2.21.73,3.72,1.83,4.5,3.28.82,1.52.55,2.92.32,3.62-.59,1.79-1.52,3.01-2.76,3.63-1.37.68-3.17.67-5.35-.05l-7.9-2.61c-1.9-.63-2.45-1.04-2.45-1.83v-.11l-.6-.2-1.66,5.04.6.2.06-.09c.48-.64,1.17-.64,3.06-.02l7.69,2.54c1.13.37,2.14.54,3.05.54,4.38,0,6.19-3.82,6.81-5.72,1.4-4.23-.45-7.42-5.19-8.98Z"/>
      <path class="st1" d="M342.54,215.03c-.92-1.22-2.21-1.98-3.75-2.19-2.69-.38-4.85,1.52-5.78,5.02-.36-3.08-2.02-4.01-3.42-4.23-2.47-.38-3.97,1.44-4.6,5.55l-1.01,6.58-.02.15.63.1.05-.1c.37-.71,1.03-.83,3.02-.52l11.88,1.82c1.98.3,2.59.62,2.72,1.4l.02.11.63.1.91-5.93c.51-3.35.07-6.07-1.27-7.86ZM332.43,220.66l-.34,2.22-6.76-1.04.14-.94c.41-2.66,2-4.03,4.2-3.7,1.89.29,3.02,1.71,2.76,3.46ZM343.13,222.54l-.12.75c-.09.56-.23.82-.52.94-.32.13-.84.12-1.84-.03l-7.84-1.2.27-1.74c.55-3.61,2.74-5.32,6.17-4.79,3.03.46,4.41,2.63,3.88,6.09Z"/>
    </g>
    <g>
      <path class="st1" d="M131.28,98.41c-1.13.31-2.75-.06-4.91-1.12l-24.21-12.06-2.26,4.83,1.58.71c.68.28,1.04.67,1.28,1.39l6.69,19.66c1.04,3.05.69,4.34.21,5.2l-.15.26.85.99,4.3-3.71-.88-1.02-.3.16c-.48.25-.76.19-.93.12-.57-.23-1.14-1.17-1.69-2.8l-1.96-5.8,7.96-6.86,5.54,2.78.54.27c1.38.67,2.37,1.16,2.5,1.59.01.05.06.2-.15.54l-.16.27.86,1,6.38-5.49-.84-.97-.26.07ZM115.38,97.64l-7.02,6.05-3.9-11.51,10.92,5.47Z"/>
      <path class="st1" d="M150.54,63.51c-1.24-2.7-1.36-3.7-.55-4.47l.22-.21-.55-1.2-5.84,2.68.56,1.21.31-.04c1.97-.27,3.34.43,5.42,4.97l4.21,9.17c3.14,6.84.54,10.98-2.64,12.44-5.48,2.51-9.5.78-12.29-5.31l-5.36-11.66c-1.24-2.7-1.36-3.7-.55-4.47l.22-.21-.55-1.2-7.8,3.58.55,1.2.31-.03c1.12-.13,1.79.63,3.03,3.32l5.22,11.36c2.63,5.74,6.57,7.31,10.08,7.31,2.58,0,4.94-.85,6.4-1.52,3.01-1.38,4.99-3.35,5.89-5.85.98-2.73.61-6-1.09-9.72l-5.22-11.36Z"/>
      <path class="st1" d="M194.46,77.56c-.17.06-.35.09-.53.11-1.24.18-1.73-.54-4.7-5.6-2.58-4.39-3.93-6.4-7.07-6.86,3.83-1.68,5.68-4.6,5.12-8.23-.72-4.7-4.74-6.43-12.29-5.27l-9.05,1.38.2,1.31.3.05c1.1.19,1.55,1.09,2,4.03l2.81,18.31c.45,2.94.29,3.93-.7,4.44l-.27.14.2,1.31,8.48-1.3-.2-1.31-.3-.05c-1.11-.19-1.55-1.09-2-4.03l-1.39-9.1,2-.31c2.81-.42,3.51.75,5.8,4.68.38.65.8,1.37,1.28,2.16l.2.34c2.6,4.32,3.91,6.49,7.51,5.94.71-.11,2.05-.35,3.02-.77l.31-.13-.22-1.42-.49.18ZM182.24,58.76c.31,2,.04,5.48-5.2,6.29l-2.2.34-1.8-11.76c.46-.12.93-.22,1.37-.29,4.72-.71,7.34,2.2,7.84,5.43Z"/>
      <path class="st1" d="M219.47,50.56c-8.68-1.11-16,4.52-17.1,13.1-.62,4.85.55,9.11,3.39,12.3,2.4,2.7,5.98,4.53,9.8,5.02.7.09,1.4.13,2.1.13,6.89,0,13.81-4.31,14.97-13.32,1.29-10.04-5.65-16.27-13.17-17.24ZM207.82,61.78c.22-3.61,1.39-6.39,3.39-8.05,1.27-1.06,2.87-1.6,4.66-1.6.39,0,.8.03,1.21.08,7.2.92,10.59,10.08,10.12,18.23-.19,3.23-1.28,5.82-3.07,7.29-1.52,1.26-3.53,1.74-5.95,1.43-6.97-.9-10.8-9.72-10.36-17.38Z"/>
      <path class="st1" d="M262,94.35c-1.11-.51-1.15-1.39-.86-7.26.25-5.08.22-7.5-2.15-9.61,4.12.69,7.27-.74,8.8-4.07,1.97-4.33-.44-7.98-7.39-11.15l-8.32-3.8-.55,1.2.22.21c.82.76.7,1.76-.53,4.47l-7.69,16.85c-1.23,2.7-1.88,3.46-3.02,3.33l-.31-.03-.55,1.2,7.81,3.56.54-1.2-.22-.21c-.82-.76-.7-1.76.53-4.47l3.82-8.37,1.84.84c2.59,1.18,2.52,2.55,2.28,7.1-.04.75-.08,1.58-.12,2.5v.39c-.21,5.03-.31,7.56,3.01,9.07.53.24,1.87.82,2.94,1.01l.33.06.59-1.31-.51-.12c-.17-.04-.33-.12-.5-.19ZM257.7,62.8c.45.15.88.32,1.3.51,4.35,1.98,4.93,5.86,3.58,8.83-.84,1.84-2.96,4.61-7.8,2.41l-2.03-.92,4.94-10.82Z"/>
      <path class="st1" d="M292.27,83.39l-.45,1.67c-.17.72-.5,1.13-1.16,1.49l-18.32,9.78c-2.84,1.52-4.17,1.38-5.1,1.05l-.28-.1-.84,1,4.35,3.64.87-1.03-.2-.27c-.33-.43-.31-.72-.27-.9.13-.6.97-1.32,2.49-2.13l5.4-2.87,8.06,6.75-1.85,5.91-.18.59c-.44,1.46-.76,2.52-1.16,2.71-.05.02-.18.09-.55-.06l-.29-.11-.85,1.01,6.45,5.4.82-.98-.11-.25c-.49-1.08-.39-2.72.32-5.03l7.87-25.42.13-.42-5.13-1.45ZM280.19,93.94l10.73-5.71-3.63,11.66-7.1-5.95Z"/>
    </g>
    <g>
      <g>
        <g>
          <path class="st0" d="M236.26,277.64s-1.27-.74-2.59-1.76l-9.69,4.87c1.34,2.02,2.21,4.86,2.22,4.89.25.86.91,1.53,1.77,1.8.85.27,1.78.1,2.48-.46l6.16-4.9c.7-.56,1.08-1.42,1.01-2.32-.07-.89-.58-1.69-1.35-2.13Z"/>
          <polygon class="st0" points="217.73 256.5 208.45 261.16 212 265.63 221.28 260.97 217.73 256.5"/>
          <polygon class="st0" points="213.84 251.61 204.56 256.27 208.11 260.74 217.39 256.08 213.84 251.61"/>
          <polygon class="st0" points="209.95 246.72 200.67 251.38 204.22 255.85 213.5 251.19 209.95 246.72"/>
          <polygon class="st0" points="221.62 261.4 212.34 266.06 215.89 270.52 225.17 265.86 221.62 261.4"/>
          <polygon class="st0" points="225.51 266.29 216.23 270.95 219.78 275.41 229.06 270.75 225.51 266.29"/>
          <path class="st0" d="M197.52,240.55l2.49-3.14.91.73.39-.31.06-.05c-10.49-19.25-12.75-41.57-12.99-44.31,0-.07.02-.15.02-.22.01-.2.03-.4.04-.6.06-1.23.05-2.47-.01-3.71,0-.16-.02-.33-.03-.49-.01-.2-.02-.4-.03-.6-.02-.24-.04-.49-.07-.73-.07-.73-.15-1.47-.26-2.2-.02-.15-.05-.3-.07-.46-.17-1.11-.37-2.22-.61-3.33-.03-.15-.06-.29-.09-.44-.24-1.06-.52-2.11-.82-3.16-.04-.14-.08-.28-.12-.42-.3-1.02-.62-2.04-.97-3.05-.05-.13-.09-.27-.14-.4-.35-.99-.72-1.96-1.11-2.93-.05-.13-.1-.26-.16-.39-.39-.96-.79-1.91-1.22-2.85-.06-.13-.11-.25-.17-.38-.43-.93-.87-1.85-1.33-2.76-.06-.12-.12-.24-.19-.37-.46-.91-.93-1.81-1.42-2.69-.06-.12-.13-.24-.19-.36-.49-.89-1-1.76-1.51-2.62-.07-.12-.14-.23-.21-.35-.52-.87-1.05-1.72-1.59-2.55-.07-.11-.14-.23-.22-.34-.56-.85-1.12-1.68-1.68-2.48-.08-.11-.15-.22-.23-.33-.59-.83-1.17-1.65-1.76-2.42-.08-.11-.16-.21-.25-.32-.32-.42-.64-.83-.95-1.22-.3-.38-.61-.74-.92-1.1-.09-.1-.17-.21-.26-.31-.67-.76-1.36-1.48-2.07-2.17-.1-.09-.19-.19-.29-.28-.74-.7-1.5-1.37-2.28-2-.11-.09-.21-.17-.32-.26-.82-.65-1.65-1.25-2.51-1.82-.12-.08-.24-.16-.35-.23-.9-.58-1.82-1.12-2.76-1.62-.13-.07-.26-.14-.39-.2-1-.51-2.01-.98-3.04-1.4-.14-.06-.28-.12-.43-.17-1.11-.43-2.23-.81-3.37-1.14-.16-.05-.32-.09-.48-.13-1.25-.34-2.51-.6-3.78-.81-.18-.03-.36-.06-.54-.08-.28-.04-.57-.08-.85-.12-.19-.02-.37-.04-.56-.06-1.3-.14-2.61-.21-3.91-.2-.17,0-.34,0-.52,0-1.19.02-2.38.1-3.56.24-.15.02-.31.04-.46.06-1.1.14-2.2.34-3.29.58-.14.03-.29.07-.43.1-1.03.25-2.05.54-3.05.88-.13.05-.27.09-.4.14-.96.34-1.91.72-2.84,1.14-.13.06-.25.12-.37.18-.9.42-1.79.88-2.65,1.38-.12.07-.23.14-.35.21-.84.5-1.67,1.03-2.48,1.6-.11.08-.21.16-.32.24-.39.29-.79.58-1.17.88-.39.31-.76.62-1.13.94-.1.09-.21.17-.31.26-.74.66-1.44,1.35-2.12,2.05-.09.1-.19.19-.28.29-.69.73-1.33,1.5-1.94,2.28-.09.11-.17.22-.26.33-.62.82-1.21,1.65-1.75,2.51-.08.12-.15.24-.23.36-.56.9-1.07,1.83-1.54,2.78-.07.13-.13.26-.2.4-.49,1-.92,2.03-1.31,3.07-.05.15-.11.29-.17.44-.4,1.12-.75,2.26-1.03,3.42-.04.17-.07.34-.11.5-.3,1.27-.53,2.56-.68,3.86-.02.19-.05.37-.07.56-.03.29-.05.57-.08.86-.02.18-.03.36-.04.55-.09,1.29-.11,2.58-.07,3.87,0,.16.02.33.02.49.06,1.18.18,2.36.35,3.54.02.15.05.3.07.45.18,1.1.4,2.19.68,3.28.04.14.07.28.11.42.27,1.03.59,2.05.96,3.05.05.13.1.26.15.4.36.96.76,1.92,1.21,2.86.06.12.12.25.18.37.44.9.92,1.8,1.44,2.68.07.12.14.23.21.35.51.85,1.06,1.69,1.65,2.51.08.11.16.21.24.32.28.39.57.77.87,1.15.31.4.65.8.98,1.2.09.1.17.21.25.31.62.74,1.28,1.5,1.96,2.26.09.1.18.2.27.3.66.73,1.33,1.46,2.04,2.19.09.1.19.19.28.29.69.71,1.4,1.42,2.13,2.12.1.09.19.19.29.28.72.69,1.45,1.38,2.21,2.06.1.09.2.18.31.27.75.67,1.52,1.33,2.3,1.99.11.09.21.18.31.26.78.65,1.58,1.29,2.39,1.92.11.08.22.17.33.25.82.62,1.66,1.23,2.5,1.83.11.08.23.16.34.24.86.6,1.73,1.18,2.61,1.74.12.08.24.15.36.23.91.57,1.83,1.11,2.75,1.63.13.07.25.14.38.21.96.53,1.92,1.04,2.9,1.51.14.07.27.12.41.19,1.03.49,2.07.93,3.11,1.35.14.06.29.12.43.17.69.27,1.39.51,2.09.74.23.08.46.16.7.23.19.06.39.11.58.17.16.05.32.09.47.14,1.2.34,2.41.63,3.61.85.2.04.39.06.59.1.07.01.15.02.22.03,2.59.84,23.37,7.92,39.68,22.14l1.91-2.4.96.76ZM185.15,191.04l-1.38,1.1-1.86-2.34,2.3-1.83.89,1.12c.03.66.05,1.31.05,1.95ZM185.03,193.57s0,.1,0,.15l-1.01-1.27,1.12-.89c-.01.63-.05,1.24-.1,1.85h-.02s0,.09.01.16ZM140.59,170.69l1.86,2.34-2.3,1.83-1.86-2.34,2.3-1.83ZM138.05,172.2l-1.86-2.34,2.3-1.83,1.86,2.34-2.3,1.83ZM151.71,178.66l-1.86-2.34,2.3-1.83,1.86,2.34-2.3,1.83ZM154.26,177.14l1.86,2.34-2.3,1.83-1.86-2.34,2.3-1.83ZM149.6,176l-1.86-2.34,2.3-1.83,1.86,2.34-2.3,1.83ZM149.29,176.25l-2.3,1.83-1.86-2.34,2.3-1.83,1.86,2.34ZM147.49,173.35l-1.86-2.34,2.3-1.83,1.86,2.34-2.3,1.83ZM147.18,173.6l-2.3,1.83-1.86-2.34,2.3-1.83,1.86,2.34ZM142.77,172.78l-1.86-2.34,2.3-1.83,1.86,2.34-2.3,1.83ZM142.7,173.34l1.86,2.34-2.3,1.83-1.86-2.34,2.3-1.83ZM144.81,176l1.86,2.34-2.3,1.83-1.86-2.34,2.3-1.83ZM146.92,178.65l1.86,2.34-2.3,1.83-1.86-2.34,2.3-1.83ZM147.24,178.4l2.3-1.83,1.86,2.34-2.3,1.83-1.86-2.34ZM151.65,179.22l1.86,2.34-2.3,1.83-1.86-2.34,2.3-1.83ZM153.76,181.87l1.86,2.34-2.3,1.83-1.86-2.34,2.3-1.83ZM154.07,181.62l2.3-1.83,1.86,2.34-2.3,1.83-1.86-2.34ZM158.48,182.45l1.86,2.34-2.3,1.83-1.86-2.34,2.3-1.83ZM158.79,182.2l2.3-1.83,1.86,2.34-2.3,1.83-1.86-2.34ZM158.54,181.88l-1.86-2.34,2.3-1.83,1.86,2.34-2.3,1.83ZM156.43,179.23l-1.86-2.34,2.3-1.83,1.86,2.34-2.3,1.83ZM154.32,176.58l-1.86-2.34,2.3-1.83,1.86,2.34-2.3,1.83ZM152.21,173.93l-1.86-2.34,2.3-1.83,1.86,2.34-2.3,1.83ZM150.11,171.27l-1.86-2.34,2.3-1.83,1.86,2.34-2.3,1.83ZM148,168.62l-1.86-2.34,2.3-1.83,1.86,2.34-2.3,1.83ZM147.68,168.87l-2.3,1.83-1.86-2.34,2.3-1.83,1.86,2.34ZM143.27,168.05l-1.86-2.34,2.3-1.83,1.86,2.34-2.3,1.83ZM142.96,168.3l-2.3,1.83-1.86-2.34,2.3-1.83,1.86,2.34ZM138.55,167.47l-1.86-2.34,2.3-1.83,1.86,2.34-2.3,1.83ZM138.23,167.72l-2.3,1.83-1.86-2.34,2.3-1.83,1.86,2.34ZM135.62,169.8l-2.3,1.83-1.86-2.34,2.3-1.83,1.86,2.34ZM135.87,170.12l1.86,2.34-2.3,1.83-1.86-2.34,2.3-1.83ZM137.98,172.77l1.86,2.34-2.3,1.83-1.86-2.34,2.3-1.83ZM140.09,175.42l1.86,2.34-2.3,1.83-1.86-2.34,2.3-1.83ZM142.2,178.07l1.86,2.34-2.3,1.83-1.86-2.34,2.3-1.83ZM144.31,180.73l1.86,2.34-2.3,1.83-1.86-2.34,2.3-1.83ZM146.42,183.38l1.86,2.34-2.3,1.83-1.86-2.34,2.3-1.83ZM146.73,183.13l2.3-1.83,1.86,2.34-2.3,1.83-1.86-2.34ZM151.14,183.95l1.86,2.34-2.3,1.83-1.86-2.34,2.3-1.83ZM153.25,186.61l1.86,2.34-2.3,1.83-1.86-2.34,2.3-1.83ZM153.57,186.35l2.3-1.83,1.86,2.34-2.3,1.83-1.86-2.34ZM157.97,187.18l1.86,2.34-2.3,1.83-1.86-2.34,2.3-1.83ZM158.29,186.93l2.3-1.83,1.86,2.34-2.3,1.83-1.86-2.34ZM160.9,184.85l2.3-1.83,1.86,2.34-2.3,1.83-1.86-2.34ZM165.31,185.67l1.86,2.34-2.3,1.83-1.86-2.34,2.3-1.83ZM165.63,185.42l2.3-1.83,1.86,2.34-2.3,1.83-1.86-2.34ZM165.38,185.11l-1.86-2.34,2.3-1.83,1.86,2.34-2.3,1.83ZM163.27,182.46l-1.86-2.34,2.3-1.83,1.86,2.34-2.3,1.83ZM161.16,179.8l-1.86-2.34,2.3-1.83,1.86,2.34-2.3,1.83ZM159.05,177.15l-1.86-2.34,2.3-1.83,1.86,2.34-2.3,1.83ZM156.94,174.5l-1.86-2.34,2.3-1.83,1.86,2.34-2.3,1.83ZM154.83,171.85l-1.86-2.34,2.3-1.83,1.86,2.34-2.3,1.83ZM152.72,169.2l-1.86-2.34,2.3-1.83,1.86,2.34-2.3,1.83ZM150.61,166.54l-1.86-2.34,2.3-1.83,1.86,2.34-2.3,1.83ZM148.5,163.89l-1.86-2.34,2.3-1.83,1.86,2.34-2.3,1.83ZM148.18,164.14l-2.3,1.83-1.86-2.34,2.3-1.83,1.86,2.34ZM143.78,163.32l-1.86-2.34,2.3-1.83,1.86,2.34-2.3,1.83ZM143.46,163.57l-2.3,1.83-1.86-2.34,2.3-1.83,1.86,2.34ZM139.05,162.74l-1.86-2.34,2.3-1.83,1.86,2.34-2.3,1.83ZM138.74,162.99l-2.3,1.83-1.86-2.34,2.3-1.83,1.86,2.34ZM136.13,165.07l-2.3,1.83-1.86-2.34,2.3-1.83,1.86,2.34ZM133.51,167.15l-2.3,1.83-1.86-2.34,2.3-1.83,1.86,2.34ZM130.9,169.23l-2.3,1.83-1.86-2.34,2.3-1.83,1.86,2.34ZM131.15,169.54l1.86,2.34-2.3,1.83-1.86-2.34,2.3-1.83ZM133.26,172.2l1.86,2.34-2.3,1.83-1.86-2.34,2.3-1.83ZM135.37,174.85l1.86,2.34-2.3,1.83-1.86-2.34,2.3-1.83ZM137.48,177.5l1.86,2.34-2.3,1.83-1.86-2.34,2.3-1.83ZM139.59,180.15l1.86,2.34-2.3,1.83-1.86-2.34,2.3-1.83ZM141.7,182.8l1.86,2.34-2.3,1.83-1.86-2.34,2.3-1.83ZM143.81,185.46l1.86,2.34-2.3,1.83-1.86-2.34,2.3-1.83ZM145.92,188.11l1.86,2.34-2.3,1.83-1.86-2.34,2.3-1.83ZM146.23,187.86l2.3-1.83,1.86,2.34-2.3,1.83-1.86-2.34ZM150.64,188.68l1.86,2.34-2.3,1.83-1.86-2.34,2.3-1.83ZM152.75,191.34l1.86,2.34-2.3,1.83-1.86-2.34,2.3-1.83ZM153.06,191.09l2.3-1.83,1.86,2.34-2.3,1.83-1.86-2.34ZM157.47,191.91l1.86,2.34-2.3,1.83-1.86-2.34,2.3-1.83ZM157.79,191.66l2.3-1.83,1.86,2.34-2.3,1.83-1.86-2.34ZM160.4,189.58l2.3-1.83,1.86,2.34-2.3,1.83-1.86-2.34ZM164.81,190.41l1.86,2.34-2.3,1.83-1.86-2.34,2.3-1.83ZM165.12,190.15l2.3-1.83,1.86,2.34-2.3,1.83-1.86-2.34ZM167.74,188.08l2.3-1.83,1.86,2.34-2.3,1.83-1.86-2.34ZM170.35,186l2.3-1.83,1.86,2.34-2.3,1.83-1.86-2.34ZM170.1,185.68l-1.86-2.34,2.3-1.83,1.86,2.34-2.3,1.83ZM167.99,183.03l-1.86-2.34,2.3-1.83,1.86,2.34-2.3,1.83ZM165.88,180.38l-1.86-2.34,2.3-1.83,1.86,2.34-2.3,1.83ZM163.77,177.73l-1.86-2.34,2.3-1.83,1.86,2.34-2.3,1.83ZM161.66,175.07l-1.86-2.34,2.3-1.83,1.86,2.34-2.3,1.83ZM159.55,172.42l-1.86-2.34,2.3-1.83,1.86,2.34-2.3,1.83ZM157.44,169.77l-1.86-2.34,2.3-1.83,1.86,2.34-2.3,1.83ZM155.33,167.12l-1.86-2.34,2.3-1.83,1.86,2.34-2.3,1.83ZM153.22,164.46l-1.86-2.34,2.3-1.83,1.86,2.34-2.3,1.83ZM151.11,161.81l-1.86-2.34,2.3-1.83,1.86,2.34-2.3,1.83ZM149,159.16l-1.86-2.34,2.3-1.83,1.86,2.34-2.3,1.83ZM148.69,159.41l-2.3,1.83-1.86-2.34,2.3-1.83,1.86,2.34ZM144.28,158.59l-1.86-2.34,2.3-1.83,1.86,2.34-2.3,1.83ZM143.97,158.84l-2.3,1.83-1.86-2.34,2.3-1.83,1.86,2.34ZM139.56,158.01l-1.86-2.34,2.3-1.83,1.86,2.34-2.3,1.83ZM139.24,158.26l-2.3,1.83-1.86-2.34,2.3-1.83,1.86,2.34ZM136.63,160.34l-2.3,1.83-1.86-2.34,2.3-1.83,1.86,2.34ZM134.02,162.42l-2.3,1.83-1.86-2.34,2.3-1.83,1.86,2.34ZM131.4,164.5l-2.3,1.83-1.86-2.34,2.3-1.83,1.86,2.34ZM128.79,166.58l-2.3,1.83-1.86-2.34,2.3-1.83,1.86,2.34ZM126.18,168.65l-2.3,1.83-1.86-2.34,2.3-1.83,1.86,2.34ZM126.43,168.97l1.86,2.34-2.3,1.83-1.86-2.34,2.3-1.83ZM128.53,171.62l1.86,2.34-2.3,1.83-1.86-2.34,2.3-1.83ZM130.64,174.27l1.86,2.34-2.3,1.83-1.86-2.34,2.3-1.83ZM132.75,176.93l1.86,2.34-2.3,1.83-1.86-2.34,2.3-1.83ZM134.86,179.58l1.86,2.34-2.3,1.83-1.86-2.34,2.3-1.83ZM136.97,182.23l1.86,2.34-2.3,1.83-1.86-2.34,2.3-1.83ZM139.08,184.88l1.86,2.34-2.3,1.83-1.86-2.34,2.3-1.83ZM141.19,187.54l1.86,2.34-2.3,1.83-1.86-2.34,2.3-1.83ZM143.3,190.19l1.86,2.34-2.3,1.83-1.86-2.34,2.3-1.83ZM145.41,192.84l1.86,2.34-2.3,1.83-1.86-2.34,2.3-1.83ZM145.73,192.59l2.3-1.83,1.86,2.34-2.3,1.83-1.86-2.34ZM150.13,193.41l1.86,2.34-2.3,1.83-1.86-2.34,2.3-1.83ZM152.24,196.07l1.86,2.34-2.3,1.83-1.86-2.34,2.3-1.83ZM152.56,195.82l2.3-1.83,1.86,2.34-2.3,1.83-1.86-2.34ZM156.97,196.64l1.86,2.34-2.3,1.83-1.86-2.34,2.3-1.83ZM157.28,196.39l2.3-1.83,1.86,2.34-2.3,1.83-1.86-2.34ZM159.9,194.31l2.3-1.83,1.86,2.34-2.3,1.83-1.86-2.34ZM164.3,195.14l1.86,2.34-2.3,1.83-1.86-2.34,2.3-1.83ZM164.62,194.89l2.3-1.83,1.86,2.34-2.3,1.83-1.86-2.34ZM167.23,192.81l2.3-1.83,1.86,2.34-2.3,1.83-1.86-2.34ZM169.85,190.73l2.3-1.83,1.86,2.34-2.3,1.83-1.86-2.34ZM172.46,188.65l2.3-1.83,1.86,2.34-2.3,1.83-1.86-2.34ZM172.96,183.92l2.3-1.83,1.86,2.34-2.3,1.83-1.86-2.34ZM172.71,183.61l-1.86-2.34,2.3-1.83,1.86,2.34-2.3,1.83ZM170.6,180.95l-1.86-2.34,2.3-1.83,1.86,2.34-2.3,1.83ZM168.49,178.3l-1.86-2.34,2.3-1.83,1.86,2.34-2.3,1.83ZM166.38,175.65l-1.86-2.34,2.3-1.83,1.86,2.34-2.3,1.83ZM164.27,173l-1.86-2.34,2.3-1.83,1.86,2.34-2.3,1.83ZM162.16,170.34l-1.86-2.34,2.3-1.83,1.86,2.34-2.3,1.83ZM160.05,167.69l-1.86-2.34,2.3-1.83,1.86,2.34-2.3,1.83ZM157.95,165.04l-1.86-2.34,2.3-1.83,1.86,2.34-2.3,1.83ZM155.84,162.39l-1.86-2.34,2.3-1.83,1.86,2.34-2.3,1.83ZM153.73,159.73l-1.86-2.34,2.3-1.83,1.86,2.34-2.3,1.83ZM151.62,157.08l-1.86-2.34,2.3-1.83,1.86,2.34-2.3,1.83ZM149.51,154.43l-1.86-2.34,2.3-1.83,1.86,2.34-2.3,1.83ZM149.19,154.68l-2.3,1.83-1.86-2.34,2.3-1.83,1.86,2.34ZM144.78,153.85l-1.86-2.34,2.3-1.83,1.86,2.34-2.3,1.83ZM144.47,154.11l-2.3,1.83-1.86-2.34,2.3-1.83,1.86,2.34ZM140.06,153.28l-1.86-2.34,2.3-1.83,1.86,2.34-2.3,1.83ZM139.75,153.53l-2.3,1.83-1.86-2.34,2.3-1.83,1.86,2.34ZM137.13,155.61l-2.3,1.83-1.86-2.34,2.3-1.83,1.86,2.34ZM134.52,157.69l-2.3,1.83-1.86-2.34,2.3-1.83,1.86,2.34ZM131.91,159.77l-2.3,1.83-1.86-2.34,2.3-1.83,1.86,2.34ZM129.29,161.84l-2.3,1.83-1.86-2.34,2.3-1.83,1.86,2.34ZM126.68,163.92l-2.3,1.83-1.86-2.34,2.3-1.83,1.86,2.34ZM124.07,166l-2.3,1.83-1.86-2.34,2.3-1.83,1.86,2.34ZM121.45,168.08l-2.3,1.83-1.86-2.34,2.3-1.83,1.86,2.34ZM121.7,168.39l1.86,2.34-2.3,1.83-1.86-2.34,2.3-1.83ZM123.81,171.05l1.86,2.34-2.3,1.83-1.86-2.34,2.3-1.83ZM125.92,173.7l1.86,2.34-2.3,1.83-1.86-2.34,2.3-1.83ZM128.03,176.35l1.86,2.34-2.3,1.83-1.86-2.34,2.3-1.83ZM130.14,179l1.86,2.34-2.3,1.83-1.86-2.34,2.3-1.83ZM132.25,181.66l1.86,2.34-2.3,1.83-1.86-2.34,2.3-1.83ZM134.36,184.31l1.86,2.34-2.3,1.83-1.86-2.34,2.3-1.83ZM136.47,186.96l1.86,2.34-2.3,1.83-1.86-2.34,2.3-1.83ZM138.58,189.61l1.86,2.34-2.3,1.83-1.86-2.34,2.3-1.83ZM140.69,192.27l1.86,2.34-2.3,1.83-1.86-2.34,2.3-1.83ZM142.8,194.92l1.86,2.34-2.3,1.83-1.86-2.34,2.3-1.83ZM144.91,197.57l1.86,2.34-2.3,1.83-1.86-2.34,2.3-1.83ZM145.22,197.32l2.3-1.83,1.86,2.34-2.3,1.83-1.86-2.34ZM149.63,198.15l1.86,2.34-2.3,1.83-1.86-2.34,2.3-1.83ZM151.74,200.8l1.86,2.34-2.3,1.83-1.86-2.34,2.3-1.83ZM152.06,200.55l2.3-1.83,1.86,2.34-2.3,1.83-1.86-2.34ZM156.46,201.37l1.86,2.34-2.3,1.83-1.86-2.34,2.3-1.83ZM156.78,201.12l2.3-1.83,1.86,2.34-2.3,1.83-1.86-2.34ZM159.39,199.04l2.3-1.83,1.86,2.34-2.3,1.83-1.86-2.34ZM163.8,199.87l1.86,2.34-2.3,1.83-1.86-2.34,2.3-1.83ZM164.11,199.62l2.3-1.83,1.86,2.34-2.3,1.83-1.86-2.34ZM166.73,197.54l2.3-1.83,1.86,2.34-2.3,1.83-1.86-2.34ZM169.34,195.46l2.3-1.83,1.86,2.34-2.3,1.83-1.86-2.34ZM171.95,193.38l2.3-1.83,1.86,2.34-2.3,1.83-1.86-2.34ZM174.57,191.3l2.3-1.83,1.86,2.34-2.3,1.83-1.86-2.34ZM177.18,189.22l2.3-1.83,1.86,2.34-2.3,1.83-1.86-2.34ZM176.93,188.91l-1.86-2.34,2.3-1.83,1.86,2.34-2.3,1.83ZM175.58,181.84l2.3-1.83,1.86,2.34-2.3,1.83-1.86-2.34ZM175.33,181.53l-1.86-2.34,2.3-1.83,1.86,2.34-2.3,1.83ZM173.22,178.87l-1.86-2.34,2.3-1.83,1.86,2.34-2.3,1.83ZM171.11,176.22l-1.86-2.34,2.3-1.83,1.86,2.34-2.3,1.83ZM169,173.57l-1.86-2.34,2.3-1.83,1.86,2.34-2.3,1.83ZM166.89,170.92l-1.86-2.34,2.3-1.83,1.86,2.34-2.3,1.83ZM164.78,168.26l-1.86-2.34,2.3-1.83,1.86,2.34-2.3,1.83ZM162.67,165.61l-1.86-2.34,2.3-1.83,1.86,2.34-2.3,1.83ZM160.56,162.96l-1.86-2.34,2.3-1.83,1.86,2.34-2.3,1.83ZM158.45,160.31l-1.86-2.34,2.3-1.83,1.86,2.34-2.3,1.83ZM156.34,157.65l-1.86-2.34,2.3-1.83,1.86,2.34-2.3,1.83ZM154.23,155l-1.86-2.34,2.3-1.83,1.86,2.34-2.3,1.83ZM152.12,152.35l-1.86-2.34,2.3-1.83,1.86,2.34-2.3,1.83ZM150.01,149.7l-1.86-2.34,2.3-1.83,1.86,2.34-2.3,1.83ZM149.7,149.95l-2.3,1.83-1.86-2.34,2.3-1.83,1.86,2.34ZM145.29,149.12l-1.86-2.34,2.3-1.83,1.86,2.34-2.3,1.83ZM144.97,149.37l-2.3,1.83-1.86-2.34,2.3-1.83,1.86,2.34ZM140.56,148.55l-1.86-2.34,2.3-1.83,1.86,2.34-2.3,1.83ZM140.25,148.8l-2.3,1.83-1.86-2.34,2.3-1.83,1.86,2.34ZM137.64,150.88l-2.3,1.83-1.86-2.34,2.3-1.83,1.86,2.34ZM135.02,152.96l-2.3,1.83-1.86-2.34,2.3-1.83,1.86,2.34ZM132.41,155.04l-2.3,1.83-1.86-2.34,2.3-1.83,1.86,2.34ZM129.8,157.11l-2.3,1.83-1.86-2.34,2.3-1.83,1.86,2.34ZM127.18,159.19l-2.3,1.83-1.86-2.34,2.3-1.83,1.86,2.34ZM124.57,161.27l-2.3,1.83-1.86-2.34,2.3-1.83,1.86,2.34ZM121.96,163.35l-2.3,1.83-1.86-2.34,2.3-1.83,1.86,2.34ZM119.34,165.43l-2.3,1.83-1.86-2.34,2.3-1.83,1.86,2.34ZM118.84,170.16l-2.3,1.83-1.86-2.34,2.3-1.83,1.86,2.34ZM119.09,170.47l1.86,2.34-2.3,1.83-1.86-2.34,2.3-1.83ZM121.2,173.13l1.86,2.34-2.3,1.83-1.86-2.34,2.3-1.83ZM123.31,175.78l1.86,2.34-2.3,1.83-1.86-2.34,2.3-1.83ZM125.42,178.43l1.86,2.34-2.3,1.83-1.86-2.34,2.3-1.83ZM127.53,181.08l1.86,2.34-2.3,1.83-1.86-2.34,2.3-1.83ZM129.64,183.74l1.86,2.34-2.3,1.83-1.86-2.34,2.3-1.83ZM131.75,186.39l1.86,2.34-2.3,1.83-1.86-2.34,2.3-1.83ZM133.86,189.04l1.86,2.34-2.3,1.83-1.86-2.34,2.3-1.83ZM135.97,191.69l1.86,2.34-2.3,1.83-1.86-2.34,2.3-1.83ZM138.08,194.34l1.86,2.34-2.3,1.83-1.86-2.34,2.3-1.83ZM140.19,197l1.86,2.34-2.3,1.83-1.86-2.34,2.3-1.83ZM142.29,199.65l1.86,2.34-2.3,1.83-1.86-2.34,2.3-1.83ZM144.4,202.3l1.86,2.34-2.3,1.83-1.86-2.34,2.3-1.83ZM144.72,202.05l2.3-1.83,1.86,2.34-2.3,1.83-1.86-2.34ZM149.13,202.88l1.86,2.34-2.3,1.83-1.86-2.34,2.3-1.83ZM151.24,205.53l1.86,2.34-2.3,1.83-1.86-2.34,2.3-1.83ZM151.55,205.28l2.3-1.83,1.86,2.34-2.3,1.83-1.86-2.34ZM155.96,206.1l1.86,2.34-2.3,1.83-1.86-2.34,2.3-1.83ZM156.27,205.85l2.3-1.83,1.86,2.34-2.3,1.83-1.86-2.34ZM158.89,203.77l2.3-1.83,1.86,2.34-2.3,1.83-1.86-2.34ZM163.3,204.6l1.86,2.34-2.3,1.83-1.86-2.34,2.3-1.83ZM163.61,204.35l2.3-1.83,1.86,2.34-2.3,1.83-1.86-2.34ZM166.22,202.27l2.3-1.83,1.86,2.34-2.3,1.83-1.86-2.34ZM168.84,200.19l2.3-1.83,1.86,2.34-2.3,1.83-1.86-2.34ZM171.45,198.11l2.3-1.83,1.86,2.34-2.3,1.83-1.86-2.34ZM174.06,196.03l2.3-1.83,1.86,2.34-2.3,1.83-1.86-2.34ZM176.68,193.96l2.3-1.83,1.86,2.34-2.3,1.83-1.86-2.34ZM179.29,191.88l2.3-1.83,1.86,2.34-2.3,1.83-1.86-2.34ZM179.79,187.15l2.3-1.83,1.86,2.34-2.3,1.83-1.86-2.34ZM179.54,186.83l-1.86-2.34,2.3-1.83,1.86,2.34-2.3,1.83ZM178.19,179.76l2.3-1.83,1.86,2.34-2.3,1.83-1.86-2.34ZM177.94,179.45l-1.86-2.34,2.3-1.83,1.86,2.34-2.3,1.83ZM175.83,176.8l-1.86-2.34,2.3-1.83,1.86,2.34-2.3,1.83ZM173.72,174.14l-1.86-2.34,2.3-1.83,1.86,2.34-2.3,1.83ZM171.61,171.49l-1.86-2.34,2.3-1.83,1.86,2.34-2.3,1.83ZM169.5,168.84l-1.86-2.34,2.3-1.83,1.86,2.34-2.3,1.83ZM167.39,166.19l-1.86-2.34,2.3-1.83,1.86,2.34-2.3,1.83ZM165.28,163.53l-1.86-2.34,2.3-1.83,1.86,2.34-2.3,1.83ZM163.17,160.88l-1.86-2.34,2.3-1.83,1.86,2.34-2.3,1.83ZM161.06,158.23l-1.86-2.34,2.3-1.83,1.86,2.34-2.3,1.83ZM158.95,155.58l-1.86-2.34,2.3-1.83,1.86,2.34-2.3,1.83ZM156.84,152.92l-1.86-2.34,2.3-1.83,1.86,2.34-2.3,1.83ZM154.73,150.27l-1.86-2.34,2.3-1.83,1.86,2.34-2.3,1.83ZM152.62,147.62l-1.86-2.34,2.3-1.83,1.86,2.34-2.3,1.83ZM150.51,144.97l-1.86-2.34,2.3-1.83,1.86,2.34-2.3,1.83ZM150.2,145.22l-2.3,1.83-1.86-2.34,2.3-1.83,1.86,2.34ZM145.79,144.39l-1.86-2.34,2.3-1.83,1.86,2.34-2.3,1.83ZM145.48,144.64l-2.3,1.83-1.86-2.34,2.3-1.83,1.86,2.34ZM141.07,143.82l-1.86-2.34,2.3-1.83,1.86,2.34-2.3,1.83ZM140.75,144.07l-2.3,1.83-1.86-2.34,2.3-1.83,1.86,2.34ZM138.14,146.15l-2.3,1.83-1.86-2.34,2.3-1.83,1.86,2.34ZM135.53,148.23l-2.3,1.83-1.86-2.34,2.3-1.83,1.86,2.34ZM132.91,150.3l-2.3,1.83-1.86-2.34,2.3-1.83,1.86,2.34ZM130.3,152.38l-2.3,1.83-1.86-2.34,2.3-1.83,1.86,2.34ZM127.69,154.46l-2.3,1.83-1.86-2.34,2.3-1.83,1.86,2.34ZM125.07,156.54l-2.3,1.83-1.86-2.34,2.3-1.83,1.86,2.34ZM122.46,158.62l-2.3,1.83-1.86-2.34,2.3-1.83,1.86,2.34ZM119.85,160.7l-2.3,1.83-1.86-2.34,2.3-1.83,1.86,2.34ZM117.23,162.78l-2.3,1.83-1.86-2.34,2.3-1.83,1.86,2.34ZM116.73,167.51l-2.3,1.83-1.86-2.34,2.3-1.83,1.86,2.34ZM116.23,172.24l-2.3,1.83-1.86-2.34,2.3-1.83,1.86,2.34ZM116.48,172.55l1.86,2.34-2.3,1.83-1.86-2.34,2.3-1.83ZM118.59,175.2l1.86,2.34-2.3,1.83-1.86-2.34,2.3-1.83ZM120.7,177.86l1.86,2.34-2.3,1.83-1.86-2.34,2.3-1.83ZM122.81,180.51l1.86,2.34-2.3,1.83-1.86-2.34,2.3-1.83ZM124.92,183.16l1.86,2.34-2.3,1.83-1.86-2.34,2.3-1.83ZM127.03,185.81l1.86,2.34-2.3,1.83-1.86-2.34,2.3-1.83ZM129.13,188.47l1.86,2.34-2.3,1.83-1.86-2.34,2.3-1.83ZM131.24,191.12l1.86,2.34-2.3,1.83-1.86-2.34,2.3-1.83ZM133.35,193.77l1.86,2.34-2.3,1.83-1.86-2.34,2.3-1.83ZM135.46,196.42l1.86,2.34-2.3,1.83-1.86-2.34,2.3-1.83ZM137.57,199.08l1.86,2.34-2.3,1.83-1.86-2.34,2.3-1.83ZM139.68,201.73l1.86,2.34-2.3,1.83-1.86-2.34,2.3-1.83ZM141.79,204.38l1.86,2.34-2.3,1.83-1.86-2.34,2.3-1.83ZM143.9,207.03l1.86,2.34-2.3,1.83-1.86-2.34,2.3-1.83ZM144.22,206.78l2.3-1.83,1.86,2.34-2.3,1.83-1.86-2.34ZM148.62,207.61l1.86,2.34-2.3,1.83-1.86-2.34,2.3-1.83ZM150.73,210.26l1.86,2.34-2.3,1.83-1.86-2.34,2.3-1.83ZM151.05,210.01l2.3-1.83,1.86,2.34-2.3,1.83-1.86-2.34ZM155.46,210.83l1.86,2.34-2.3,1.83-1.86-2.34,2.3-1.83ZM155.77,210.58l2.3-1.83,1.86,2.34-2.3,1.83-1.86-2.34ZM158.38,208.5l2.3-1.83,1.86,2.34-2.3,1.83-1.86-2.34ZM162.79,209.33l5.15,6.47c-1.01.35-2.03.64-3.08.85l-4.37-5.5,2.3-1.83ZM163.11,209.08l2.3-1.83,5.72,7.19c-.91.47-1.83.88-2.78,1.23l-5.24-6.59ZM165.72,207l2.3-1.83,5.99,7.54c-.83.57-1.67,1.08-2.53,1.54l-5.76-7.25ZM168.33,204.92l2.3-1.83,6,7.55c-.37.32-.73.65-1.12.95-.39.31-.79.59-1.18.87l-6-7.55ZM170.95,202.84l2.3-1.83,5.76,7.25c-.64.73-1.32,1.44-2.07,2.12l-5.99-7.54ZM173.56,200.76l2.3-1.83,5.24,6.59c-.55.84-1.16,1.65-1.82,2.43l-5.72-7.19ZM176.17,198.69l2.3-1.83,4.37,5.5c-.44.97-.95,1.9-1.52,2.81l-5.15-6.47ZM178.79,196.61l2.3-1.83,3.08,3.88c-.31,1.13-.7,2.22-1.15,3.27l-4.23-5.32ZM181.4,194.53l2.3-1.83,1.27,1.59c-.14,1.33-.37,2.62-.68,3.86l-2.89-3.63ZM185.06,188.41l-.55-.69.45-.36c.03.35.08.7.1,1.04ZM184.92,186.89l-.65.52-1.86-2.34,2.01-1.6c.22,1.17.38,2.31.5,3.42ZM184.26,182.69c.02.11.05.23.07.34l-2.17,1.73-1.86-2.34,2.3-1.83,1.67,2.1ZM184.01,181.44c.03.13.05.25.08.38l-1.18-1.48.7-.55c.14.56.28,1.11.41,1.66ZM183.49,179.36l-.83.66-1.86-2.34,1.77-1.41c.34,1.04.65,2.07.92,3.08ZM181.37,172.9c.38.99.74,1.98,1.07,2.97l-1.89,1.5-1.86-2.34,2.68-2.13ZM181.22,172.51l-2.78,2.21-1.86-2.34,3.46-2.75c.42.96.81,1.92,1.18,2.88ZM179.87,169.25l-3.54,2.81-1.86-2.34,4.1-3.26c.45.93.89,1.86,1.3,2.78ZM178.39,166.1l-4.17,3.31-1.86-2.34,4.63-3.68c.48.9.95,1.8,1.4,2.71ZM176.8,163.04l-4.68,3.72-1.86-2.34,5.05-4.02c.51.87,1.01,1.75,1.49,2.63ZM175.1,160.06l-5.1,4.05-1.86-2.34,5.37-4.27c.54.85,1.07,1.7,1.58,2.56ZM173.3,157.16l-5.4,4.3-1.86-2.34,5.59-4.45c.57.82,1.13,1.65,1.67,2.49ZM171.4,154.34l-5.61,4.46-1.86-2.34,5.71-4.54c.6.79,1.19,1.6,1.76,2.42ZM168.44,150.38c.32.4.63.82.95,1.23l-5.71,4.54-1.86-2.34,5.7-4.54c.31.36.62.73.92,1.1ZM165.17,146.82c.72.68,1.42,1.4,2.09,2.16l-5.69,4.53-1.86-2.34,5.46-4.34ZM162.55,144.57c.8.62,1.58,1.27,2.33,1.97l-5.42,4.31-1.86-2.34,4.95-3.94ZM159.64,142.55c.88.54,1.74,1.13,2.58,1.76l-4.87,3.87-1.86-2.34,4.15-3.3ZM159.27,142.34l-4.03,3.2-1.86-2.34,3.02-2.4c.98.46,1.93.98,2.87,1.54ZM155.99,140.61l-2.86,2.28-1.86-2.34,1.53-1.22c1.08.37,2.15.8,3.19,1.28ZM152.35,139.18l-1.33,1.06-1.46-1.83c.94.22,1.87.47,2.78.77ZM148.94,138.27l1.76,2.22-2.3,1.83-1.86-2.34,2.19-1.75c.07.01.14.03.2.04ZM148.22,138.13l-1.93,1.53-1.6-2.02c1.18.1,2.36.26,3.53.48ZM144.15,137.61l1.83,2.3-2.3,1.83-1.86-2.34,2.25-1.79s.05,0,.07,0ZM143.47,137.58l-1.9,1.51-1.19-1.5c1.03-.05,2.06-.06,3.1-.01ZM139.88,137.61l1.38,1.73-2.3,1.83-2.5-3.15c1.13-.2,2.28-.34,3.42-.41ZM136.01,138.11l2.63,3.31-2.3,1.83-3.48-4.38c1.04-.31,2.09-.56,3.15-.76ZM132.45,138.99l3.59,4.51-2.3,1.83-4.19-5.27c.96-.4,1.92-.76,2.91-1.06ZM129.15,140.21l4.27,5.37-2.3,1.83-4.66-5.86c.88-.49,1.78-.94,2.69-1.34ZM126.11,141.74l4.7,5.91-2.3,1.83-4.89-6.15c.81-.57,1.64-1.1,2.49-1.59ZM122.11,144.45c.39-.31.78-.6,1.17-.88l4.9,6.17-2.3,1.83-4.9-6.17c.37-.32.74-.64,1.13-.94ZM120.69,145.66l4.89,6.15-2.3,1.83-4.7-5.91c.66-.72,1.37-1.41,2.11-2.07ZM118.31,148.03l4.66,5.86-2.3,1.83-4.27-5.37c.59-.8,1.23-1.57,1.91-2.32ZM116.16,150.69l4.19,5.27-2.3,1.83-3.59-4.51c.52-.89,1.08-1.75,1.69-2.59ZM114.25,153.67l3.48,4.38-2.3,1.83-2.63-3.31c.43-.99.92-1.95,1.45-2.9ZM112.62,156.98l2.5,3.15-2.3,1.83-1.38-1.73c.33-1.1.73-2.18,1.17-3.24ZM111.32,160.7l1.19,1.5-1.9,1.51c.19-1.02.42-2.02.71-3.01ZM110.51,164.31l2.25-1.79,1.86,2.34-2.3,1.83-1.83-2.3s0-.05.01-.07ZM110.4,164.91l1.61,2.02-1.93,1.53c.05-1.19.15-2.38.32-3.55ZM110.06,168.99l2.19-1.74,1.86,2.34-2.3,1.83-1.76-2.21c0-.07,0-.14,0-.21ZM110.05,169.83l1.45,1.83-1.33,1.06c-.08-.96-.12-1.93-.13-2.89ZM110.22,173.19l1.53-1.22,1.86,2.34-2.86,2.28c-.23-1.13-.41-2.26-.52-3.4ZM110.84,177.03l3.02-2.4,1.86,2.34-4.03,3.2c-.34-1.04-.62-2.09-.85-3.14ZM111.82,180.58l4.15-3.3,1.86,2.34-4.87,3.87c-.43-.96-.81-1.93-1.14-2.91ZM113.13,183.87l4.95-3.94,1.86,2.34-5.42,4.31c-.51-.89-.97-1.79-1.39-2.71ZM114.73,186.93l5.46-4.34,1.86,2.34-5.69,4.53c-.59-.82-1.13-1.66-1.63-2.52ZM117.47,190.92c-.3-.38-.59-.76-.87-1.15l5.7-4.54,1.86,2.34-5.71,4.54c-.33-.4-.66-.8-.98-1.2ZM118.7,192.43l5.71-4.54,1.86,2.34-5.61,4.46c-.67-.74-1.32-1.5-1.96-2.26ZM122.98,197.18c-.7-.72-1.38-1.45-2.05-2.19l5.59-4.45,1.86,2.34-5.4,4.3ZM125.39,199.59c-.72-.69-1.44-1.4-2.14-2.12l5.37-4.27,1.86,2.34-5.1,4.05ZM127.92,201.91c-.75-.67-1.49-1.35-2.23-2.04l5.05-4.02,1.86,2.34-4.68,3.72ZM130.54,204.15c-.78-.64-1.56-1.3-2.32-1.97l4.63-3.68,1.86,2.34-4.17,3.31ZM133.28,206.3c-.81-.61-1.62-1.24-2.42-1.89l4.1-3.26,1.86,2.34-3.54,2.81ZM136.15,208.36c-.85-.58-1.69-1.17-2.54-1.8l3.46-2.75,1.86,2.34-2.78,2.21ZM139.15,210.3c-.88-.54-1.77-1.11-2.65-1.71l2.68-2.13,1.86,2.34-1.89,1.5ZM139.52,210.52l1.77-1.41,1.86,2.34-.83.66c-.93-.49-1.86-1.03-2.8-1.59ZM144.23,213.09c-.51-.24-1.01-.5-1.52-.77l.7-.55,1.18,1.48c-.12-.06-.23-.1-.35-.16ZM145.38,213.61l-1.67-2.1,2.3-1.83,1.86,2.34-2.17,1.73c-.1-.05-.21-.1-.32-.14ZM149.33,215.19c-1.06-.37-2.13-.78-3.22-1.25l2.01-1.6,1.86,2.34-.65.52ZM149.78,215.35l.45-.36.55.69c-.33-.1-.66-.22-.99-.33ZM151.44,215.86l-.89-1.12,2.3-1.83,1.86,2.34-1.38,1.1c-.62-.14-1.25-.31-1.88-.49ZM155.81,216.8c-.06-.02-.12-.04-.15-.05v.02c-.61-.09-1.22-.19-1.83-.32l1.12-.89,1.01,1.27s-.1-.02-.15-.03ZM156.54,216.91l-1.27-1.59,2.3-1.83,2.89,3.63c-1.28.02-2.59-.04-3.92-.21ZM160.96,217.11l-3.08-3.88,2.3-1.83,4.23,5.32c-1.13.2-2.28.34-3.45.38ZM192.34,235.93h0c-9.89-7.61-20.49-12.81-27.75-15.85.72-.11,1.45-.25,2.17-.43.14-.04.29-.07.43-.11.99-.26,1.98-.61,2.96-.99.13-.05.26-.1.39-.16.92-.38,1.83-.8,2.73-1.29.12-.07.24-.13.36-.2.84-.47,1.66-1.01,2.49-1.59.11-.08.22-.16.33-.24.4-.29.79-.56,1.19-.87.39-.31.75-.64,1.11-.96.1-.09.21-.17.31-.26.75-.67,1.46-1.36,2.11-2.06.09-.1.18-.2.27-.3.68-.77,1.3-1.56,1.87-2.37.08-.11.16-.23.24-.35.6-.87,1.15-1.75,1.63-2.66.07-.13.14-.26.2-.39.34-.66.63-1.34.9-2.02,1.33,7.76,4.01,19.26,9.2,30.61h0s1.67,3.95,1.02,4.48c-.66.52-4.13-2-4.13-2Z"/>
          <path class="st0" d="M231.5,273.82l-2.1-2.65-9.28,4.66,3.43,4.31s.08.1.12.15l9.55-4.8c-.63-.52-1.24-1.1-1.71-1.68Z"/>
          <polygon class="st0" points="203.62 245.4 204.51 246.11 200.89 250.67 209.61 246.29 206.06 241.83 205.76 241.98 206.11 242.26 203.62 245.4"/>
          <path class="st0" d="M205.72,241.4l-2.47-3.11c-.42-.53-1.2-.62-1.73-.2l-.32.26,4.1,3.26.42-.21Z"/>
        </g>
        <path class="st0" d="M186.16,252.85l9.28,4.66-3.55,4.46-9.28-4.66,3.55-4.46ZM186.5,252.43l9.28,4.66,3.55-4.46-9.28-4.66-3.55,4.46ZM194.28,242.64l9.28,4.66,1.15-1.45c.42-.53.33-1.31-.2-1.73l-6.03-4.79c-.53-.42-1.3-.33-1.73.2l-2.47,3.11ZM178.72,262.21l9.28,4.66,3.55-4.46-9.28-4.66-3.55,4.46ZM190.39,247.53l9.28,4.66,3.55-4.46-9.28-4.66-3.55,4.46ZM166.79,276.75l9.55,4.8c.04-.05.08-.11.12-.15l3.43-4.31-9.28-4.66-2.1,2.65c-.47.59-1.08,1.16-1.71,1.68ZM162.39,281.01c-.07.89.31,1.76,1.01,2.32l6.16,4.9c.7.56,1.63.73,2.48.46.85-.27,1.52-.94,1.77-1.8,0-.03.88-2.88,2.22-4.89l-9.69-4.87c-1.32,1.02-2.57,1.75-2.59,1.76-.78.44-1.28,1.23-1.35,2.13ZM174.83,267.1l9.28,4.66,3.55-4.46-9.28-4.66-3.55,4.46ZM170.94,271.99l9.28,4.66,3.55-4.46-9.28-4.66-3.55,4.46ZM250.21,172.76l2.3,1.83,1.86-2.34-2.3-1.83-1.86,2.34ZM232.83,189.25l2.3,1.83,1.86-2.34-2.3-1.83-1.86,2.34ZM234.94,186.6l2.3,1.83,1.86-2.34-2.3-1.83-1.86,2.34ZM228.61,194.56l2.3,1.83,1.86-2.34-2.3-1.83-1.86,2.34ZM224.39,199.86l2.3,1.83,1.86-2.34-2.3-1.83-1.86,2.34ZM230.72,191.91l2.3,1.83,1.86-2.34-2.3-1.83-1.86,2.34ZM245.49,173.34l2.3,1.83,1.86-2.34-2.3-1.83-1.86,2.34ZM243.38,175.99l2.3,1.83,1.86-2.34-2.3-1.83-1.86,2.34ZM239.16,181.3l2.3,1.83,1.86-2.34-2.3-1.83-1.86,2.34ZM237.05,183.95l2.3,1.83,1.86-2.34-2.3-1.83-1.86,2.34ZM241.27,178.64l2.3,1.83,1.86-2.34-2.3-1.83-1.86,2.34ZM256.54,164.81l2.3,1.83,1.86-2.34-2.3-1.83-1.86,2.34ZM247.6,170.69l2.3,1.83,1.86-2.34-2.3-1.83-1.86,2.34ZM258.65,162.15l2.3,1.83,1.86-2.34-2.3-1.83-1.86,2.34ZM254.43,167.46l2.3,1.83,1.86-2.34-2.3-1.83-1.86,2.34ZM260.76,159.5l2.3,1.83,1.86-2.34-2.3-1.83-1.86,2.34ZM252.32,170.11l2.3,1.83,1.86-2.34-2.3-1.83-1.86,2.34ZM262.87,156.85l2.3,1.83,1.86-2.34-2.3-1.83-1.86,2.34ZM218.9,206.76c.55.84,1.16,1.65,1.82,2.43l5.72-7.19-2.3-1.83-5.24,6.59ZM269.2,148.89l2.3,1.83,4.89-6.15c-.81-.57-1.64-1.1-2.49-1.59l-4.7,5.91ZM267.09,151.54l2.3,1.83,1.86-2.34-2.3-1.83-1.86,2.34ZM264.98,154.2l2.3,1.83,1.86-2.34-2.3-1.83-1.86,2.34ZM226.5,197.21l2.3,1.83,1.86-2.34-2.3-1.83-1.86,2.34ZM230.22,187.17l2.3,1.83,1.86-2.34-2.3-1.83-1.86,2.34ZM232.33,184.52l2.3,1.83,1.86-2.34-2.3-1.83-1.86,2.34ZM234.44,181.87l2.3,1.83,1.86-2.34-2.3-1.83-1.86,2.34ZM226,192.48l2.3,1.83,1.86-2.34-2.3-1.83-1.86,2.34ZM228.11,189.83l2.3,1.83,1.86-2.34-2.3-1.83-1.86,2.34ZM249.71,168.03l2.3,1.83,1.86-2.34-2.3-1.83-1.86,2.34ZM242.87,171.26l2.3,1.83,1.86-2.34-2.3-1.83-1.86,2.34ZM244.98,168.61l2.3,1.83,1.86-2.34-2.3-1.83-1.86,2.34ZM247.09,165.96l2.3,1.83,1.86-2.34-2.3-1.83-1.86,2.34ZM240.77,173.91l2.3,1.83,1.86-2.34-2.3-1.83-1.86,2.34ZM223.89,195.13l2.3,1.83,1.86-2.34-2.3-1.83-1.86,2.34ZM236.55,179.22l2.3,1.83,1.86-2.34-2.3-1.83-1.86,2.34ZM260.26,154.77l2.3,1.83,1.86-2.34-2.3-1.83-1.86,2.34ZM256.04,160.08l2.3,1.83,1.86-2.34-2.3-1.83-1.86,2.34ZM258.15,157.42l2.3,1.83,1.86-2.34-2.3-1.83-1.86,2.34ZM221.78,197.78l2.3,1.83,1.86-2.34-2.3-1.83-1.86,2.34ZM251.82,165.38l2.3,1.83,1.86-2.34-2.3-1.83-1.86,2.34ZM253.93,162.73l2.3,1.83,1.86-2.34-2.3-1.83-1.86,2.34ZM266.58,146.81l2.3,1.83,4.66-5.86c-.88-.49-1.78-.94-2.69-1.34l-4.27,5.37ZM217.16,203.59c.44.97.95,1.9,1.52,2.81l5.15-6.47-2.3-1.83-4.37,5.5ZM264.47,149.47l2.3,1.83,1.86-2.34-2.3-1.83-1.86,2.34ZM262.36,152.12l2.3,1.83,1.86-2.34-2.3-1.83-1.86,2.34ZM238.66,176.56l2.3,1.83,1.86-2.34-2.3-1.83-1.86,2.34ZM235.95,196.06l2.3,1.83,1.86-2.34-2.3-1.83-1.86,2.34ZM233.84,198.71l2.3,1.83,1.86-2.34-2.3-1.83-1.86,2.34ZM231.73,201.37l2.3,1.83,1.86-2.34-2.3-1.83-1.86,2.34ZM238.06,193.41l2.3,1.83,1.86-2.34-2.3-1.83-1.86,2.34ZM224.48,212.84c.39.31.79.59,1.18.87l6-7.55-2.3-1.83-6,7.55c.37.32.73.65,1.12.95ZM229.62,204.02l2.3,1.83,1.86-2.34-2.3-1.83-1.86,2.34ZM246.5,182.8l2.3,1.83,1.86-2.34-2.3-1.83-1.86,2.34ZM248.61,180.15l2.3,1.83,1.86-2.34-2.3-1.83-1.86,2.34ZM242.28,188.11l2.3,1.83,1.86-2.34-2.3-1.83-1.86,2.34ZM240.17,190.76l2.3,1.83,1.86-2.34-2.3-1.83-1.86,2.34ZM244.39,185.45l2.3,1.83,1.86-2.34-2.3-1.83-1.86,2.34ZM257.55,174.27l2.3,1.83,1.86-2.34-2.3-1.83-1.86,2.34ZM250.71,177.5l2.3,1.83,1.86-2.34-2.3-1.83-1.86,2.34ZM259.66,171.62l2.3,1.83,1.86-2.34-2.3-1.83-1.86,2.34ZM263.88,166.31l2.3,1.83,1.86-2.34-2.3-1.83-1.86,2.34ZM253.33,179.57l2.3,1.83,1.86-2.34-2.3-1.83-1.86,2.34ZM255.44,176.92l2.3,1.83,1.86-2.34-2.3-1.83-1.86,2.34ZM268.1,161.01l2.3,1.83,1.86-2.34-2.3-1.83-1.86,2.34ZM272.31,155.7l2.3,1.83,1.86-2.34-2.3-1.83-1.86,2.34ZM270.2,158.35l2.3,1.83,1.86-2.34-2.3-1.83-1.86,2.34ZM265.99,163.66l2.3,1.83,1.86-2.34-2.3-1.83-1.86,2.34ZM274.42,153.05l2.3,1.83,4.7-5.91c-.66-.72-1.37-1.41-2.11-2.07l-4.89,6.15ZM261.26,164.23l2.3,1.83,1.86-2.34-2.3-1.83-1.86,2.34ZM235.44,191.33l2.3,1.83,1.86-2.34-2.3-1.83-1.86,2.34ZM233.33,193.98l2.3,1.83,1.86-2.34-2.3-1.83-1.86,2.34ZM231.22,196.64l2.3,1.83,1.86-2.34-2.3-1.83-1.86,2.34ZM237.55,188.68l2.3,1.83,1.86-2.34-2.3-1.83-1.86,2.34ZM229.11,199.29l2.3,1.83,1.86-2.34-2.3-1.83-1.86,2.34ZM239.66,186.03l2.3,1.83,1.86-2.34-2.3-1.83-1.86,2.34ZM227.01,201.94l2.3,1.83,1.86-2.34-2.3-1.83-1.86,2.34ZM245.99,178.07l2.3,1.83,1.86-2.34-2.3-1.83-1.86,2.34ZM243.88,180.72l2.3,1.83,1.86-2.34-2.3-1.83-1.86,2.34ZM241.77,183.37l2.3,1.83,1.86-2.34-2.3-1.83-1.86,2.34ZM265.48,158.93l2.3,1.83,1.86-2.34-2.3-1.83-1.86,2.34ZM263.37,161.58l2.3,1.83,1.86-2.34-2.3-1.83-1.86,2.34ZM248.1,175.42l2.3,1.83,1.86-2.34-2.3-1.83-1.86,2.34ZM259.15,166.89l2.3,1.83,1.86-2.34-2.3-1.83-1.86,2.34ZM257.04,169.54l2.3,1.83,1.86-2.34-2.3-1.83-1.86,2.34ZM254.93,172.19l2.3,1.83,1.86-2.34-2.3-1.83-1.86,2.34ZM252.82,174.84l2.3,1.83,1.86-2.34-2.3-1.83-1.86,2.34ZM269.7,153.62l2.3,1.83,1.86-2.34-2.3-1.83-1.86,2.34ZM271.81,150.97l2.3,1.83,4.9-6.17c-.37-.32-.74-.64-1.13-.94s-.78-.6-1.17-.88l-4.9,6.17ZM220.99,209.5c.64.73,1.32,1.44,2.07,2.12l5.99-7.54-2.3-1.83-5.76,7.25ZM267.59,156.28l2.3,1.83,1.86-2.34-2.3-1.83-1.86,2.34ZM253.67,210.67l-2.3-1.83-1.86,2.34,2.3,1.83,1.86-2.34ZM275.27,188.88l-2.3-1.83-1.86,2.34,2.3,1.83,1.86-2.34ZM273.16,191.53l-2.3-1.83-1.86,2.34,2.3,1.83,1.86-2.34ZM279.49,183.58l-2.3-1.83-1.86,2.34,2.3,1.83,1.86-2.34ZM281.6,180.92l-2.3-1.83-1.86,2.34,2.3,1.83,1.86-2.34ZM277.38,186.23l-2.3-1.83-1.86,2.34,2.3,1.83,1.86-2.34ZM271.06,194.19l-2.3-1.83-1.86,2.34,2.3,1.83,1.86-2.34ZM268.95,196.84l-2.3-1.83-1.86,2.34,2.3,1.83,1.86-2.34ZM262.62,204.8l-2.3-1.83-1.86,2.34,2.3,1.83,1.86-2.34ZM260.51,207.45l-2.3-1.83-1.86,2.34,2.3,1.83,1.86-2.34ZM266.84,199.49l-2.3-1.83-1.86,2.34,2.3,1.83,1.86-2.34ZM264.73,202.14l-2.3-1.83-1.86,2.34,2.3,1.83,1.86-2.34ZM285.82,175.62l-2.3-1.83-1.86,2.34,2.3,1.83,1.86-2.34ZM246.17,217.69l-1.12-.89-1.01,1.27s.1-.02.15-.03c.06-.02.12-.04.15-.05v.02c.61-.09,1.22-.19,1.83-.32ZM251.57,213.33l-2.3-1.83-1.86,2.34,2.3,1.83,1.86-2.34ZM249.46,215.98l-2.3-1.83-1.86,2.34,1.38,1.1c.62-.14,1.25-.31,1.88-.49l.89-1.12ZM251.22,182.23l2.3,1.83,1.86-2.34-2.3-1.83-1.86,2.34ZM255.78,208.02l-2.3-1.83-1.86,2.34,2.3,1.83,1.86-2.34ZM258.4,210.1l-2.3-1.83-1.86,2.34,2.3,1.83,1.86-2.34ZM287.93,172.97l-2.3-1.83-1.86,2.34,2.3,1.83,1.86-2.34ZM257.89,205.37l-2.3-1.83-1.86,2.34,2.3,1.83,1.86-2.34ZM249.2,163.3l2.3,1.83,1.86-2.34-2.3-1.83-1.86,2.34ZM289.6,166.15l-1.61,2.02,1.93,1.53c-.05-1.19-.15-2.38-.32-3.55ZM283.71,178.27l-2.3-1.83-1.86,2.34,2.3,1.83,1.86-2.34ZM256.29,212.75l-2.3-1.83-1.86,2.34,2.17,1.73c.1-.05.21-.1.31-.14l1.67-2.1ZM271.78,203.42l-4.63-3.68-1.86,2.34,4.17,3.31c.78-.64,1.56-1.3,2.32-1.97ZM276.75,198.71l-5.37-4.27-1.86,2.34,5.1,4.05c.72-.69,1.44-1.4,2.14-2.12ZM274.31,201.11l-5.05-4.02-1.86,2.34,4.68,3.72c.75-.67,1.49-1.35,2.23-2.04ZM266.39,207.79l-3.46-2.75-1.86,2.34,2.78,2.21c.85-.58,1.69-1.17,2.54-1.8ZM260.48,211.76l-1.77-1.41-1.86,2.34.83.66c.93-.49,1.86-1.03,2.8-1.59ZM198.69,239.07l6.04,4.8s0,0,0,0l-1.11-.88-1.5-1.19-.82-.65-1.76-1.4-.85-.67s0,0,0,0ZM263.5,209.83l-2.68-2.13-1.86,2.34,1.89,1.5c.88-.54,1.77-1.11,2.65-1.71ZM279.07,196.23l-5.59-4.45-1.86,2.34,5.4,4.3c.7-.72,1.38-1.45,2.05-2.19ZM257.3,213.56l-.7-.55-1.18,1.48c.12-.06.23-.1.35-.16.51-.24,1.01-.5,1.52-.77ZM269.14,205.65l-4.1-3.26-1.86,2.34,3.53,2.81c.81-.61,1.62-1.24,2.42-1.89ZM289.83,173.96c.08-.96.12-1.93.13-2.89l-1.46,1.83,1.33,1.06ZM289.78,174.43l-1.53-1.22-1.86,2.34,2.86,2.28c.23-1.13.41-2.26.52-3.4ZM289.16,178.27l-3.02-2.4-1.86,2.34,4.03,3.2c.34-1.04.62-2.09.85-3.14ZM253.89,215.18l-2.01-1.6-1.86,2.34.65.52c1.06-.37,2.13-.78,3.22-1.25ZM250.22,216.59l-.45-.36-.54.69c.33-.1.66-.22.99-.33ZM285.27,188.17l-5.46-4.34-1.86,2.34,5.69,4.53c.59-.82,1.13-1.66,1.63-2.52ZM283.4,191.02l-5.7-4.54-1.86,2.34,5.71,4.54c.33-.4.66-.8.98-1.2.3-.38.59-.76.87-1.15ZM281.3,193.67l-5.71-4.54-1.86,2.34,5.61,4.46c.67-.74,1.32-1.5,1.96-2.26ZM288.18,181.82l-4.15-3.3-1.86,2.34,4.87,3.87c.43-.96.81-1.93,1.14-2.91ZM286.87,185.11l-4.95-3.94-1.86,2.34,5.42,4.31c.51-.89.97-1.79,1.39-2.71ZM289.94,170.23l-2.19-1.75-1.86,2.34,2.3,1.83,1.76-2.22c0-.07,0-.14,0-.21ZM282.71,168.81l-2.3-1.83-1.86,2.34,2.3,1.83,1.86-2.34ZM276.38,176.77l-2.3-1.83-1.86,2.34,2.3,1.83,1.86-2.34ZM280.6,171.46l-2.3-1.83-1.86,2.34,2.3,1.83,1.86-2.34ZM278.49,174.12l-2.3-1.83-1.86,2.34,2.3,1.83,1.86-2.34ZM272.16,182.07l-2.3-1.83-1.86,2.34,2.3,1.83,1.86-2.34ZM274.27,179.42l-2.3-1.83-1.86,2.34,2.3,1.83,1.86-2.34ZM259.5,197.99l-2.3-1.83-1.86,2.34,2.3,1.83,1.86-2.34ZM261.61,195.33l-2.3-1.83-1.86,2.34,2.3,1.83,1.86-2.34ZM263.72,192.68l-2.3-1.83-1.86,2.34,2.3,1.83,1.86-2.34ZM260,202.72l-2.3-1.83-1.86,2.34,2.3,1.83,1.86-2.34ZM267.94,187.38l-2.3-1.83-1.86,2.34,2.3,1.83,1.86-2.34ZM270.05,184.73l-2.3-1.83-1.86,2.34,2.3,1.83,1.86-2.34ZM255.53,155.35l2.3,1.83,1.86-2.34-2.3-1.83-1.86,2.34ZM257.64,152.69l2.3,1.83,1.86-2.34-2.3-1.83-1.86,2.34ZM259.75,150.04l2.3,1.83,1.86-2.34-2.3-1.83-1.86,2.34ZM253.42,158l2.3,1.83,1.86-2.34-2.3-1.83-1.86,2.34ZM251.31,160.65l2.3,1.83,1.86-2.34-2.3-1.83-1.86,2.34ZM288.55,161.46c-.33-1.1-.73-2.18-1.17-3.24l-2.5,3.15,2.3,1.83,1.38-1.73ZM284.82,166.16l-2.3-1.83-1.86,2.34,2.3,1.83,1.86-2.34ZM261.86,147.39l2.3,1.83,1.86-2.34-2.3-1.83-1.86,2.34ZM286.93,163.51l-2.3-1.83-1.86,2.34,2.3,1.83,1.86-2.34ZM263.97,144.74l2.3,1.83,4.19-5.27c-.96-.4-1.93-.76-2.91-1.06l-3.59,4.51ZM265.83,190.03l-2.3-1.83-1.86,2.34,2.3,1.83,1.86-2.34ZM276.88,181.5l-2.3-1.83-1.86,2.34,2.3,1.83,1.86-2.34ZM272.66,186.8l-2.3-1.83-1.86,2.34,2.3,1.83,1.86-2.34ZM274.77,184.15l-2.3-1.83-1.86,2.34,2.3,1.83,1.86-2.34ZM281.1,176.19l-2.3-1.83-1.86,2.34,2.3,1.83,1.86-2.34ZM283.21,173.54l-2.3-1.83-1.86,2.34,2.3,1.83,1.86-2.34ZM278.99,178.85l-2.3-1.83-1.86,2.34,2.3,1.83,1.86-2.34ZM270.55,189.46l-2.3-1.83-1.86,2.34,2.3,1.83,1.86-2.34ZM262.11,200.06l-2.3-1.83-1.86,2.34,2.3,1.83,1.86-2.34ZM264.22,197.41l-2.3-1.83-1.86,2.34,2.3,1.83,1.86-2.34ZM268.44,192.11l-2.3-1.83-1.86,2.34,2.3,1.83,1.86-2.34ZM266.33,194.76l-2.3-1.83-1.86,2.34,2.3,1.83,1.86-2.34ZM251.06,208.6l-2.3-1.83-1.86,2.34,2.3,1.83,1.86-2.34ZM257.39,200.64l-2.3-1.83-1.86,2.34,2.3,1.83,1.86-2.34ZM246.84,213.9l-2.3-1.83-1.86,2.34,2.3,1.83,1.86-2.34ZM248.95,211.25l-2.3-1.83-1.86,2.34,2.3,1.83,1.86-2.34ZM253.17,205.94l-2.3-1.83-1.86,2.34,2.3,1.83,1.86-2.34ZM255.28,203.29l-2.3-1.83-1.86,2.34,2.3,1.83,1.86-2.34ZM244.73,216.55l-2.3-1.83-2.89,3.63c1.28.02,2.59-.04,3.92-.21l1.27-1.59ZM285.32,170.89l-2.3-1.83-1.86,2.34,2.3,1.83,1.86-2.34ZM287.43,168.24l-2.3-1.83-1.86,2.34,2.3,1.83,1.86-2.34ZM289.5,165.55l-2.25-1.79-1.86,2.34,2.3,1.83,1.83-2.3s0-.05-.01-.07ZM289.39,164.95c-.19-1.02-.42-2.02-.71-3.01l-1.19,1.5,1.9,1.51ZM261.77,168.96l2.3,1.83,1.86-2.34-2.3-1.83-1.86,2.34ZM263.54,139.26c-1.13-.2-2.28-.34-3.42-.41l-1.38,1.73,2.3,1.83,2.5-3.15ZM215.99,193.69l-1.12-.89c.01.63.05,1.24.1,1.85h.02s0,.09-.01.16c0,.05,0,.1,0,.15l1.01-1.27ZM256.53,138.82l1.9,1.51,1.19-1.5c-1.03-.05-2.06-.06-3.1-.01ZM220.21,188.39l-2.3-1.83-1.86,2.34,2.3,1.83,1.86-2.34ZM222.32,185.73l-2.3-1.83-1.86,2.34,2.3,1.83,1.86-2.34ZM218.1,191.04l-2.3-1.83-.89,1.12c-.03.66-.05,1.31-.05,1.95l1.38,1.1,1.86-2.34ZM245.52,156.56l-2.3-1.83-1.86,2.34,2.3,1.83,1.86-2.34ZM254.46,150.68l-2.3-1.83-1.86,2.34,2.3,1.83,1.86-2.34ZM256.57,148.03l-2.3-1.83-1.86,2.34,2.3,1.83,1.86-2.34ZM260.79,142.72l-2.3-1.83-1.86,2.34,2.3,1.83,1.86-2.34ZM258.68,145.37l-2.3-1.83-1.86,2.34,2.3,1.83,1.86-2.34ZM232.86,172.47l-2.3-1.83-1.86,2.34,2.3,1.83,1.86-2.34ZM234.97,169.82l-2.3-1.83-1.86,2.34,2.3,1.83,1.86-2.34ZM237.08,167.17l-2.3-1.83-1.86,2.34,2.3,1.83,1.86-2.34ZM239.19,164.51l-2.3-1.83-1.86,2.34,2.3,1.83,1.86-2.34ZM241.3,161.86l-2.3-1.83-1.86,2.34,2.3,1.83,1.86-2.34ZM243.41,159.21l-2.3-1.83-1.86,2.34,2.3,1.83,1.86-2.34ZM228.64,177.78l-2.3-1.83-1.86,2.34,2.3,1.83,1.86-2.34ZM224.43,183.08l-2.3-1.83-1.86,2.34,2.3,1.83,1.86-2.34ZM226.54,180.43l-2.3-1.83-1.86,2.34,2.3,1.83,1.86-2.34ZM230.75,175.12l-2.3-1.83-1.86,2.34,2.3,1.83,1.86-2.34ZM250.24,155.98l-2.3-1.83-1.86,2.34,2.3,1.83,1.86-2.34ZM252.35,153.33l-2.3-1.83-1.86,2.34,2.3,1.83,1.86-2.34ZM248.13,158.64l-2.3-1.83-1.86,2.34,2.3,1.83,1.86-2.34ZM267.14,140.11c-1.04-.31-2.09-.56-3.15-.76l-2.63,3.31,2.3,1.83,3.48-4.38ZM220.71,193.12l-2.3-1.83-1.86,2.34,2.3,1.83,1.86-2.34ZM222.82,190.46l-2.3-1.83-1.86,2.34,2.3,1.83,1.86-2.34ZM263.41,144.8l-2.3-1.83-1.86,2.34,2.3,1.83,1.86-2.34ZM224.93,187.81l-2.3-1.83-1.86,2.34,2.3,1.83,1.86-2.34ZM261.3,147.45l-2.3-1.83-1.86,2.34,2.3,1.83,1.86-2.34ZM252.86,158.06l-2.3-1.83-1.86,2.34,2.3,1.83,1.86-2.34ZM254.97,155.41l-2.3-1.83-1.86,2.34,2.3,1.83,1.86-2.34ZM257.08,152.76l-2.3-1.83-1.86,2.34,2.3,1.83,1.86-2.34ZM259.19,150.1l-2.3-1.83-1.86,2.34,2.3,1.83,1.86-2.34ZM218.6,195.77l-2.3-1.83-1.27,1.59c.14,1.33.37,2.62.68,3.86l2.89-3.63ZM239.7,169.24l-2.3-1.83-1.86,2.34,2.3,1.83,1.86-2.34ZM241.81,166.59l-2.3-1.83-1.86,2.34,2.3,1.83,1.86-2.34ZM246.03,161.29l-2.3-1.83-1.86,2.34,2.3,1.83,1.86-2.34ZM227.04,185.16l-2.3-1.83-1.86,2.34,2.3,1.83,1.86-2.34ZM237.59,171.9l-2.3-1.83-1.86,2.34,2.3,1.83,1.86-2.34ZM243.92,163.94l-2.3-1.83-1.86,2.34,2.3,1.83,1.86-2.34ZM231.26,179.85l-2.3-1.83-1.86,2.34,2.3,1.83,1.86-2.34ZM235.48,174.55l-2.3-1.83-1.86,2.34,2.3,1.83,1.86-2.34ZM229.15,182.51l-2.3-1.83-1.86,2.34,2.3,1.83,1.86-2.34ZM233.37,177.2l-2.3-1.83-1.86,2.34,2.3,1.83,1.86-2.34ZM255.92,138.85s-.05,0-.07,0l-1.83,2.3,2.3,1.83,1.86-2.34-2.25-1.79ZM232.75,150.21l5.69,4.53,1.86-2.34-5.46-4.34c-.72.68-1.42,1.4-2.09,2.16ZM237.78,145.56l4.87,3.87,1.86-2.34-4.15-3.3c-.88.54-1.74,1.13-2.58,1.76ZM235.13,147.78l5.42,4.31,1.86-2.34-4.95-3.94c-.8.62-1.58,1.27-2.33,1.97ZM217.09,181.58l-.7-.55c-.14.56-.28,1.11-.41,1.66-.03.13-.05.25-.08.38l1.18-1.48ZM247.63,153.9l-2.3-1.83-1.86,2.34,2.3,1.83,1.86-2.34ZM221.31,176.27l-2.68-2.13c-.38.99-.74,1.98-1.07,2.97l1.89,1.5,1.86-2.34ZM251.26,139.47c-.07.01-.14.03-.2.04l-1.76,2.22,2.3,1.83,1.86-2.34-2.19-1.75ZM251.35,143.87l-2.3-1.83-1.86,2.34,2.3,1.83,1.86-2.34ZM240.74,143.58l4.03,3.2,1.86-2.34-3.02-2.4c-.98.46-1.93.98-2.87,1.54ZM247.65,140.42l1.33,1.06,1.46-1.83c-.94.22-1.87.47-2.78.77ZM244.01,141.85l2.86,2.28,1.86-2.34-1.53-1.22c-1.08.37-2.15.8-3.19,1.28ZM219.2,178.92l-1.77-1.41c-.34,1.04-.65,2.07-.92,3.08l.83.66,1.86-2.34ZM236.08,157.71l-5.71-4.54c-.6.79-1.19,1.6-1.76,2.42l5.61,4.46,1.86-2.34ZM232.48,150.52c-.31.36-.62.73-.92,1.1-.32.4-.63.82-.95,1.23l5.71,4.54,1.86-2.34-5.7-4.54ZM233.97,160.36l-5.59-4.45c-.57.82-1.13,1.65-1.67,2.49l5.4,4.3,1.86-2.34ZM249.11,184.88l2.3,1.83,1.86-2.34-2.3-1.83-1.86,2.34ZM223.42,173.62l-3.46-2.75c-.42.96-.81,1.92-1.18,2.88l2.78,2.21,1.86-2.34ZM231.86,163.01l-5.37-4.27c-.54.85-1.07,1.7-1.58,2.56l5.1,4.05,1.86-2.34ZM225.53,170.97l-4.1-3.26c-.45.93-.89,1.86-1.3,2.78l3.53,2.81,1.86-2.34ZM227.64,168.32l-4.63-3.68c-.48.9-.95,1.8-1.4,2.71l4.17,3.31,1.86-2.34ZM229.75,165.66l-5.05-4.02c-.51.87-1.01,1.75-1.49,2.63l4.68,3.72,1.86-2.34ZM249.24,146.52l-2.3-1.83-1.86,2.34,2.3,1.83,1.86-2.34ZM215.48,188.96l-.45-.36c-.03.35-.08.7-.1,1.04l.54-.69ZM217.59,186.31l-2.01-1.6c-.22,1.17-.38,2.31-.5,3.42l.65.52,1.86-2.34ZM251.78,139.37l1.93,1.53,1.61-2.02c-1.18.1-2.36.26-3.53.48ZM221.81,181l-2.3-1.83-1.86,2.34,2.3,1.83,1.86-2.34ZM219.7,183.66l-2.3-1.83-1.67,2.1c-.02.11-.05.23-.07.34l2.17,1.73,1.86-2.34ZM256.07,143.29l-2.3-1.83-1.86,2.34,2.3,1.83,1.86-2.34ZM251.85,148.6l-2.3-1.83-1.86,2.34,2.3,1.83,1.86-2.34ZM249.74,151.25l-2.3-1.83-1.86,2.34,2.3,1.83,1.86-2.34ZM250.75,160.71l-2.3-1.83-1.86,2.34,2.3,1.83,1.86-2.34ZM223.92,178.35l-2.3-1.83-1.86,2.34,2.3,1.83,1.86-2.34ZM253.96,145.95l-2.3-1.83-1.86,2.34,2.3,1.83,1.86-2.34ZM240.8,157.13l-2.3-1.83-1.86,2.34,2.3,1.83,1.86-2.34ZM238.69,159.78l-2.3-1.83-1.86,2.34,2.3,1.83,1.86-2.34ZM236.58,162.44l-2.3-1.83-1.86,2.34,2.3,1.83,1.86-2.34ZM247.13,149.17l-2.3-1.83-1.86,2.34,2.3,1.83,1.86-2.34ZM245.02,151.83l-2.3-1.83-1.86,2.34,2.3,1.83,1.86-2.34ZM242.91,154.48l-2.3-1.83-1.86,2.34,2.3,1.83,1.86-2.34ZM228.14,173.05l-2.3-1.83-1.86,2.34,2.3,1.83,1.86-2.34ZM226.03,175.7l-2.3-1.83-1.86,2.34,2.3,1.83,1.86-2.34ZM234.47,165.09l-2.3-1.83-1.86,2.34,2.3,1.83,1.86-2.34ZM230.25,170.39l-2.3-1.83-1.86,2.34,2.3,1.83,1.86-2.34ZM232.36,167.74l-2.3-1.83-1.86,2.34,2.3,1.83,1.86-2.34ZM267.5,177.85l2.3,1.83,1.86-2.34-2.3-1.83-1.86,2.34ZM239.06,202.87l2.3,1.83,1.86-2.34-2.3-1.83-1.86,2.34ZM277.54,159.86l2.3,1.83,1.86-2.34-2.3-1.83-1.86,2.34ZM234.85,208.18l2.3,1.83,1.86-2.34-2.3-1.83-1.86,2.34ZM228.88,215.68c.91.47,1.83.88,2.78,1.23l5.24-6.59-2.3-1.83-5.72,7.19ZM279.65,157.21l2.3,1.83,3.59-4.51c-.52-.89-1.08-1.75-1.69-2.59l-4.19,5.27ZM236.95,205.52l2.3,1.83,1.86-2.34-2.3-1.83-1.86,2.34ZM254.34,189.04l2.3,1.83,1.86-2.34-2.3-1.83-1.86,2.34ZM249.61,189.61l2.3,1.83,1.86-2.34-2.3-1.83-1.86,2.34ZM241.17,200.22l2.3,1.83,1.86-2.34-2.3-1.83-1.86,2.34ZM245.39,194.91l2.3,1.83,1.86-2.34-2.3-1.83-1.86,2.34ZM243.28,197.57l2.3,1.83,1.86-2.34-2.3-1.83-1.86,2.34ZM271.21,167.82l2.3,1.83,1.86-2.34-2.3-1.83-1.86,2.34ZM262.77,178.43l2.3,1.83,1.86-2.34-2.3-1.83-1.86,2.34ZM264.88,175.77l2.3,1.83,1.86-2.34-2.3-1.83-1.86,2.34ZM260.66,181.08l2.3,1.83,1.86-2.34-2.3-1.83-1.86,2.34ZM256.45,186.38l2.3,1.83,1.86-2.34-2.3-1.83-1.86,2.34ZM258.55,183.73l2.3,1.83,1.86-2.34-2.3-1.83-1.86,2.34ZM273.32,165.16l2.3,1.83,1.86-2.34-2.3-1.83-1.86,2.34ZM251.72,186.96l2.3,1.83,1.86-2.34-2.3-1.83-1.86,2.34ZM266.99,173.12l2.3,1.83,1.86-2.34-2.3-1.83-1.86,2.34ZM275.43,162.51l2.3,1.83,1.86-2.34-2.3-1.83-1.86,2.34ZM269.1,170.47l2.3,1.83,1.86-2.34-2.3-1.83-1.86,2.34ZM247.5,192.26l2.3,1.83,1.86-2.34-2.3-1.83-1.86,2.34ZM236.45,200.79l2.3,1.83,1.86-2.34-2.3-1.83-1.86,2.34ZM238.56,198.14l2.3,1.83,1.86-2.34-2.3-1.83-1.86,2.34ZM234.34,203.45l2.3,1.83,1.86-2.34-2.3-1.83-1.86,2.34ZM232.23,206.1l2.3,1.83,1.86-2.34-2.3-1.83-1.86,2.34ZM225.99,213.95c.83.57,1.67,1.08,2.53,1.54l5.76-7.25-2.3-1.83-5.99,7.54ZM277.04,155.13l2.3,1.83,4.27-5.37c-.59-.8-1.23-1.57-1.91-2.32l-4.66,5.86ZM248.64,163.37l-2.3-1.83-1.86,2.34,2.3,1.83,1.86-2.34ZM253.83,184.3l2.3,1.83,1.86-2.34-2.3-1.83-1.86,2.34ZM240.67,195.49l2.3,1.83,1.86-2.34-2.3-1.83-1.86,2.34ZM242.78,192.84l2.3,1.83,1.86-2.34-2.3-1.83-1.86,2.34ZM244.89,190.18l2.3,1.83,1.86-2.34-2.3-1.83-1.86,2.34ZM247,187.53l2.3,1.83,1.86-2.34-2.3-1.83-1.86,2.34ZM262.27,173.7l2.3,1.83,1.86-2.34-2.3-1.83-1.86,2.34ZM274.93,157.78l2.3,1.83,1.86-2.34-2.3-1.83-1.86,2.34ZM260.16,176.35l2.3,1.83,1.86-2.34-2.3-1.83-1.86,2.34ZM258.05,179l2.3,1.83,1.86-2.34-2.3-1.83-1.86,2.34ZM255.94,181.65l2.3,1.83,1.86-2.34-2.3-1.83-1.86,2.34ZM264.38,171.04l2.3,1.83,1.86-2.34-2.3-1.83-1.86,2.34ZM272.82,160.43l2.3,1.83,1.86-2.34-2.3-1.83-1.86,2.34ZM270.71,163.09l2.3,1.83,1.86-2.34-2.3-1.83-1.86,2.34ZM268.6,165.74l2.3,1.83,1.86-2.34-2.3-1.83-1.86,2.34ZM266.49,168.39l2.3,1.83,1.86-2.34-2.3-1.83-1.86,2.34ZM240.2,173.98l-2.3-1.83-1.86,2.34,2.3,1.83,1.86-2.34ZM235.59,217.97c1.13.2,2.28.34,3.45.38l3.08-3.88-2.3-1.83-4.23,5.32ZM225.43,192.54l-2.3-1.83-1.86,2.34,2.3,1.83,1.86-2.34ZM221.21,197.85l-2.3-1.83-3.08,3.88c.31,1.13.7,2.22,1.15,3.27l4.23-5.32ZM223.32,195.2l-2.3-1.83-1.86,2.34,2.3,1.83,1.86-2.34ZM240.07,212.33l2.3,1.83,1.86-2.34-2.3-1.83-1.86,2.34ZM214.65,206.1c-.34-.66-.63-1.34-.9-2.02-1.33,7.76-4.01,19.26-9.2,30.61h0s-1.67,3.95-1.02,4.48c.66.52,4.13-2,4.13-2h0c9.89-7.61,20.49-12.81,27.75-15.85-.72-.11-1.45-.25-2.17-.43-.14-.04-.29-.07-.43-.11-.99-.26-1.98-.61-2.96-.99-.13-.05-.26-.1-.39-.16-.92-.38-1.83-.8-2.73-1.29-.12-.07-.24-.13-.36-.2-.84-.47-1.66-1.01-2.49-1.59-.11-.08-.22-.16-.33-.24-.4-.29-.79-.56-1.19-.87s-.74-.64-1.11-.96c-.1-.09-.21-.17-.31-.26-.75-.67-1.46-1.36-2.11-2.06-.09-.1-.18-.2-.27-.3-.68-.77-1.3-1.56-1.87-2.37-.08-.11-.16-.23-.24-.35-.6-.87-1.15-1.75-1.63-2.66-.07-.13-.14-.26-.2-.39ZM252.73,196.42l2.3,1.83,1.86-2.34-2.3-1.83-1.86,2.34ZM242.18,209.68l2.3,1.83,1.86-2.34-2.3-1.83-1.86,2.34ZM248.51,201.72l2.3,1.83,1.86-2.34-2.3-1.83-1.86,2.34ZM244.29,207.03l2.3,1.83,1.86-2.34-2.3-1.83-1.86,2.34ZM246.4,204.38l2.3,1.83,1.86-2.34-2.3-1.83-1.86,2.34ZM250.62,199.07l2.3,1.83,1.86-2.34-2.3-1.83-1.86,2.34ZM242.31,171.32l-2.3-1.83-1.86,2.34,2.3,1.83,1.86-2.34ZM252.23,191.69l2.3,1.83,1.86-2.34-2.3-1.83-1.86,2.34ZM246.53,166.02l-2.3-1.83-1.86,2.34,2.3,1.83,1.86-2.34ZM238.09,176.63l-2.3-1.83-1.86,2.34,2.3,1.83,1.86-2.34ZM244.42,168.67l-2.3-1.83-1.86,2.34,2.3,1.83,1.86-2.34ZM229.65,187.24l-2.3-1.83-1.86,2.34,2.3,1.83,1.86-2.34ZM231.76,184.59l-2.3-1.83-1.86,2.34,2.3,1.83,1.86-2.34ZM235.98,179.28l-2.3-1.83-1.86,2.34,2.3,1.83,1.86-2.34ZM227.54,189.89l-2.3-1.83-1.86,2.34,2.3,1.83,1.86-2.34ZM233.87,181.93l-2.3-1.83-1.86,2.34,2.3,1.83,1.86-2.34ZM273.83,169.89l2.3,1.83,1.86-2.34-2.3-1.83-1.86,2.34ZM232.06,217.04c1.01.35,2.03.64,3.08.85l4.37-5.5-2.3-1.83-5.15,6.47ZM239.57,207.6l2.3,1.83,1.86-2.34-2.3-1.83-1.86,2.34ZM237.46,210.26l2.3,1.83,1.86-2.34-2.3-1.83-1.86,2.34ZM282.26,159.29l2.3,1.83,2.63-3.31c-.43-.99-.92-1.95-1.45-2.9l-3.48,4.38ZM278.04,164.59l2.3,1.83,1.86-2.34-2.3-1.83-1.86,2.34ZM280.15,161.94l2.3,1.83,1.86-2.34-2.3-1.83-1.86,2.34ZM245.9,199.65l2.3,1.83,1.86-2.34-2.3-1.83-1.86,2.34ZM248.01,196.99l2.3,1.83,1.86-2.34-2.3-1.83-1.86,2.34ZM254.84,193.77l2.3,1.83,1.86-2.34-2.3-1.83-1.86,2.34ZM241.68,204.95l2.3,1.83,1.86-2.34-2.3-1.83-1.86,2.34ZM243.79,202.3l2.3,1.83,1.86-2.34-2.3-1.83-1.86,2.34ZM269.61,175.2l2.3,1.83,1.86-2.34-2.3-1.83-1.86,2.34ZM263.28,183.16l2.3,1.83,1.86-2.34-2.3-1.83-1.86,2.34ZM261.17,185.81l2.3,1.83,1.86-2.34-2.3-1.83-1.86,2.34ZM259.06,188.46l2.3,1.83,1.86-2.34-2.3-1.83-1.86,2.34ZM256.95,191.11l2.3,1.83,1.86-2.34-2.3-1.83-1.86,2.34ZM275.94,167.24l2.3,1.83,1.86-2.34-2.3-1.83-1.86,2.34ZM265.39,180.5l2.3,1.83,1.86-2.34-2.3-1.83-1.86,2.34ZM271.72,172.55l2.3,1.83,1.86-2.34-2.3-1.83-1.86,2.34ZM250.12,194.34l2.3,1.83,1.86-2.34-2.3-1.83-1.86,2.34ZM229.86,148.43c.09-.1.17-.21.26-.31.67-.76,1.36-1.48,2.07-2.17.1-.09.19-.19.29-.28.74-.7,1.5-1.37,2.28-2,.11-.09.21-.17.32-.26.82-.65,1.65-1.25,2.51-1.82.12-.08.24-.16.35-.23.9-.58,1.82-1.12,2.76-1.62.13-.07.26-.14.39-.2,1-.51,2.01-.98,3.04-1.4.14-.06.28-.12.43-.17,1.11-.43,2.23-.81,3.37-1.14.16-.05.32-.09.48-.13,1.25-.34,2.51-.6,3.78-.81.18-.03.36-.06.54-.08.28-.04.57-.08.85-.12.19-.02.37-.04.56-.06,1.3-.14,2.61-.21,3.91-.2.17,0,.34,0,.52,0,1.19.02,2.38.1,3.56.24.15.02.31.04.46.06,1.1.14,2.2.34,3.29.58.14.03.29.07.43.1,1.03.25,2.05.54,3.05.88.13.05.27.09.4.14.96.34,1.91.72,2.84,1.14.13.06.25.12.37.18.9.42,1.79.88,2.65,1.38.12.07.23.14.35.21.84.5,1.67,1.03,2.48,1.6.11.08.21.16.32.24.39.29.79.58,1.17.88s.76.62,1.13.94c.1.09.21.17.31.26.74.66,1.44,1.35,2.12,2.05.09.1.19.19.28.29.69.73,1.33,1.5,1.94,2.28.09.11.17.22.26.33.62.82,1.21,1.65,1.75,2.51.08.12.15.24.23.36.56.9,1.07,1.83,1.54,2.78.07.13.13.26.2.4.49,1,.92,2.03,1.31,3.07.05.15.11.29.17.44.4,1.12.75,2.26,1.03,3.42.04.17.07.34.11.5.3,1.27.52,2.56.68,3.86.02.19.05.37.07.56.03.29.05.57.08.86.02.18.03.36.04.55.09,1.29.11,2.58.07,3.87,0,.16-.02.33-.02.49-.06,1.18-.18,2.36-.35,3.54-.02.15-.05.3-.07.45-.18,1.1-.4,2.19-.68,3.28-.04.14-.07.28-.11.42-.27,1.03-.59,2.05-.96,3.05-.05.13-.1.26-.15.4-.36.96-.76,1.92-1.21,2.86-.06.12-.12.25-.18.37-.44.9-.92,1.8-1.44,2.68-.07.12-.14.23-.21.35-.51.85-1.06,1.69-1.65,2.51-.08.11-.16.21-.24.32-.28.39-.57.77-.87,1.15s-.65.8-.98,1.2c-.09.1-.17.21-.25.31-.62.74-1.28,1.5-1.96,2.26-.09.1-.18.2-.27.3-.66.73-1.33,1.46-2.04,2.19-.09.1-.19.19-.28.29-.69.71-1.4,1.42-2.13,2.12-.1.09-.19.19-.29.28-.72.69-1.45,1.38-2.21,2.06-.1.09-.2.18-.31.27-.75.67-1.52,1.33-2.3,1.99-.11.09-.21.18-.31.26-.78.65-1.58,1.29-2.39,1.92-.11.08-.22.17-.33.25-.82.62-1.66,1.23-2.5,1.83-.11.08-.23.16-.34.24-.86.6-1.73,1.18-2.61,1.74-.12.08-.24.15-.36.23-.91.57-1.83,1.11-2.75,1.63-.13.07-.25.14-.38.21-.96.53-1.92,1.04-2.9,1.51-.14.07-.27.12-.41.19-1.03.49-2.06.93-3.11,1.35-.14.06-.29.12-.43.17-.69.27-1.39.51-2.09.74-.23.08-.46.16-.7.23-.19.06-.39.11-.58.17-.16.05-.32.09-.47.14-1.2.34-2.41.63-3.61.85-.2.04-.39.06-.59.1-.07.01-.15.02-.22.03-2.62.85-23.86,8.08-40.25,22.63l-.06-.05s0,0,0,0l-1.11-.88-1.5-1.19-.82-.65-1.76-1.4-.85-.67s0,0,0,0l-.06-.05c10.49-19.25,12.75-41.57,12.99-44.31,0-.07-.02-.15-.02-.22-.01-.2-.03-.4-.04-.6-.06-1.23-.05-2.47.01-3.71,0-.16.02-.33.03-.49.01-.2.02-.4.03-.6.02-.24.04-.49.07-.73.07-.73.15-1.47.26-2.2.02-.15.05-.3.07-.46.17-1.11.37-2.22.61-3.33.03-.15.06-.29.09-.44.24-1.06.52-2.11.82-3.16.04-.14.08-.28.12-.42.3-1.02.62-2.04.97-3.05.05-.13.09-.27.14-.4.35-.99.72-1.96,1.11-2.93.05-.13.1-.26.16-.39.39-.96.79-1.91,1.22-2.85.06-.13.11-.25.17-.38.43-.93.87-1.85,1.33-2.76.06-.12.12-.24.19-.37.46-.91.93-1.81,1.42-2.69.06-.12.13-.24.19-.36.49-.89,1-1.76,1.51-2.62.07-.12.14-.23.21-.35.52-.87,1.05-1.72,1.59-2.55.07-.11.14-.23.22-.34.56-.85,1.12-1.68,1.68-2.48.08-.11.15-.22.23-.33.59-.83,1.17-1.65,1.76-2.42.08-.11.16-.21.25-.32.32-.42.64-.83.95-1.22.3-.38.61-.74.92-1.1Z"/>
      </g>
      <g>
        <path class="st2" d="M198.08,149.22c-4.27-1.21-10.72-3.03-13.37-15.4-.02-.08-.03-.17-.05-.25-.21,1.03-.33,2.11-.33,3.2,0,8.66,7.02,15.67,15.67,15.67.77,0,1.52-.06,2.26-.16-.01-.17-.04-.33-.08-.49-.36-1.45-1.66-1.88-4.11-2.57Z"/>
        <path class="st2" d="M208.57,127.22c.98,2.2,1.19,5.02,1.39,7.74.34,4.49.69,7.24,2.75,7.66.29.06,1.01-.04,2.36-1.54.39-1.37.6-2.81.6-4.3,0-7.62-5.44-13.97-12.65-15.38,3.06,1.76,4.94,4.46,5.54,5.82Z"/>
        <path class="st2" d="M212.4,144.19c-3.41-.68-3.73-4.96-4.04-9.11-.19-2.59-.39-5.26-1.26-7.21-.8-1.8-4.13-6.26-9.79-6.54-4.91.85-9.03,3.98-11.24,8.26-.14,1.26-.08,2.59.2,3.89,2.45,11.43,8.11,13.02,12.24,14.19,2.38.67,4.63,1.31,5.23,3.73.05.19.08.38.1.57,4.38-1.1,8.02-4.05,10.06-7.96-.52.21-1.02.27-1.5.17Z"/>
      </g>
    </g>
    <g>
      <path class="st1" d="M138.44,250.99c-.68,1.74-1.86,2.45-4.06,2.45h-1.94c-.56,0-.86-.28-.86-.81v-5.67h1.79c2.46,0,3.06.46,3.35,1.36l.03.1h.54v-3.54h-.54l-.03.1c-.29.9-.89,1.36-3.35,1.36h-1.79v-5.48h2.21c2.33,0,3.47.64,4.21,2.38l.05.11.51-.11-.24-2.99h-9.99v.53l.1.03c.55.17.7.63.7,2.04v8.6c0,1.4-.16,1.86-.7,2.04l-.1.03v.53h10.52l.15-3.09-.52-.08-.04.11Z"/>
      <path class="st1" d="M147.83,245.93l-.28-.11c-1.57-.59-3.34-1.27-3.34-2.8,0-1.36,1.1-2.28,2.74-2.28,1.96,0,3.59,1.11,4.37,2.97l.06.13.46-.16-.08-2.61v-.09s-.09-.04-.09-.04c-1.13-.54-2.49-.82-3.94-.82-3.3,0-5.35,1.54-5.35,4.02,0,2.3,1.77,3,3.81,3.82l.35.13c1.54.58,3.88,1.47,3.88,3.16,0,1.57-1.31,2.28-2.54,2.28-2.37,0-4.26-1.38-5.2-3.8l-.04-.11-.51.08.09,3.1.06.04c1.19.85,3.19,1.4,5.08,1.4,2.47,0,5.02-1.59,5.02-4.26,0-2.39-2.52-3.31-4.54-4.05Z"/>
      <path class="st1" d="M155.02,240.25l-.13,2.61.48.08.05-.1c.7-1.45,1.54-1.94,3.32-1.94h.48v10.55c0,1.4-.16,1.86-.7,2.04l-.1.03v.53h4.08v-.53l-.1-.03c-.55-.17-.7-.63-.7-2.04v-10.55h.44c1.78,0,2.62.49,3.32,1.94l.05.1.48-.08-.14-2.61h-10.81Z"/>
      <path class="st1" d="M170.4,251.55c-.74,0-1.34.59-1.34,1.31s.61,1.33,1.34,1.33,1.32-.59,1.32-1.33-.59-1.31-1.32-1.31Z"/>
      <path class="st1" d="M235.75,251.44v-11.29h-.36l-3.84,2.55-.09.06.12.4,1.72-.69v8.97c0,1.42-.18,1.86-.86,2.03l-.11.03v.54h4.38v-.54l-.11-.03c-.67-.18-.86-.61-.86-2.03Z"/>
      <path class="st1" d="M245.08,240.12c-1.14,0-2.35.44-3.23,1.17-.77.64-1.69,1.82-1.69,3.82,0,2.63,1.61,4.33,4.09,4.33.97,0,1.98-.29,2.87-.83-.47,2.08-1.71,4.83-4.89,6.78l-.14.08.36.49.12-.07c5.14-3.06,7.45-7.43,7.45-10.4,0-3.21-1.99-5.37-4.94-5.37ZM242.5,243.89c0-1.42.36-3.11,2.09-3.11,2.08,0,2.82,2.83,2.82,5.25,0,.41-.01,1.04-.13,1.78-.76.43-1.48.52-1.94.52-2.35,0-2.84-2.41-2.84-4.44Z"/>
      <path class="st1" d="M257.89,245.73c-.07,0-.14,0-.21,0,1.62-.83,2.59-1.74,2.59-3.25,0-1.15-.99-2.37-2.84-2.37-1.66,0-2.99.71-4.46,2.38l-.09.11.39.38.1-.11c.78-.82,1.75-1.26,2.74-1.26,1.19,0,1.89.58,1.89,1.55,0,1.25-.87,2.25-2.72,3.12l-.13.06.23.49.14-.07c.47-.24.93-.33,1.2-.33,1.43,0,2.15.87,2.15,2.59,0,2.15-2.05,5.34-5.96,7.25l-.14.07.28.54.13-.07c4.09-2.08,8.27-4.66,8.27-8.11,0-2.34-2.24-2.96-3.57-2.96Z"/>
      <path class="st1" d="M264.32,240.25l-.43,2.7.51.04.04-.09c.4-.88.57-.88,1.78-.85.16,0,.34,0,.54.01l4.23.05c-.4.68-.82,1.37-1.24,2.06-1.07,1.76-2.17,3.58-2.9,5.11-.91,1.9-1.35,3.41-1.35,4.61v.15h2.84l-.03-.18c-.2-1.07-.03-2.78.42-4.34.52-1.76,1.91-5.61,3.87-8.89l.02-.04v-.35h-8.3Z"/>
    </g>
  </g>
</svg>