<?xml version="1.0" encoding="UTF-8"?>
<svg id="Layer_1" xmlns="http://www.w3.org/2000/svg" version="1.1" viewBox="0 0 200 200">
  <!-- Generator: Adobe Illustrator 30.4.0, SVG Export Plug-In . SVG Version: 2.1.4 Build 226)  -->
  <defs>
    <style>
      .st0 {
        fill: #00095b;
      }
    </style>
  </defs>
  <g>
    <path class="st0" d="M126.4,136.54c-5.41,1.06-10.71,1.73-16.17,2.09-9.09.59-18.18.46-27.24-.52-7.01-.76-13.89-2.09-20.63-4.1s-16.66-6.04-20.64-12.15c-2.7-4.14-1.88-8.68,1.38-12.26,1.99-2.18,4.31-3.87,6.9-5.31,4.28-2.38,8.82-4.15,13.56-5.49,5.27-1.49,10.55-2.56,15.99-3.28,13.69-1.82,28.49-1.78,42.14.29,10.28,1.56,25.44,5.4,32.98,12.65,2.9,2.79,4.91,6.54,3.69,10.54-.38,1.27-.93,2.45-1.72,3.5-.86,1.15-1.78,2.19-2.9,3.1-2.1,1.72-4.3,3.15-6.75,4.36-3.32,1.63-6.71,2.93-10.27,3.99l-10.33,2.58ZM114.88,136.25l11.6-1.75c4.88-.94,9.58-2.23,14.22-3.96,5.67-2.11,13.28-5.82,15.17-11.84,1.61-5.14-3.23-9.77-7.42-12.3-2.58-1.56-5.21-2.78-8.04-3.83-9.3-3.45-20.35-5.37-30.26-6.02-8.62-.57-17.22-.46-25.82.4-11.37,1.13-29.02,4.51-37.61,12.13-1.04.92-1.87,1.89-2.64,3.03-1.63,2.42-1.86,5.44-.54,8.07,1.48,2.94,4.29,5.15,7.11,6.83,6.21,3.7,14.42,6.04,21.54,7.44s14.39,2.24,21.72,2.45,13.94.08,20.98-.64Z"/>
    <path class="st0" d="M129.07,132.29c-10.88,2.48-22.58,3.2-33.75,2.94s-21.67-1.55-32.27-4.72c-2.51-.75-4.82-1.66-7.21-2.71-3.58-1.58-7.35-3.73-9.67-6.88-1.85-2.51-1.9-5.79-.09-8.35,2.11-2.99,5.54-5.15,8.86-6.71,7.71-3.62,17.49-5.78,25.98-6.82,12.42-1.53,25-1.52,37.42,0,4.31.53,8.47,1.34,12.64,2.4,3.16.8,6.18,1.62,9.21,2.78l5.26,2.37c3.05,1.56,6.97,4.48,8.24,7.64.76,1.91.54,3.95-.44,5.77-1.59,2.97-5.48,5.51-8.55,7.02-2.67,1.31-5.32,2.46-8.19,3.24l-7.43,2.03ZM64.91,124c.28,1.56,1.04,2.88,2.32,3.73,1.7,1.12,3.73,1.43,5.75,1.08s3.86-1.35,5.38-2.78c1.72-1.61,3.2-3.34,4.46-5.34l3.62-5.73c.35-.55.79-.83,1.44-.89l4.49-.4c.77.83,1.9,1.75,2.44,1.14.13-.14.25-.52.21-.68l-1.09-.71c1.35-.47,2.19-1.37,2.32-2.7.06-.61-.15-1.2-.6-1.62-.84-.47-1.86-.37-2.55.31-.92.75-1.25,1.9-1.04,3.06l-4.2.33c.7-1.11,1.42-2.12,2.3-3.07,1.13-1.25,2.32-2.33,3.74-3.22.42-.29.64-.59.77-1.19l3.15.86,7.18,1.74c1.91.33,3.75.42,5.66.21s3.53-.86,5-1.97c1.01-.76,1.52-1.9.85-2.51-.18-.16-.61-.24-.91-.17-3.16.67-6.26.96-9.51.86-2.88-.09-5.62-.5-8.46-.92l-7.65-1.14c-2.33-.35-4.6-.38-6.94-.2-3.32.25-6.88,1.22-9.18,3.66-1.11,1.17-1.87,2.63-1.97,4.23-.13,2.21,1.33,4.02,3.51,4.26,1.81.2,3.55-.39,4.88-1.64s2.31-2.74,2.94-4.47c.11-.3-.18-.64-.42-.7s-.61.03-.78.28c-1.18,1.69-2.78,3.12-4.88,3.05-1.03-.03-1.63-.85-1.53-1.86.26-2.88,3.51-4.34,6.23-4.86,3.68-.6,7.44.09,11.14.96-2.35,1.34-4.41,2.92-6.02,5.04l-2.32,3.04c-2.01.26-4.91.67-6.1,2.18-.16.2.07.67.27.75s.57.09.79-.03c1.13-.64,2.27-1.2,3.62-1.12l-3.89,5.08c-1.88,2.19-4.74,4.75-7.64,4.82-1.03.03-2.05-.28-2.69-1.06-1.09-1.31-.9-3.1.1-4.4.66-.85,1.34-1.5,2.38-1.88.28-.1.5-.55.46-.82-.11-.73-1.21-.93-2.14-.64-3.45,1.06-5.56,4.44-4.91,8.06ZM82.95,126.58l.82,1.21c.39.57,1.7-1.34,2.77-1.98.27,1.36,1.08,2.38,2.35,2.94,1.63.72,3.6.56,5.16-.33,1.26-.72,2.18-1.71,3.05-2.84l4.04-5.21c.88-1.14,3.11-2.67,3.47-1.81.21.53-.05,1.17-.34,1.67l-5.2,8.7,3.5.06,4.28-6.94.27.86c.48,1.55,1.93,2.39,3.52,2.02.96-.22,1.8-.73,2.68-1.28-.38,2.23.07,4.53,2.14,5.3s4.12-.52,5.87-1.99c.01,1.38,1.13,2.46,2.55,2.5,3.08.1,6.63-3.93,8.54-6.4l-1.16-1.11-3.04,3.15c-.87.9-2.78,2.25-3.48,1.61-.15-.14-.29-.59-.19-.79l.84-1.71,8.93-14.18-3.66-.03-5.48,8.35c-.9-2.58-3.7-2.78-6.04-1.68-1.08.51-2,1.21-2.9,2.01l-3.21,2.88c-.66.59-1.46,1.03-2.32,1.16s-1.66-.34-1.9-1.17c-.34-1.2.17-2.6,1.29-3.14-.05.69.01,1.28.37,1.66.38.4.95.62,1.54.49,1.1-.25,1.96-1.28,2-2.39.05-1.39-1.01-2.4-2.36-2.38-1.91.03-3.16,1.16-4.31,2.59l-.05-1.4c-.03-.84-.8-1.4-1.61-1.46-2-.16-3.62,1.07-4.93,2.5l-1.47,1.61-.32-1.74c-.1-.55-.49-1.31-.95-1.6-.77-.09-1.49.42-1.9,1.02.81,2.68.21,5.53-1.71,7.53-.62.64-1.29,1.13-2.16,1.33-1.26.28-2.39-.55-2.48-1.9-.16-2.14.97-4.11,2.74-5.36l2.74-1.4c.11-.49-.25-1.43-.82-1.44-1.95-.06-3.76.81-5.22,2.04-1.02.86-1.89,1.8-2.44,3.01l-1.19,2.63c-.66,1.11-1.62,1.9-2.59,2.85Z"/>
    <path class="st0" d="M123.12,121.54c-1.16,1.91-2.53,4.16-4.68,4.81-.37.11-.85.04-1.15-.15-1.8-1.11,1.16-7.65,4.6-7.92.6-.05,1.06.3,1.19.88.16.71-.05,1.4-.42,2.02l.46.37Z"/>
    <path class="st0" d="M94.8,109.98c.44.15.26,1.68-1.3,2.1-.35-.69.04-1.71.74-2.07.12-.06.45-.07.56-.03Z"/>
  </g>
  <g>
    <path class="st0" d="M61.69,86.13l-4.47.74-.97,6.23-3.5.78-11.45,2.83c.69-1.56,1.25-3.05,1.68-4.67l2.6-9.81.99-3.48,1.47-5.37,1.73-6.4,13.96-2.85,4.89-.8,3.28,10.17,3.2,9.98,1.27,3.85,1.06,2.43c.64-1.24,1.12-2.47,1.13-3.87l.15-17.28-.14-3.51c-.04-1.05-.5-1.96-1.13-2.89l11.23-.87,8.39-.31c2.1-.08,4.09.13,6.13.56,2.52.52,5,1.89,5.91,4.33,1.13,3.03.6,7.24-2.85,8.17l-2.88.43c3.25.43,5.92,1.71,6.14,5.29v5.66c-.01,1.33.29,2.54.99,3.72l-14.26-.24-.02-10.64c0-1.06-.63-1.77-1.63-1.81l-2.25-.06-.04,9.04c0,1.26.41,2.4,1.04,3.51l-14.01.84c-5.65.53-11.14,1.28-16.83,2.2l-.79-5.89ZM96.14,70.96l.09-2.04c-.1-.73-.57-1.39-1.36-1.42l-2.54-.11v5s2.54-.19,2.54-.19c.68-.05,1.08-.58,1.27-1.24ZM61.38,81.62l-1.37-6.38-.46-2.36-1.7,6.9-.6,2.47,4.13-.65Z"/>
    <path class="st0" d="M145.64,93.92l-4.66-.97-9.65-1.73-.14-11.06c-.01-.85-.58-1.55-1.32-1.67l-2.55-.41.03,8.7c0,1.49.41,2.85,1.13,4.14l-11.26-1.29-4.62-.37c.68-1.06,1.14-2.16,1.14-3.48l.04-19.57c0-1.71-.39-3.25-1.26-4.73,5.19.25,10.25.64,15.36,1.42l6.25.95c3.47.53,7.49,1.84,9.4,4.88,1.25,1.99,1.48,4.49.79,6.71-.45,1.42-1.64,2.33-3.1,2.46l-2.88-.03c2.99.8,6.12,2.62,6.19,6.19l.13,5.98c.03,1.34.35,2.51.96,3.88ZM131.1,73.16l.1-1.97c-.14-.89-.65-1.7-1.57-1.85l-2.29-.36v5.09c1.61.1,3.27.48,3.76-.9Z"/>
    <path class="st0" d="M37.92,96.2c-1.77,1.45-3.67,2.44-5.77,3.22l-5.89,2.16-9.29,3.45-7.39,3.03c.68-1.67.93-3.22,1.12-4.96l.37-19.13c-.07-1.35-.3-2.51-1.08-3.62l5.56-2.34c4.93-2.07,9.86-3.91,14.97-5.47,1.97-.6,3.89-.89,5.91-.86,2.89.04,4.58,1.96,4.64,4.85.04,2.33-1.01,4.38-2.95,5.67l-3.28,1.62c1.42-.28,2.75-.52,4.13-.19s2.3,1.28,2.5,2.63c.59,3.9-.43,7.38-3.56,9.93ZM26.52,84.71c.51-.36.92-.67,1.25-1.14.24-.99.29-1.92.17-2.93-.09-.52-.58-.94-1.14-.76l-2.64.86-.08,4.89,2.44-.94ZM27.79,93.3c.2-1.4.35-4.09-.39-4.45-.15-.07-.53-.1-.69-.05l-2.67.8-.14,6.63c1.61-.61,3.64-1.17,3.9-2.93Z"/>
    <path class="st0" d="M188.82,95.91l-8.55-3.48.09,4.85,5.38,2.12,4.67,1.89.02,7.32c-8.12-3.53-16.21-6.59-24.59-9.38.7-1.01,1.2-2.08,1.18-3.33l-.24-19.46c-.02-1.88-.38-3.53-1.14-5.27l11.58,3.96,12.33,4.94-.05,7.06-1.64-.76-7.83-3.15.03,4.32,8.69,3.49.06,4.89Z"/>
    <path class="st0" d="M163.55,98.62l-6.01-1.75-9.88-2.5c.82-1.23,1.35-2.52,1.32-4.01l-.35-19.19c-.03-1.72-.41-3.24-1.22-4.81l11.04,2.67,4.92,1.47c-.89,1.26-1.26,2.56-1.24,4.09l.31,20.04c.11,1.41.34,2.55,1.1,3.98Z"/>
  </g>
</svg>