<?xml version="1.0" encoding="UTF-8"?>
<svg id="Layer_1" xmlns="http://www.w3.org/2000/svg" version="1.1" viewBox="0 0 200 200">
  <!-- Generator: Adobe Illustrator 30.4.0, SVG Export Plug-In . SVG Version: 2.1.4 Build 226)  -->
  <defs>
    <style>
      .st0 {
        fill: #ff0606;
      }
    </style>
  </defs>
  <g id="SK0QV5">
    <g>
      <g>
        <g>
          <polygon points="192.21 81.12 192.21 81.8 191.18 84.69 188.87 91.48 186.68 97.94 184.38 104.74 182.07 111.54 179.77 118.34 178.59 121.8 168.1 121.8 169.16 118.68 171.24 112.58 173.43 106.12 175.53 99.93 178.15 92.06 160.48 121.8 150.94 121.8 153.49 92.09 152.79 93.9 150.72 100.01 148.64 106.12 146.45 112.58 144.38 118.68 143.31 121.8 132.83 121.8 143.35 90.92 146.74 81.11 163.41 81.11 161.53 103.34 161.47 105.21 169.89 90.95 175.83 81.11 192.21 81.12"/>
          <path d="M142.66,81.11c.1.06.24.14.22.17l-.11.2-22.62,40.31h-12.41s.07-1.38.07-1.38l.12-2.18.11-1.96.11-1.96.12-2.07.11-1.96.11-1.96.12-2.08.12-1.96.1-1.5.12-2.07.12-1.96.09-2.02-15.43,25.07h-12.54s4.87-40.7,4.87-40.7h12.1s-3.35,22.16-3.35,22.16l13.7-22.16h11.94c.07.56.03,1.01-.03,1.51l-.12,1.95-.11,1.74-.12,1.95-.12,1.96-.11,1.84-.11,1.84-.11,1.84-.12,1.96-.11,1.84-.11,1.84-.12,1.88,1.19-2.3,10.63-19.86h11.68Z"/>
        </g>
        <g>
          <path class="st0" d="M7.79,104.39v-.22s3.03-1.35,3.03-1.35c.45-.2.82-.63.63-1.18l-1.81-5.31-1.1-3.5,8.47,1.77c.68.14,1.05-.77,1.23-1.17l1.4-3.09,1.12,1.21,1.27,1.38,1.27,1.38,1.21,1.33.94,1.01c.4.43.78.94,1.44.78.42-.1.72-.41.63-.89l-3.04-16.06,4.92,2.77c.55.31,1.08.12,1.47-.34l1.63-3.18,1.62-3.11,1.86-3.52,4.7,9.35-1.27,3.71-2.62,7.75-2.54,7.49-2.54,7.49-2.68,7.92-1.29,3.78-7.29,1.21,1.58-4.28c.17-.46.4-1.3-.15-1.74l-14.07-11.42Z"/>
          <path d="M72.95,112.57l-1.88,2.75-1.68,1.7-.75.63-.99.75c-1.85,1.39-3.96,2.2-6.26,2.6l-4.51.58-1.59.15-1.31.07h-21.55s.88-2.7.88-2.7l.74-2.13.76-2.25,1.92-5.8,1.49-4.29.69-1.98.58-1.74,3.94-11.6,1.52-4.47,1.28-3.74h25.21c2.45.3,4.86,1.01,6.37,2.93,1.08,1.37,1.49,3.37,1.22,5.15-.18,1.22-.51,2.46-1.08,3.53s-1.11,2.01-1.84,2.9l-1.56,1.55-1.02.83-.85.53c-1.13.71-2.28,1.2-3.62,1.66,1.18.22,2.17.75,3.16,1.4,1.89,1.25,2.74,3.81,2.36,5.99l-.26,1.49-.5,1.56-.87,1.94ZM65.36,93.22c.43-1.08.38-2.23-.48-3.05-.65-.32-1.4-.6-2.17-.61l-6.55-.03-2.44,7.49,5.64-.02c1.24-.14,2.39-.28,3.52-.77,1.27-.72,1.94-1.7,2.47-3.01ZM61.72,108.87c.11-.25.07-.7.11-.94.19-1.27-.42-2.36-1.69-2.66-.58-.22-1.21-.31-1.86-.31h-7.27s-2.7,7.96-2.7,7.96h6.51s.48-.09.48-.09c2.84-.04,5.33-1.29,6.43-3.96Z"/>
        </g>
      </g>
      <polygon points="176.85 126.88 18.98 126.88 19.82 124.1 177.79 124.11 176.85 126.88"/>
    </g>
  </g>
</svg>