<?xml version="1.0" encoding="UTF-8"?>
<svg id="Layer_1" xmlns="http://www.w3.org/2000/svg" version="1.1" viewBox="0 0 200 200">
  <!-- Generator: Adobe Illustrator 30.4.0, SVG Export Plug-In . SVG Version: 2.1.4 Build 226)  -->
  <defs>
    <style>
      .st0 {
        fill: #eb2c28;
      }

      .st0, .st1 {
        fill-rule: evenodd;
      }

      .st1 {
        fill: #00a455;
      }
    </style>
  </defs>
  <polygon class="st1" points="100 34.44 96.45 41.17 96.07 41.62 95.56 41.88 94.99 41.93 94.43 41.74 90.91 39.64 93.71 52.79 93.65 53.26 93.33 53.56 92.9 53.63 92.49 53.39 87.14 47.16 85.74 49.78 85.43 50.18 85.01 50.45 84.53 50.58 84.02 50.53 79.45 49.36 80.63 53.92 80.28 55.33 77.25 57.04 88.64 66.81 88.94 67.18 89.09 67.61 89.1 68.08 88.94 68.52 87.34 71.41 98.36 69.49 98.36 74.2 101.64 74.2 101.64 69.49 112.66 71.41 111.06 68.52 110.9 68.08 110.91 67.61 111.06 67.18 111.36 66.81 122.75 57.04 120.13 55.65 119.72 55.33 119.45 54.92 119.33 54.43 119.37 53.92 120.55 49.36 115.98 50.53 114.57 50.18 112.86 47.16 107.51 53.39 107.1 53.63 106.67 53.56 106.35 53.26 106.29 52.79 109.09 39.64 105.57 41.74 105.01 41.93 104.44 41.88 103.93 41.62 103.55 41.17 100 34.44"/>
  <polygon class="st0" points="168.87 57.04 126.34 57.04 113.55 68.02 113.52 68.15 116.59 73.67 116.65 73.93 116.57 74.17 116.37 74.33 116.11 74.36 104.11 72.28 103.98 72.39 103.98 76.43 103.87 76.53 96.13 76.53 96.02 76.43 96.02 72.39 95.89 72.28 83.89 74.36 83.63 74.33 83.43 74.17 83.35 73.93 83.41 73.67 86.48 68.15 86.45 68.02 73.66 57.04 31.13 57.04 29.85 57.19 28.71 57.59 27.71 58.22 26.89 59.04 26.25 60 25.82 61.07 25.63 62.21 25.68 63.39 26 64.56 26.62 65.69 95.53 163.26 96.45 164.27 97.54 164.99 98.74 165.42 100 165.56 101.26 165.42 102.46 164.99 103.55 164.27 104.47 163.26 173.38 65.69 174 64.56 174.32 63.39 174.37 62.21 174.18 61.07 173.75 60 173.11 59.04 172.29 58.22 171.29 57.59 170.15 57.19 168.87 57.04"/>
</svg>