<?xml version="1.0" encoding="UTF-8"?>
<svg id="Layer_1" xmlns="http://www.w3.org/2000/svg" xmlns:xlink="http://www.w3.org/1999/xlink" version="1.1" viewBox="0 0 200 200">
  <!-- Generator: Adobe Illustrator 30.4.0, SVG Export Plug-In . SVG Version: 2.1.4 Build 226)  -->
  <defs>
    <style>
      .st0 {
        fill: url(#linear-gradient);
      }

      .st1 {
        fill: #416281;
      }
    </style>
    <linearGradient id="linear-gradient" x1="66.55" y1="78.63" x2="133.19" y2="105.52" gradientUnits="userSpaceOnUse">
      <stop offset="0" stop-color="#2f3136"/>
      <stop offset="1" stop-color="#3e6080"/>
    </linearGradient>
  </defs>
  <path class="st0" d="M87.65,58.5c-2.35.09-4.6.28-6.94.28h-8.54c-1.13,0-3.66,0-3.66,1.6,0,1.03.66,1.03,2.82,1.22,2.44.19,6.38,0,6.38,1.78v44.1c0,5.44-2.16,5.72-4.22,6.1-2.82.47-3.47,1.31-3.47,2.06,0,.94,1.22.94,1.69.94,1.13,0,2.53-.09,4.03-.19,1.5-.09,3.1-.19,4.41-.19h22.14c7.11,0,13.6-2.23,18.63-5.94,0,0,3.64-2.49,4.41-5.66,1.15-4.71-2.08-6.41-2.08-6.41-3.09-2.16-5.87.62-5.87.62-1.85,2.39-1,4.71-1,4.71,0,2.39-1.99,3.82-1.99,3.82-5.55,4.78-12.6,6.61-16.6,6.61-6.1,0-12.01-2.91-12.01-9.48v-40.44c0-1.32.19-3.01,7.88-3.01,11.63,0,28.9,8.54,28.9,27.77,0,0-.07,3.88-1.43,6.2,0,0,6.71-.04,6.54,6.64,0,0,3.2-4.26,3.7-11.07,1.65-22.32-15.95-32.37-35.66-32.37-3,0-5.63.09-8.07.28"/>
  <path d="M6.06,131.88c0-1.83-.04-2.2-.92-2.29l-.36-.04c-.19-.1-.19-.65.04-.67,1.62-.1,3.12-.17,5.16-.17,1.58,0,3.16.15,4.49.64,2.52.91,3.91,3.18,3.91,5.59,0,2.58-1.23,4.66-3.45,5.76-1.31.66-2.89.91-4.87.91-.91,0-1.87-.12-2.56-.12-.92,0-1.91.02-3,.06-.15-.11-.15-.57,0-.67l.6-.09c.87-.14.98-.29.98-2.06v-6.82ZM8.81,137.99c0,1.06.04,1.75.38,2.16.35.39.91.56,1.6.56,3.33,0,4.47-2.97,4.47-5.59,0-3.47-1.83-5.53-5.32-5.53-.52,0-.89.09-1,.25-.11.15-.13.52-.13,1.12v7.03Z"/>
  <path d="M34.83,135.06c0,4.2-2.81,6.72-6.95,6.72-3.87,0-6.68-2.54-6.68-6.57,0-3.81,2.85-6.76,6.88-6.76s6.76,2.7,6.76,6.6M27.92,129.34c-2.37,0-3.64,2.21-3.64,5.43,0,2.35.83,6.12,3.97,6.12,2.52,0,3.51-2.47,3.51-5.59,0-3.29-1.44-5.97-3.83-5.97"/>
  <path d="M50.96,135.06c0,4.2-2.81,6.72-6.95,6.72-3.87,0-6.68-2.54-6.68-6.57,0-3.81,2.85-6.76,6.87-6.76s6.76,2.7,6.76,6.6M44.05,129.34c-2.37,0-3.64,2.21-3.64,5.43,0,2.35.83,6.12,3.97,6.12,2.52,0,3.51-2.47,3.51-5.59,0-3.29-1.44-5.97-3.83-5.97"/>
  <path d="M57.22,138.27c0,.91.08,1.52.33,1.83.25.33.6.48,2,.48,1.75,0,2.29-.06,3.43-2.29.15-.19.6-.12.73.12-.1,1-.56,2.6-.83,3.12-1.02-.04-2.87-.06-4.45-.06h-2.58c-.89,0-1.85.02-3.04.06-.17-.11-.21-.55-.06-.67l.73-.09c.87-.12.98-.27.98-2.06v-7.16c0-1.79-.12-1.97-.98-2.08l-.56-.08c-.19-.11-.19-.56.04-.67,1,.04,1.96.06,2.89.06s1.89-.02,2.85-.06c.15.12.15.56,0,.67l-.5.08c-.87.14-.98.29-.98,2.08v6.74Z"/>
  <path d="M70.25,133.77c0,.54.02.58.54.58h1.33c1,0,1.23-.13,1.42-1.06l.1-.49c.13-.15.62-.15.71.02-.04.62-.06,1.31-.06,2.04s.02,1.42.06,2.04c-.1.18-.58.19-.71.02l-.1-.48c-.19-.92-.42-1.08-1.42-1.08h-1.33c-.52,0-.54.02-.54.6v2.29c0,.89.08,1.5.31,1.83.25.35.62.5,2.02.5,1.68,0,2.33-.06,3.39-2.23.15-.21.64-.13.71.1-.08,1-.54,2.56-.81,3.08-1.02-.03-2.87-.06-4.45-.06h-2.5c-.92,0-1.87.02-3.31.06-.15-.11-.15-.58,0-.67l.9-.14c.87-.13.98-.25.98-2.02v-7.18c0-1.75-.11-1.87-.98-2.04l-.48-.1c-.17-.11-.15-.56.04-.67.9.04,1.85.06,2.77.06h4.08c1.23,0,2.33-.02,2.58-.06.02.31.15,1.7.25,2.98-.08.22-.52.25-.71.08-.21-.67-.48-1.25-.73-1.52-.37-.37-.94-.6-1.89-.6h-1.54c-.64,0-.64.04-.64.75v3.37Z"/>
  <path d="M84.77,138.7c0,1.79.12,1.95.98,2.06l.77.09v.67c-1.25-.04-2.2-.06-3.12-.06s-1.89.02-3.03.06c-.15-.11-.15-.55,0-.67l.66-.09c.87-.14.98-.27.98-2.06v-.96c0-.96-.02-1.27-.52-2.29l-2.29-4.74c-.39-.79-.56-1.1-1.23-1.22l-.65-.11c-.17-.15-.15-.62.08-.67.87.04,1.58.06,2.71.06s2.16-.02,2.81-.06c.17.08.21.52.04.67l-.65.15c-.35.08-.46.15-.46.18,0,.15.1.44.5,1.35l.9,2.06c.29.64.73,1.52.96,2,.56-.94,1.16-2.19,1.66-3.18.69-1.37.92-1.95.92-2.18,0-.11-.31-.23-.77-.3l-.37-.08c-.15-.1-.17-.58.02-.67.77.04,1.46.06,2.16.06.73,0,1.33-.02,1.89-.06.23.08.23.54.08.67l-.5.1c-.35.06-.79.19-1,.46-.29.37-.75,1.06-1.68,2.74l-1.21,2.19c-.5.91-.63,1.39-.63,2.48v1.35Z"/>
  <path class="st1" d="M97.71,131.65c0-2.02-.04-2.33-1.25-2.43l-.48-.04.04-.48c1.08.04,1.73.06,2.5.06s1.41-.02,2.37-.06l.04.48-.46.04c-1.14.1-1.17.4-1.17,2.43v6.7c0,1.21.06,1.71.4,2.08.21.21.58.44,2.1.44,1.64,0,2.04-.08,2.35-.25.39-.23.89-.92,1.27-1.91l.48.12c0,.21-.54,2.18-.81,2.7-.98-.04-2.81-.06-4.8-.06h-1.77c-.81,0-1.42.02-2.5.06l-.04-.48.58-.06c1.12-.12,1.16-.39,1.16-2.41v-6.93Z"/>
  <path class="st1" d="M117.01,133.59c0-1.19-.04-3.41-.37-3.99-.14-.23-.48-.36-.96-.4l-.48-.04.04-.46c.73.04,1.44.06,2.2.06.81,0,1.33-.02,2.02-.06.15.09.14.35.04.46l-.46.04c-.48.04-.85.21-.96.46-.27.64-.27,2.85-.27,3.93v2.18c0,1.68-.27,3.45-1.35,4.6-.83.91-2.25,1.41-3.68,1.41-1.33,0-2.66-.25-3.6-1.06-1.02-.84-1.5-2.25-1.5-4.54v-4.55c0-2-.04-2.33-1.16-2.43l-.48-.04.04-.46c.96.04,1.62.06,2.39.06s1.43-.02,2.37-.06l.04.46-.46.04c-1.12.1-1.16.43-1.16,2.43v4.16c0,3.1.96,5.14,3.91,5.14,2.79,0,3.85-2.19,3.85-5.12v-2.21Z"/>
  <path class="st1" d="M123.31,130.09c1.41-1.1,3.2-1.64,5.2-1.64,1.04,0,2.5.21,3.41.46.23.06.37.1.54.08.02.44.11,1.66.27,2.83l-.52.04c-.29-1.31-1.16-2.81-3.95-2.81-2.95,0-5.45,1.87-5.45,5.85s2.56,6.28,5.72,6.28c2.48,0,3.58-1.62,4.02-2.76l.5.08c-.13,1-.64,2.27-.93,2.64-.23.04-.46.12-.67.19-.42.16-1.81.44-3.04.44-1.73,0-3.39-.35-4.79-1.29-1.54-1.06-2.74-2.81-2.74-5.3,0-2.14.96-3.97,2.43-5.1"/>
  <path class="st1" d="M136.59,131.65c0-2-.04-2.29-1.18-2.43l-.31-.04.04-.48c.83.04,1.48.06,2.27.06h3.62c1.23,0,2.37,0,2.6-.06.11.33.23,1.71.31,2.56l-.48.04c-.29-.9-.46-1.58-1.46-1.83-.41-.1-1.02-.11-1.87-.11h-1.38c-.58,0-.58.04-.58.77v3.85c0,.54.06.54.64.54h1.12c.81,0,1.41-.04,1.64-.12.23-.08.37-.19.47-.67l.15-.79.5.02c0,.46-.08,1.21-.08,1.95,0,.69.08,1.43.08,1.85l-.5.02-.17-.75c-.08-.34-.21-.64-.6-.73-.27-.08-.73-.1-1.48-.1h-1.12c-.58,0-.64.02-.64.52v2.72c0,1.02.06,1.68.37,2,.23.23.63.44,2.33.44,1.48,0,2.04-.08,2.46-.29.35-.19.87-.87,1.37-1.87.13-.09.4-.04.48.14-.13.67-.62,2.16-.87,2.68-1.73-.04-3.45-.06-5.16-.06h-1.74c-.83,0-1.48.02-2.62.06l-.04-.48.64-.06c1.1-.1,1.19-.39,1.19-2.41v-6.93Z"/>
  <path class="st1" d="M158.65,138.2c0,.58,0,2.87.06,3.37-.04.12-.15.21-.36.21-.23-.33-.79-1-2.47-2.91l-4.47-5.08c-.52-.6-1.83-2.18-2.23-2.6h-.04c-.08.23-.1.67-.1,1.25v4.2c0,.91.02,3.41.35,3.99.12.21.5.33.98.36l.6.06c.12.15.1.39-.04.48-.87-.04-1.54-.06-2.25-.06-.81,0-1.33.02-2,.06l-.04-.48.52-.06c.44-.06.75-.17.85-.39.27-.69.25-3.04.25-3.97v-5.57c0-.54-.02-.94-.42-1.39-.27-.27-.73-.4-1.2-.46l-.33-.04c-.11-.12-.11-.4.04-.48.81.06,1.83.06,2.18.06.31,0,.63-.02.89-.06.39.98,2.66,3.52,3.29,4.24l1.87,2.1c1.33,1.48,2.27,2.56,3.18,3.49h.04c.08-.1.08-.41.08-.81v-4.12c0-.91-.02-3.41-.39-3.99-.12-.17-.42-.29-1.19-.38l-.33-.04c-.14-.12-.12-.42.04-.48.89.04,1.54.06,2.27.06.83,0,1.33-.02,1.98-.06.15.1.15.37.04.48l-.27.04c-.62.1-1,.25-1.08.41-.33.69-.29,3.08-.29,3.97v4.6Z"/>
  <path class="st1" d="M169.25,138.58c0,2.02.04,2.31,1.15,2.41l.62.06-.04.48c-1.1-.04-1.75-.06-2.52-.06s-1.44.02-2.68.06c-.12-.06-.16-.38,0-.48l.69-.06c1.1-.1,1.2-.39,1.2-2.41v-8.61c0-.6,0-.62-.58-.62h-1.06c-.83,0-1.89.04-2.37.48-.46.42-.65.85-.87,1.33-.15.12-.42.02-.5-.13.31-.87.6-2.1.73-2.87h.37c.12.62.75.6,1.64.6h7.8c1.04,0,1.21-.04,1.5-.54l.34.06c-.21.79-.34,2.35-.29,2.93-.08.16-.41.16-.5.04-.06-.48-.19-1.2-.48-1.4-.44-.33-1.18-.48-2.24-.48h-1.37c-.58,0-.56.02-.56.66v8.57Z"/>
  <path class="st1" d="M177.61,131.69c0-2.04-.04-2.37-1.17-2.46l-.48-.04.04-.48c.96.04,1.62.06,2.42.06s1.43-.02,2.39-.06l.04.48-.48.04c-1.14.1-1.17.42-1.17,2.46v6.86c0,2.04.04,2.31,1.17,2.45l.48.06-.04.48c-.96-.03-1.62-.06-2.39-.06s-1.46.02-2.42.06l-.04-.48.48-.06c1.14-.14,1.17-.41,1.17-2.45v-6.86Z"/>
  <g>
    <path class="st1" d="M185.99,128.72c-.34.01-.58.02-.84.02s-.51,0-.89-.02v.17s.16.01.16.01c.43.03.45.14.45.86v2.47c0,.72-.01.82-.41.86l-.21.02v.17c.4-.01.62-.02.91-.02h.63c.71,0,1.36,0,1.71.02.1-.19.29-.88.29-.96l-.17-.04c-.14.35-.32.6-.45.68-.11.06-.25.09-.84.09-.54,0-.67-.08-.75-.16-.12-.13-.14-.31-.14-.74v-2.39c0-.72.01-.83.42-.86h.17s-.01-.19-.01-.19Z"/>
    <path class="st1" d="M190.06,128.72c-.34.01-.58.02-.84.02s-.51,0-.89-.02v.17s.16.01.16.01c.43.03.45.14.45.86v2.47c0,.72-.01.82-.41.86l-.21.02v.17c.4-.01.62-.02.9-.02h.63c.71,0,1.36,0,1.71.02.1-.19.29-.88.29-.96l-.17-.04c-.14.35-.32.6-.45.68-.11.06-.25.09-.84.09-.54,0-.67-.08-.75-.16-.12-.13-.14-.31-.14-.74v-2.39c0-.72.01-.83.42-.86h.16s-.01-.19-.01-.19Z"/>
    <path class="st1" d="M193.77,128.72c-.57,0-.99,0-1.36.06v.17s.23.03.23.03c.31.03.32.15.32.73v2.53c0,.72-.01.8-.41.86l-.14.02v.17c.32-.01.56-.02.85-.02s.5,0,.89.02v-.17s-.17-.02-.17-.02c-.44-.05-.45-.14-.45-.86v-3.06c0-.22,0-.25.37-.25.71,0,1.1.43,1.1,1.1,0,.6-.27,1.01-1.01,1.15v.14c.29,0,.65-.06.95-.21.3-.14.69-.46.69-1.09,0-.47-.23-.83-.55-1.03-.32-.2-.75-.28-1.32-.28"/>
  </g>
</svg>