<?xml version="1.0" encoding="UTF-8"?>
<svg id="Layer_1" xmlns="http://www.w3.org/2000/svg" version="1.1" viewBox="0 0 200 200">
  <!-- Generator: Adobe Illustrator 30.4.0, SVG Export Plug-In . SVG Version: 2.1.4 Build 226)  -->
  <defs>
    <style>
      .st0 {
        fill: #425968;
      }
    </style>
  </defs>
  <g id="_x35_AU4Hu">
    <path class="st0" d="M110.26,155.4h-46.03l-.07-3.29h13.46v-50.98l-11.27.07c-2.06.02-4.12.38-6.1.75-8.35,2.31-8.61,11.59-9.1,19.67l-2.81-.05v-45.03l2.97-.02c.12,4.64.34,9.1,1.4,13.55.97,4.07,3.87,6.56,8.06,7.05,5.58.65,11.18.57,16.84.57v-49.73l-19.37.02-7.35.43c-3.61.52-6.7,2.02-9.4,4.44-6.67,5.99-8.71,14.38-10.26,23.08l-2.64-.04,1.86-31.29h79.78l.08,3.36h-14.12v48.62h43.55v-48.63h-14.27l.09-3.35h45.33l.07,3.34-13.17.02v104.15h13.62l-.05,3.27h-45.49l-.06-3.26,13.94-.02v-51.28h-43.55v51.27l14.11.02-.04,3.29h0Z"/>
  </g>
</svg>