<?xml version="1.0" encoding="UTF-8"?>
<svg id="Layer_1" xmlns="http://www.w3.org/2000/svg" version="1.1" viewBox="0 0 196.76 77.85">
  <!-- Generator: Adobe Illustrator 30.5.1, SVG Export Plug-In . SVG Version: 2.1.4 Build 3)  -->
  <defs>
    <style>
      .st0 {
        fill: #daae53;
      }

      .st1 {
        fill: #fcbb2d;
      }

      .st2 {
        fill: #2a2424;
      }
    </style>
  </defs>
  <path class="st0" d="M191.79,16l.14-.25,2.07.53c0,.05-.04.12-.11.15l-2.1-.43Z"/>
  <g>
    <g>
      <path class="st2" d="M126.59,54.72c.55,0,1.08.54.88,1.1l-7.7,21.01c-.2.56-.7.84-1.25.84h-3.01c-.54.04-1.08-.22-1.32-.74l-5.56-12.1-5.48,12.2c-.21.47-.76.65-1.23.65l-3.16-.03c-.38,0-.82-.35-.97-.76l-7.57-20.83c-.2-.56.13-1.3.73-1.3h6.18c.4,0,.69.47.81.79l3.41,9.36,2.64-5.59,2-4c.2-.4.58-.59,1.03-.59h3.73c.38.02.73.2.89.56l4.55,9.85c1.16-3.45,2.07-6.6,3.51-9.72.15-.39.5-.68.93-.69l5.95-.02Z"/>
      <path class="st2" d="M73.09,77.42c-.64,0-1.04-.92-1.28-1.36l-2.95-5.36c-.41-.74-1.08-1.23-1.95-1.24l-3.32-.03v7.09c0,.54-.42.95-.96.95h-6.11c-.55,0-1-.44-1-1.02v-20.72c0-.66.55-1.02,1.15-1.02l14.12.02c3.45,0,6.96,1.24,8,4.57s-.31,7.36-3.97,7.9c1.19.63,1.97,1.61,2.68,2.78l3.58,5.94c.2.3.17.76,0,1.02-.13.2-.43.53-.81.53l-7.19-.06ZM70.91,63.08c.72-1.05.28-2.32-.81-2.83-.58-.28-1.22-.41-1.87-.41l-4.66-.04.02,4.49,4.57-.03c1.04,0,2.01-.36,2.75-1.18Z"/>
      <path class="st2" d="M195.81,77.47l-6.04.02c-.62.04-1.14-.39-1.14-1.01v-7.82s-7.34,0-7.34,0v7.85c-.11.55-.56.92-1.1.98h-5.94c-.5-.01-1.08-.42-1.08-1l.04-20.81c0-.58.68-.93,1.18-.93h5.84c.59.09,1.05.48,1.07,1.08v6.93s7.34.01,7.34.01v-7.08c.02-.53.41-.92.96-.96l6.19.02c.65,0,1,.47,1,1.1l-.02,20.78c0,.41-.52.84-.93.84Z"/>
      <path class="st2" d="M141.84,74.05l-10.57-.02-1.52,2.92c-.16.31-.46.53-.83.53h-6.12c-.32,0-.6-.17-.73-.38-.12-.19-.2-.56-.05-.83l4-7.31,7.51-13.3c.27-.47.69-.91,1.24-.91h4.79c.53,0,.95.28,1.21.77l10.96,20.61c.2.37.12.69-.04.93-.17.27-.45.41-.84.41h-6.81c-.42-.14-.7-.46-.92-.82l-1.29-2.61ZM139.24,68.89l-2.52-5.05-2.71,5.08,5.23-.03Z"/>
      <path class="st2" d="M45.02,74.04h-10.6s-1.42,2.67-1.42,2.67c-.14.26-.42.75-.79.75l-6.4-.02c-.63,0-.78-.87-.49-1.41l11.59-20.84c.16-.29.55-.45.84-.45h5.14c.42,0,.77.28.97.66l11.04,20.93c.26.5-.31,1.12-.77,1.12h-6.93c-.35-.02-.72-.58-.86-.85l-1.32-2.57ZM42.41,68.88l-2.58-4.97-2.68,5.01,5.26-.03Z"/>
      <path class="st2" d="M171.85,71.53c-.69,5.13-6.12,6.44-10.91,6.29-2.46-.08-4.8-.55-7.2-1.01-.65-.12-.99-.55-1.07-1.21l-.56-4.75c-.05-.42.04-.83.3-1.03s.75-.36,1.13-.21l4.22,1.63c2.56.99,7.04,1.3,7.23-.32.05-.45-.27-.79-.75-.92l-3.65-.96c-2.58-.68-6.21-1.51-7.52-3.6-1.85-2.95-1.22-7.02,1.56-9.16,1.4-1.08,3.07-1.47,4.8-1.75,3.41-.56,6.84-.1,10.09,1.02.42.14.73.58.78.99l.57,4.43c.04.31-.06.61-.2.8-.88,1.12-4.07-1.79-9.19-1.79-1.29,0-2.43.28-2.4,1.07.01.31.31.53.66.62l6.69,1.79c4.25,1.14,6.02,3.67,5.43,8.07Z"/>
      <path class="st2" d="M10.15,70.55c3.39,2.48,8.3,1.36,12.09-.34.43-.19.87-.17,1.21.03.38.22.63.64.61,1.17l-.14,4.2c-.02.54-.7.78-1.16.92-5.71,1.71-12.5,2.14-17.7-.86-2.49-1.44-4.22-3.7-4.76-6.54-1.08-5.69.91-11.31,6.53-13.51,4.92-1.92,10.43-1.79,15.37.04.47.17.71.62.74,1.06l.28,3.72c.26,3.42-5.09-2.13-11.46.12-2.27.81-3.62,2.81-3.64,5.23-.02,1.8.52,3.66,2.04,4.77Z"/>
    </g>
    <g>
      <g>
        <path class="st1" d="M30.89,44.93l2.52,2.51c.37.37.53.87.37,1.32s-.54.92-1.14.91l-10.15-.06-7.69-7.56-3.09-2.96c-.25,1.38,0,2.65.01,4.01v5.27c0,.54-.42,1.26-1,1.26H3.12c-.64.01-1.22-.58-1.22-1.26v-25.38c0-.6.48-1.22,1.06-1.22l7.39-.03c.73.08,1.25.65,1.25,1.39v8.42s6.65-7.23,6.65-7.23l2.47-2.55h8.15c.59,0,1.01.58,1.09.96.12.54-.05,1.12-.45,1.56l-9.55,10.37,4.24,3.94,3.2,3.01,3.47,3.32Z"/>
        <path class="st1" d="M89.19,49.02l-1.81-3.46-12.84-.03-1.58,3.13c-.15.29-.53.95-.94.95l-7.92.04c-.43,0-.8-.31-.93-.6-.14-.31-.13-.74.1-1.15l13.79-25.03c.28-.5.58-1.1,1.21-1.1h6.65c.68,0,.98.68,1.26,1.21l9.96,18.81,3.23,6.33c.17.34.04.78-.13,1.04-.19.3-.57.5-1.04.5l-8.28-.03c-.23,0-.61-.39-.72-.62ZM84.2,38.92l-2.94-6.19-3.38,6.16,6.32.03Z"/>
        <path class="st1" d="M121.2,48.27c-5.37,2.81-12.55,1.91-18.42.51-.73-.18-1.12-.94-1.19-1.63l-.57-5.64c-.05-.52.17-1.11.64-1.3.65-.25,1.33-.13,1.95.15,3.45,1.52,9.26,3.39,12.51,2.1.47-.19.75-.58.72-1.04-.03-.42-.34-.82-.83-.95l-5-1.34c-4.86-1.3-9.63-2.27-9.85-8.42-.19-5.57,3.63-8.68,9.02-9.23,3.93-.4,7.72,0,11.54.91,1.04.25,1.61.64,1.76,1.82l.69,5.57c-.4.98-1.4,1.12-2.34.79-2.11-.93-4.17-1.85-6.48-2.17s-5.68-.28-5.59,1.16c.02.34.38.71.82.82l8.14,2.08,2.43.93c2.54.97,4.05,3.28,4.32,5.97l.02,2.32c-.25,2.85-1.74,5.23-4.28,6.56Z"/>
        <path class="st1" d="M147.02,48.65c-3.03,1.3-7.7,1.86-10.83,1.34l-6.64-1.11c-.62-.1-1.12-.86-1.19-1.45l-.62-5.91c-.05-.5.23-.95.51-1.18.37-.3,1.01-.34,1.5-.13,3.6,1.53,9.5,3.64,12.88,2.26.41-.17.68-.5.72-.87.04-.43-.21-.94-.69-1.08l-3.14-.91-6.01-1.59c-1.39-.37-2.68-1.09-3.7-2.12-1.45-1.48-1.93-3.47-1.97-5.51-.05-2.57.95-4.85,2.94-6.51,1.76-1.46,3.95-2.13,6.29-2.37,4.07-.41,8.08-.02,11.99,1.14.61.18.97.82,1.05,1.41l.73,5.6c.07.54-.42.96-.88,1.04-.67.12-1.22.01-1.81-.26-1.97-.92-3.95-1.7-6.13-2s-5.51-.33-5.52,1.15c0,.44.38.75.87.87l7.18,1.81c4.46,1.13,7.49,3.1,7.59,8,.08,3.68-1.7,6.9-5.14,8.37Z"/>
        <path class="st1" d="M179.24,41.74c3.96,2.16,9.3,1.03,13.34-.96.75-.37,2.15-.41,2.36.63.34,1.65-.03,3.38-.05,5.06-.01.89-.36,1.67-1.27,1.98-7.03,2.36-16.93,2.8-22.87-1.9-5.02-3.96-5.88-12.14-3.01-17.85,1.61-3.21,4.54-5.34,7.93-6.37,5.07-1.54,12.03-1.21,17.06.46.92.31,1.23,1.04,1.3,1.94l.15,1.98c.08,1.04.42,2.24.02,3.27-.24.61-1.46.5-2,.27-4.02-1.77-8.25-2.86-12.34-1.09-2.75,1.19-4.07,3.82-3.99,6.72.07,2.47,1.01,4.6,3.36,5.88Z"/>
        <path class="st1" d="M60.76,42.64v5.79c0,.34-.27,1.2-.76,1.2l-22.9.02c-.6-.31-.92-.77-.92-1.45v-25.05c0-.76.48-1.4,1.23-1.4h7.23c.52.06,1.24.41,1.25,1.04l.02,18.72,13.9.02c.55,0,.99.54.95,1.11Z"/>
        <path class="st1" d="M162.6,49.62l-6.95.02c-.58,0-1.04-.48-1.04-1.09l.02-25.39c0-.68.32-1.39,1.02-1.4l6.53-.03c.83,0,1.4.56,1.4,1.42v25.39c-.01.53-.39,1.07-.99,1.08Z"/>
      </g>
      <path class="st0" d="M106.76,15.9l-.12.3-3.05.22c-.06-.03-.1-.1-.1-.14l3.26-.38Z"/>
      <g>
        <path class="st2" d="M191.93,15.74l-.14.25-5.03-.9c-6.23-1.11-12.42-1.46-18.76-.65-.34.13-.38-.18-.07-.16l4.86-.81c1.02-.17,2.05,0,2.96-.39-13.81-6.67-26.63-12.04-42.02-12.12-8.24-.04-14.08,1.98-20.94,6.36l-8.52,5.43c-1.97,1.26-4.14,2.18-6.47,2.47l-10.89,1.35-9.62,2.05c-3.14.67-5.99,2.05-8.34,4.25l-3.83,3.59c-1.92,1.8-6.22,4.1-7,1.98-.41-1.11.03-2.42.61-3.43,1.43-2.49,3.68-4.22,6.37-5.26,3.45-1.34,6.92-2.25,10.61-2.79l13.4-1.96,6.94-1.2c2.2-.38,4.05-1.42,5.97-2.56l9.52-5.67C119.72.69,129.59-.6,139.05.24c7.8.69,15.28,2.48,22.59,5.26,4.9,1.86,9.53,3.94,14.18,6.29,2.17,1.1,4.39,1.49,6.75,1.98l9.36,1.97ZM66.62,24.52l2.76-2.64c1.6-1.2,3.28-2.18,5.15-3.13-2.72-.62-5.72.68-8.23,2.34-2.14,1.41-3.88,3.22-4.76,5.68-.11.3-.15,1.16.26,1.15,1.88-.68,3.37-2.01,4.83-3.4Z"/>
        <path class="st2" d="M106.64,16.2l.12-.3c6.7-.78,13.29-1.31,20.07-1.42l12.18-.19,19.98-.09c.84,0,1.32-.66,1.58-1.36.54-1.48-.03-2.89-1.51-3.61-8.02-3.95-16.68-5.97-25.68-6.35-4.76-.2-9.31.59-13.6,2.56-3.73,1.71-6.93,3.94-10.47,6.05,2.38-2.11,5.04-3.7,7.77-5.32,4.94-2.92,10.35-4.21,16.13-3.99,8.65.32,17.08,2.28,24.9,5.93,1.04.48,1.88,1,2.69,1.77,1.13,1.65.55,4.06-1.34,4.87l-25.36.26-27.47,1.19Z"/>
      </g>
    </g>
  </g>
</svg>