<?xml version="1.0" encoding="UTF-8"?>
<svg id="Layer_1" xmlns="http://www.w3.org/2000/svg" xmlns:xlink="http://www.w3.org/1999/xlink" version="1.1" viewBox="0 0 200 200">
  <!-- Generator: Adobe Illustrator 30.4.0, SVG Export Plug-In . SVG Version: 2.1.4 Build 226)  -->
  <defs>
    <style>
      .st0 {
        fill: none;
      }

      .st1 {
        fill: #231f20;
      }

      .st2 {
        fill: url(#radial-gradient);
      }

      .st3 {
        clip-path: url(#clippath-1);
      }

      .st4 {
        clip-path: url(#clippath-3);
      }

      .st5 {
        clip-path: url(#clippath-4);
      }

      .st6 {
        clip-path: url(#clippath-2);
      }

      .st7 {
        clip-path: url(#clippath-7);
      }

      .st8 {
        clip-path: url(#clippath-6);
      }

      .st9 {
        clip-path: url(#clippath-5);
      }

      .st10 {
        fill: url(#radial-gradient1);
      }

      .st11 {
        fill: url(#radial-gradient6);
      }

      .st12 {
        fill: url(#radial-gradient3);
      }

      .st13 {
        fill: url(#radial-gradient2);
      }

      .st14 {
        fill: url(#radial-gradient5);
      }

      .st15 {
        fill: url(#radial-gradient4);
      }

      .st16 {
        fill: url(#radial-gradient7);
      }

      .st17 {
        clip-path: url(#clippath);
      }
    </style>
    <clipPath id="clippath">
      <path class="st0" d="M81.65,36.37c4.68-5.01,10.7-7.76,16.99-7.76s12.3,2.75,16.99,7.76c-6.6,1.1-12.61,5.42-16.99,12.22-4.38-6.8-10.38-11.12-16.99-12.22M76.63,36.23c-.22.25-.43.5-.63.76l-.03.04c-.19.23-.38.47-.56.71l-.03.04-.05.06c-.17.22-.33.44-.49.67l-.05.06-.06.09c-.19.27-.37.54-.55.81-.05.08-.05.18,0,.26.04.07.12.11.2.11,0,0,.02,0,.03,0,.31-.04.63-.06.97-.08h.07s.08,0,.08,0c.19,0,.38-.01.58-.01.1,0,.21,0,.32,0h.07c.69.02,1.41.09,2.14.2,4.29.63,9.05,2.7,13.39,5.83,2.05,1.47,3.91,3.12,5.55,4.89.35.37.63.69.88.98.04.05.11.08.18.08s.13-.03.18-.08c.25-.3.53-.61.88-.98,1.64-1.77,3.51-3.42,5.55-4.89,4.35-3.13,9.11-5.2,13.39-5.83.73-.11,1.45-.17,2.15-.19h.04c.14,0,.24,0,.35,0,.2,0,.39,0,.58.01h.08s.07,0,.07,0c.34.02.66.04.97.08,0,0,.02,0,.03,0,.08,0,.16-.04.2-.11.05-.08.05-.18,0-.26-.18-.28-.36-.55-.55-.81l-.06-.09-.05-.06c-.16-.23-.32-.45-.49-.67l-.05-.06-.03-.04c-.18-.24-.37-.48-.56-.71l-.03-.04c-.21-.26-.42-.51-.63-.76-5.57-6.42-13.59-10.11-22.01-10.11s-16.44,3.68-22.01,10.11"/>
    </clipPath>
    <radialGradient id="radial-gradient" cx="-486.12" cy="433.99" fx="-486.12" fy="433.99" r=".52" gradientTransform="translate(76044.6389 68872.0056) scale(156.2294 -158.568)" gradientUnits="userSpaceOnUse">
      <stop offset="0" stop-color="#ec1c24"/>
      <stop offset=".44" stop-color="#ec1c24"/>
      <stop offset=".53" stop-color="#e81b23"/>
      <stop offset=".62" stop-color="#dc1820"/>
      <stop offset=".72" stop-color="#c8151b"/>
      <stop offset=".81" stop-color="#ac0f14"/>
      <stop offset=".9" stop-color="#88080b"/>
      <stop offset=".99" stop-color="#5c0000"/>
      <stop offset="1" stop-color="#5a0000"/>
    </radialGradient>
    <clipPath id="clippath-1">
      <path class="st0" d="M75.13,69.68c-3.14-5.53-3.8-12.19-1.87-18.81,4.24,5.25,10.93,8.37,18.92,8.82-3.61,7.25-4.3,14.69-1.93,21.04-6.61-1.61-11.97-5.52-15.11-11.05M72.39,42.62c-.09,0-.17.05-.21.13-.15.29-.28.59-.42.89l-.04.1-.03.07c-.11.25-.22.51-.33.76l-.03.07-.02.05c-.11.28-.22.56-.33.85l-.02.05c-.11.31-.22.62-.33.94-2.7,8.11-1.83,17,2.38,24.4,4.21,7.4,11.36,12.61,19.63,14.29.32.06.64.12.96.18h.05c.3.06.59.1.89.14h.05s.08.02.08.02c.27.04.54.07.82.1h.08s.11.02.11.02c.32.03.65.06.97.08,0,0,0,0,.01,0,.09,0,.17-.05.21-.13.04-.08.04-.18-.02-.26-.19-.25-.37-.52-.55-.81l-.04-.06-.04-.07c-.18-.29-.32-.54-.45-.78l-.03-.07c-.33-.62-.63-1.29-.91-1.98-1.61-4.09-2.22-9.3-1.72-14.69.23-2.53.7-5,1.39-7.32.15-.49.27-.89.4-1.27.02-.07.02-.14-.02-.2-.03-.06-.09-.1-.16-.12-.38-.07-.79-.16-1.28-.28-2.33-.56-4.67-1.38-6.95-2.44-4.85-2.26-8.99-5.4-11.67-8.86-.46-.59-.87-1.19-1.24-1.79l-.02-.04c-.16-.26-.3-.52-.46-.82l-.04-.07-.03-.06c-.16-.3-.3-.6-.42-.89-.04-.09-.12-.14-.21-.15h0"/>
    </clipPath>
    <radialGradient id="radial-gradient1" cy="433.99" fy="433.99" r=".52" xlink:href="#radial-gradient"/>
    <clipPath id="clippath-2">
      <path class="st0" d="M104.92,59.7c7.99-.45,14.68-3.57,18.92-8.82,1.93,6.62,1.27,13.28-1.87,18.81-3.14,5.53-8.5,9.44-15.11,11.05,2.36-6.35,1.68-13.79-1.93-21.04M124.7,42.62c-.09,0-.17.06-.21.15-.12.29-.26.59-.42.89l-.03.06-.04.07c-.16.3-.3.55-.44.79l-.04.06c-.36.6-.78,1.2-1.24,1.79-2.68,3.45-6.83,6.6-11.67,8.86-2.28,1.06-4.62,1.88-6.95,2.44-.49.12-.9.21-1.28.28-.07.01-.13.06-.16.12-.03.06-.04.13-.02.2.13.37.25.77.4,1.27.69,2.32,1.16,4.79,1.39,7.32.5,5.39-.12,10.6-1.72,14.69-.27.7-.58,1.36-.91,1.98l-.02.04c-.15.27-.29.52-.47.81l-.04.07-.04.06c-.18.29-.37.56-.55.81-.06.07-.06.18-.02.26.04.08.12.13.21.13,0,0,0,0,.01,0,.32-.02.65-.05.97-.08h.11s.08-.02.08-.02c.27-.03.54-.06.82-.1h.08s.05-.02.05-.02c.3-.04.59-.08.89-.13h.05c.32-.06.64-.12.96-.19,8.27-1.68,15.42-6.89,19.63-14.29,4.21-7.4,5.07-16.29,2.38-24.4-.1-.31-.21-.63-.33-.94l-.02-.05c-.11-.28-.22-.57-.33-.85l-.02-.05-.03-.07c-.1-.26-.22-.51-.33-.76l-.03-.07-.04-.1c-.14-.3-.27-.6-.42-.89-.04-.08-.12-.13-.21-.13h0"/>
    </clipPath>
    <radialGradient id="radial-gradient2" cx="-486.12" cy="433.99" fx="-486.12" fy="433.99" r=".52" xlink:href="#radial-gradient"/>
    <clipPath id="clippath-3">
      <path class="st0" d="M70.89,108.37c0,4.44,6.33,8.29,16.53,10.04.26.05.5-.13.55-.39.05-.26-.11-.51-.37-.57-6.56-1.45-10.64-4.05-10.64-6.79,0-4.28,9.88-7.9,21.59-7.9s21.58,3.62,21.58,7.9c0,2.74-4.07,5.34-10.63,6.79-.25.06-.42.31-.37.57.04.23.24.39.47.39.03,0,.05,0,.08,0,10.19-1.75,16.53-5.6,16.53-10.04,0-6.14-12.15-10.95-27.66-10.95s-27.66,4.81-27.66,10.95"/>
    </clipPath>
    <radialGradient id="radial-gradient3" cy="433.99" fy="433.99" r=".52" xlink:href="#radial-gradient"/>
    <clipPath id="clippath-4">
      <path class="st0" d="M47.65,46.9c-3.6.94-5.66,6.25-5.67,14.24v.16c0,1.37.06,2.82.19,4.34.02.26.25.47.51.45.26-.02.46-.24.45-.5-.25-6.81,1.23-11.46,3.84-12.14,4.09-1.06,10,7.76,12.9,19.26,1.45,5.74,1.98,11.34,1.51,15.78-.45,4.21-1.8,6.91-3.7,7.41-2.61.68-6.11-2.68-9.11-8.77-.12-.24-.4-.33-.63-.22-.24.11-.34.4-.23.64,3.83,8.75,8.53,13.9,12.54,13.9.39,0,.76-.05,1.14-.14,2.87-.75,4.81-4.33,5.44-10.08.62-5.59-.04-12.64-1.85-19.83-1.81-7.19-4.57-13.69-7.76-18.3-2.86-4.13-5.81-6.33-8.42-6.33-.38,0-.76.05-1.13.14"/>
    </clipPath>
    <radialGradient id="radial-gradient4" cx="-486.12" cy="433.99" fx="-486.12" fy="433.99" r=".52" xlink:href="#radial-gradient"/>
    <clipPath id="clippath-5">
      <path class="st0" d="M139.89,53.08c-3.19,4.6-5.95,11.1-7.76,18.3-1.81,7.19-2.47,14.24-1.85,19.83.64,5.75,2.57,9.33,5.44,10.08.37.1.75.15,1.14.15,4.01,0,8.71-5.16,12.54-13.9.11-.24,0-.52-.23-.64-.23-.11-.52-.01-.63.22-3.01,6.09-6.51,9.45-9.11,8.77-1.9-.49-3.25-3.2-3.7-7.41-.47-4.43.06-10.04,1.51-15.78,2.9-11.51,8.82-20.32,12.9-19.26,2.61.68,4.09,5.33,3.84,12.14,0,.26.19.49.45.5.24.02.48-.18.51-.45.86-10.46-1.24-17.64-5.48-18.74-.37-.1-.75-.14-1.13-.14-2.61,0-5.56,2.2-8.42,6.33"/>
    </clipPath>
    <radialGradient id="radial-gradient5" cx="-486.12" cy="433.99" fx="-486.12" fy="433.99" r=".52" xlink:href="#radial-gradient"/>
    <clipPath id="clippath-6">
      <path class="st0" d="M77.37,9.35c-.24.11-.34.4-.23.64.11.24.39.35.63.24,6.25-2.79,9.77-2.88,10.49-1.73.63,1-.47,3.22-2.93,5.93-2.67,2.94-6.65,6.18-11.21,9.13-4.56,2.95-9.14,5.24-12.89,6.45-3.46,1.12-5.91,1.19-6.53.19-.72-1.15.85-4.35,5.98-8.91.2-.17.22-.48.05-.68-.17-.2-.47-.23-.67-.06-5.77,4.8-11.26,11-9.36,14.02.6.95,1.8,1.38,3.44,1.38,5,0,14.02-3.99,22.01-9.16,5.69-3.68,10.67-7.74,14.01-11.45,2.46-2.72,5.1-6.44,3.7-8.67-.61-.97-1.83-1.38-3.43-1.38-3.39,0-8.48,1.83-13.04,4.06"/>
    </clipPath>
    <radialGradient id="radial-gradient6" cx="-486.12" fx="-486.12" r=".52" xlink:href="#radial-gradient"/>
    <clipPath id="clippath-7">
      <path class="st0" d="M103.24,6.67c-1.4,2.23,1.24,5.95,3.7,8.67,3.34,3.7,8.32,7.77,14.01,11.45,5.69,3.68,11.42,6.54,16.14,8.05,1.88.6,4.05,1.13,5.86,1.13,1.53,0,2.8-.38,3.44-1.4,1.9-3.02-3.59-9.22-9.36-14.02-.2-.17-.5-.14-.67.06-.17.2-.15.51.05.68,5.13,4.57,6.7,7.77,5.98,8.91-.63,1-3.07.93-6.53-.19-3.76-1.21-8.33-3.51-12.89-6.45-9.89-6.39-15.39-13.07-14.15-15.06.72-1.15,4.24-1.06,10.49,1.73.24.11.52,0,.63-.24.11-.24,0-.53-.23-.64-4.56-2.23-9.65-4.06-13.04-4.06-1.6,0-2.82.41-3.43,1.38"/>
    </clipPath>
    <radialGradient id="radial-gradient7" cx="-486.12" cy="433.99" fx="-486.12" fy="433.99" r=".52" xlink:href="#radial-gradient"/>
  </defs>
  <g class="st17">
    <rect class="st2" x="74.12" y="26.12" width="49.03" height="25.62"/>
  </g>
  <g class="st3">
    <rect class="st10" x="67.93" y="42.62" width="28.97" height="43.13"/>
  </g>
  <g class="st6">
    <rect class="st13" x="100.19" y="42.62" width="28.97" height="43.13"/>
  </g>
  <g class="st4">
    <rect class="st12" x="70.89" y="97.42" width="55.32" height="21.03"/>
  </g>
  <g class="st5">
    <rect class="st15" x="41.98" y="46.75" width="25.46" height="54.68"/>
  </g>
  <g class="st9">
    <rect class="st14" x="129.65" y="46.75" width="26.12" height="54.68"/>
  </g>
  <g class="st8">
    <rect class="st11" x="48.79" y="5.29" width="46.45" height="30.65"/>
  </g>
  <g class="st7">
    <rect class="st16" x="101.84" y="5.29" width="46.46" height="30.67"/>
  </g>
  <g>
    <path class="st1" d="M41.98,150.38v-14.4c0-1.97,1.55-3.55,3.52-3.55h7.59c1.97,0,3.55,1.58,3.55,3.55v14.4c0,1.97-1.58,3.55-3.55,3.55h-7.59c-1.97,0-3.52-1.58-3.52-3.55M52.77,136.82c0-.48-.39-.84-.87-.84h-5.17c-.49,0-.87.36-.87.84v12.72c0,.48.39.84.87.84h5.17c.49,0,.87-.36.87-.84v-12.72Z"/>
    <polygon class="st1" points="75.38 153.93 71.64 153.93 63.5 140.01 63.5 153.93 59.75 153.93 59.75 132.42 63.5 132.42 71.64 146.41 71.64 132.42 75.38 132.42 75.38 153.93"/>
    <polygon class="st1" points="78.49 132.42 94.06 132.42 94.06 135.98 88.22 135.98 88.22 153.93 84.34 153.93 84.34 135.98 78.49 135.98 78.49 132.42"/>
    <path class="st1" d="M110.97,153.93h-3.91l-1.55-4.68h-7.27l-1.49,4.68h-3.91l7.27-21.51h3.59l7.27,21.51ZM99.41,145.79h4.97l-2.49-8.2-2.49,8.2Z"/>
    <path class="st1" d="M122.02,145.63h-4.07v8.3h-3.88v-21.51h11.27c1.97,0,3.55,1.58,3.55,3.55v6.1c0,1.68-1.13,3.07-2.68,3.46l4.13,8.4h-4.26l-4.07-8.3ZM125.02,136.82c0-.48-.39-.84-.87-.84h-6.2v6.1h6.2c.48,0,.87-.36.87-.84v-4.42Z"/>
    <rect class="st1" x="133.46" y="132.42" width="3.88" height="21.51"/>
    <path class="st1" d="M140.44,150.38v-14.4c0-1.97,1.55-3.55,3.52-3.55h7.59c1.97,0,3.55,1.58,3.55,3.55v14.4c0,1.97-1.58,3.55-3.55,3.55h-7.59c-1.97,0-3.52-1.58-3.52-3.55M151.23,136.82c0-.48-.39-.84-.87-.84h-5.17c-.49,0-.87.36-.87.84v12.72c0,.48.39.84.87.84h5.17c.49,0,.87-.36.87-.84v-12.72Z"/>
    <path class="st1" d="M45.68,171.39c-2-.61-3.63-1.59-3.63-3.66v-4.65c0-2.07,1.63-3.73,3.7-3.73h7.16c2.07,0,3.73,1.66,3.73,3.73v3.15h-4.07v-2.27c0-.51-.41-.88-.92-.88h-4.61c-.51,0-.92.37-.92.88v2.82c0,.51.41.85.92.98,2,.58,3.7,1.02,6.17,1.73,1.93.54,3.53,1.59,3.53,3.66v5.05c0,2.07-1.63,3.73-3.7,3.73h-7.33c-2.07,0-3.73-1.66-3.73-3.73v-3.09h4.07v2.2c0,.51.41.88.92.88h4.78c.51,0,.92-.37.92-.88v-3.26c0-.51-.37-.81-.92-.95-2.58-.71-3.56-.98-6.07-1.73"/>
    <path class="st1" d="M61.15,178.2v-15.13c0-2.07,1.63-3.73,3.7-3.73h7.97c2.07,0,3.73,1.66,3.73,3.73v15.13c0,2.07-1.66,3.73-3.73,3.73h-7.97c-2.07,0-3.7-1.66-3.7-3.73M72.47,163.96c0-.51-.41-.88-.92-.88h-5.43c-.51,0-.92.37-.92.88v13.36c0,.51.41.88.92.88h5.43c.51,0,.92-.37.92-.88v-13.36Z"/>
    <path class="st1" d="M91.95,174.1h4.07v4.1c0,2.07-1.66,3.73-3.73,3.73h-7.63c-2.07,0-3.7-1.66-3.7-3.73v-15.13c0-2.07,1.63-3.73,3.7-3.73h7.63c2.07,0,3.73,1.66,3.73,3.73v3.9h-4.07v-3.02c0-.51-.41-.88-.91-.88h-5.09c-.51,0-.92.37-.92.88v13.36c0,.51.41.88.92.88h5.09c.51,0,.91-.37.91-.88v-3.22Z"/>
    <path class="st1" d="M111.42,174.1h4.07v4.1c0,2.07-1.66,3.73-3.73,3.73h-7.63c-2.07,0-3.7-1.66-3.7-3.73v-15.13c0-2.07,1.63-3.73,3.7-3.73h7.63c2.07,0,3.73,1.66,3.73,3.73v3.9h-4.07v-3.02c0-.51-.41-.88-.92-.88h-5.09c-.51,0-.92.37-.92.88v13.36c0,.51.41.88.92.88h5.09c.51,0,.92-.37.92-.88v-3.22Z"/>
    <polygon class="st1" points="119.9 159.35 133.6 159.35 133.6 163.08 123.97 163.08 123.97 168.67 132.75 168.67 132.75 172.4 123.97 172.4 123.97 178.2 133.6 178.2 133.6 181.93 119.9 181.93 119.9 159.35"/>
    <path class="st1" d="M146.35,173.22h-4.27v8.72h-4.07v-22.59h11.84c2.07,0,3.73,1.66,3.73,3.73v6.41c0,1.76-1.19,3.22-2.81,3.63l4.34,8.82h-4.48l-4.27-8.72ZM149.51,163.96c0-.51-.41-.88-.92-.88h-6.51v6.41h6.51c.51,0,.92-.37.92-.88v-4.65Z"/>
    <polygon class="st1" points="84.12 189.88 87.55 189.88 87.55 190.37 84.65 190.37 84.65 191.99 87.24 191.99 87.24 192.48 84.65 192.48 84.65 194.14 87.58 194.14 87.58 194.63 84.12 194.63 84.12 189.88"/>
    <path class="st1" d="M88.34,193.94l.33-.39c.49.45.97.67,1.63.67s1.06-.34,1.06-.81h0c0-.45-.24-.7-1.23-.91-1.09-.24-1.59-.59-1.59-1.37h0c0-.76.66-1.31,1.56-1.31.69,0,1.19.2,1.67.58l-.31.41c-.44-.36-.88-.51-1.37-.51-.62,0-1.01.34-1.01.77h0c0,.46.24.71,1.29.93,1.06.23,1.54.62,1.54,1.34h0c0,.83-.68,1.35-1.62,1.35-.75,0-1.37-.25-1.94-.76"/>
    <polygon class="st1" points="94.14 190.38 92.55 190.38 92.55 189.88 96.27 189.88 96.27 190.38 94.68 190.38 94.68 194.63 94.14 194.63 94.14 190.38"/>
    <rect class="st1" x="96.45" y="193.92" width=".62" height=".71"/>
    <polygon class="st1" points="100.83 190.41 99.94 190.68 99.81 190.25 100.96 189.85 101.36 189.85 101.36 194.63 100.83 194.63 100.83 190.41"/>
    <path class="st1" d="M105.46,192.24v-.09c-.3.46-.73.75-1.34.75-.98,0-1.65-.62-1.65-1.47h0c0-.91.7-1.63,1.71-1.63.54,0,.94.18,1.25.49.36.36.59.89.59,1.84h0c0,1.52-.8,2.58-1.97,2.58-.62,0-1.06-.25-1.46-.58l.31-.41c.39.34.75.51,1.16.51.91,0,1.41-.96,1.41-1.98M105.36,191.37h0c0-.62-.49-1.09-1.21-1.09s-1.14.52-1.14,1.11h0c0,.62.47,1.05,1.16,1.05.73,0,1.18-.53,1.18-1.07"/>
    <path class="st1" d="M106.84,192.27h0c0-1.34.79-2.47,2.01-2.47s1.99,1.11,1.99,2.44h0c0,1.34-.79,2.47-2.01,2.47s-2-1.11-2-2.44M110.29,192.27h0c0-1.05-.57-1.98-1.45-1.98s-1.44.91-1.44,1.95h0c0,1.05.57,1.98,1.46,1.98s1.44-.91,1.44-1.95"/>
    <polygon class="st1" points="112.44 190.41 111.55 190.68 111.42 190.25 112.58 189.85 112.97 189.85 112.97 194.63 112.44 194.63 112.44 190.41"/>
    <rect class="st1" x="41.98" y="191.98" width="36.24" height=".54"/>
    <rect class="st1" x="118.86" y="191.98" width="36.24" height=".54"/>
    <path class="st1" d="M156.96,179.81c.59,0,1.06.47,1.06,1.06s-.47,1.06-1.06,1.06-1.06-.47-1.06-1.06.47-1.06,1.06-1.06M157.83,180.87c0-.49-.39-.89-.87-.89s-.87.4-.87.89.39.89.87.89.87-.4.87-.89M156.54,180.26h.48c.27,0,.42.12.42.36,0,.22-.15.32-.33.34l.35.53h-.19l-.34-.52h-.2v.52h-.19v-1.24ZM156.93,180.8c.17,0,.32,0,.32-.19,0-.16-.14-.18-.27-.18h-.26v.38h.2Z"/>
  </g>
</svg>