<?xml version="1.0" encoding="UTF-8"?>
<svg id="Layer_1" xmlns="http://www.w3.org/2000/svg" version="1.1" viewBox="0 0 200 200">
  <!-- Generator: Adobe Illustrator 30.4.0, SVG Export Plug-In . SVG Version: 2.1.4 Build 226)  -->
  <defs>
    <style>
      .st0 {
        fill: #2b7aaf;
      }

      .st1 {
        fill: #1e567c;
      }

      .st2 {
        fill: #529ec2;
      }
    </style>
  </defs>
  <path class="st1" d="M142.16,167.79c.09-.24.95-.27,1.12-.15l-2.8,9.5c-.31.09-.92.09-1.18-.03l-2.4-8.08-2.42,8.19-1.13-.02-2.83-9.57,1.12-.03,2.3,8.1,2.37-8.04,1.19-.06,2.39,8.09,2.27-7.9Z"/>
  <polygon class="st1" points="155.54 177.17 154.27 177.24 148.66 169.05 148.64 177.22 147.63 177.17 147.62 167.61 148.93 167.66 154.52 175.74 154.55 167.62 155.54 167.63 155.54 177.17"/>
  <path class="st1" d="M128.97,177.06c-.25.16-.89.19-1.31.13l-5.55-8.1-.06,8.08-.98.05v-9.63s1.4.09,1.4.09l5.48,7.99.04-8.07h.97s0,9.46,0,9.46Z"/>
  <path class="st1" d="M60.25,172.41c0,2.79-2.26,5.05-5.05,5.05s-5.05-2.26-5.05-5.05,2.26-5.05,5.05-5.05,5.05,2.26,5.05,5.05ZM59.25,172.4c0-2.24-1.81-4.05-4.05-4.05s-4.05,1.81-4.05,4.05,1.81,4.05,4.05,4.05,4.05-1.81,4.05-4.05Z"/>
  <path class="st1" d="M82.79,171.72c.39,2.92-1.61,5.42-4.49,5.47l-3.71.06-.04-9.69,3.81.05c2.35.03,4.11,1.74,4.43,4.11ZM81.79,172.34c-.02-2.1-1.48-3.74-3.47-3.79l-2.77-.08v7.8s3.17-.1,3.17-.1c1.9-.29,3.08-1.84,3.06-3.83Z"/>
  <path class="st1" d="M95.44,177.02c-.23.29-1.11.31-1.36.08l-5.54-8.09-.03,8.11-.97.1v-9.43c.09-.2.92-.36,1.14-.21s.44.46.68.8l5.07,7.32.04-8.1.97.02v9.4Z"/>
  <path class="st1" d="M165.35,172.14c.13,2.64-1.57,4.7-4.13,5.01l-4.13.1v-9.68s3.84.05,3.84.05c2.49.03,4.29,1.97,4.42,4.52ZM164.32,172.14c-.13-2-1.51-3.56-3.43-3.6l-2.82-.05v7.81s2.66-.05,2.66-.05c2.16-.04,3.73-1.87,3.58-4.11Z"/>
  <polygon class="st1" points="102.92 172.65 98.33 172.66 98.34 176.28 103.42 176.3 103.42 177.24 97.32 177.24 97.32 167.56 103.14 167.57 103.12 168.48 98.33 168.48 98.33 171.76 102.93 171.76 102.92 172.65"/>
  <polygon class="st1" points="48.97 177.18 47.97 177.17 47.98 172.66 42.84 172.66 42.82 177.24 41.82 177.23 41.81 167.61 42.83 167.59 42.84 171.76 47.97 171.76 47.98 167.6 48.97 167.63 48.97 177.18"/>
  <path class="st1" d="M118.32,167.61h1.01s-.06,6.5-.06,6.5c-.02,2.06-1.64,3.39-3.57,3.31s-3.38-1.3-3.39-3.34l-.03-6.25c0-.25.9-.34,1-.19l.07,6.45c.01,1.47,1.25,2.37,2.44,2.39,1.36.02,2.48-1.06,2.49-2.56l.04-6.32Z"/>
  <path class="st1" d="M62.51,172.88v4.29s-1.02,0-1.02,0v-9.59s3.46.04,3.46.04c1.44.02,2.41,1.21,2.47,2.45.06,1.36-.81,2.63-2.35,2.7l-2.56.12ZM65.03,171.81c1.03-.05,1.35-1.02,1.32-1.73s-.65-1.49-1.46-1.52l-2.41-.1.03,3.48,2.51-.13Z"/>
  <path class="st1" d="M38.89,176.88c-1.7.97-3.8.69-5.03-.85l.94-.67c.91,1.26,2.48,1.53,3.73.58.31-.23.55-1.06.51-1.47s-.57-1.05-1.02-1.22l-2.34-.86c-.85-.31-1.49-1.22-1.56-1.94-.1-.98.22-1.9,1.05-2.46,1.48-.99,3.41-.86,4.73.47l-.93.7c-.77-.88-1.66-1.04-2.73-.68-.58.2-1.06.79-1.11,1.36-.05.53.35,1.36.88,1.56l2.18.8c.93.34,1.72,1.05,1.85,1.86.17,1.09-.11,2.23-1.14,2.81Z"/>
  <g>
    <g>
      <g>
        <path class="st1" d="M61.27,156.78l-5.12.13-4.47-9.78h-2.48s0,9.77,0,9.77h-4.7s0-24.33,0-24.33l8.12-.03c1.42,0,2.87.27,4.17.69,2.79,1.11,4.18,3.6,4.14,6.51s-1.52,5.66-4.47,6.64l4.83,10.4ZM56.21,139.66c-.04-1.15-1.09-2.48-2.47-2.51l-4.55-.11v5.58c3.26.15,7.14.26,7.02-2.96Z"/>
        <polygon class="st1" points="69.55 150.08 69.52 156.9 64.85 156.84 64.84 132.58 69.52 132.55 69.57 143.69 78.7 132.54 84.41 132.64 74.56 144.83 84.45 156.77 78.46 156.89 71.5 148.23 69.55 150.08"/>
        <path class="st1" d="M21.68,143.33c-1.89,3.92-6.63,4.02-10.98,3.88l-.03,9.68-4.67-.03v-24.29s7.83-.03,7.83-.03c3.31-.01,6.82,1.15,8.02,4.23.8,2.06.84,4.46-.17,6.57ZM15.41,142.54c1.59-.23,2.49-1.53,2.42-2.87-.15-2.84-4.02-2.7-7.14-2.63v5.65c1.59,0,3.15.06,4.73-.16Z"/>
        <path class="st1" d="M34.82,154.18l-7.65-.04-1.1,2.77-4.98-.07,9.36-24.34c.16-.38.39-.56.85-.59l9.6,24.9-5,.09-1.07-2.75ZM33.33,150.04l-2.37-7.06-2.35,7.06h4.72Z"/>
      </g>
      <g>
        <polygon class="st1" points="192.09 146.84 183.94 146.89 183.95 152.38 193.97 152.39 194.01 156.93 179.24 156.91 179.19 132.54 193.83 132.55 193.82 137.02 183.95 137.04 183.95 142.4 192.09 142.44 192.09 146.84"/>
        <path class="st1" d="M110.5,146.88c-1.98.39-3.89.34-6.11.32l-.05,9.69h-4.69s0-24.33,0-24.33h8.29c1.2-.02,2.51.3,3.61.6,3.04.95,4.57,3.53,4.62,6.6.06,3.52-2,6.39-5.66,7.12ZM111.52,139.66c-.16-2.84-4.05-2.71-7.16-2.61v5.64c3.39.13,7.34.22,7.16-3.03Z"/>
        <path class="st1" d="M167.1,152.55c2.14.01,3.77-.75,5.25-2.26l3.22,2.93c-1.09,1.66-4.17,3.24-6.02,3.72-2.97.77-5.91.07-8.53-1.27-4-2.05-6.24-5.76-6.36-10.25-.1-3.5.71-6.82,3.16-9.45,3.92-4.21,10.34-5,15.29-2.1.96.57,1.63,1.2,2.37,2.08l-3.08,3.16c-1.65-1.82-3.81-2.54-6.21-2.35-2.89.22-5.36,1.92-6.25,4.72-.76,2.36-.72,5.01.45,7.24,1.27,2.42,3.91,3.82,6.72,3.84Z"/>
        <path class="st1" d="M150.05,154.18h-7.73s-1.15,2.75-1.15,2.75l-4.79-.11,9.61-24.89c.48,0,.69.19.85.6l9.28,24.27-4.97.12-1.09-2.73ZM148.62,150.09l-2.36-7.17-2.48,7.16h4.84Z"/>
        <polygon class="st1" points="133.25 152.39 133.28 156.9 119.74 156.93 119.74 132.59 124.47 132.62 124.48 152.37 133.25 152.39"/>
      </g>
    </g>
    <g>
      <path class="st1" d="M91.9,117.61h-25.26s.74-15.23.74-15.23c5.22-.53,10.13-1.57,14.98-3.27l5.35-2.29c1.86,1.03,3.72,2.24,5.35,3.75,4.01,3.71,2.03,12.22-1.16,17.03Z"/>
      <path class="st1" d="M110.42,117.61c-3.05-4.6-5.18-12.84-1.38-16.77,1.61-1.66,3.59-2.87,5.56-4.03,2.82,1.39,5.51,2.42,8.49,3.29,3.92,1.14,7.83,1.87,11.84,2.29l.74,15.23h-25.25Z"/>
      <path class="st1" d="M104.1,27.64c-1.46-.38-2.81-.36-4.16-.28-4.23.24-7.41,3.59-7.41,7.83v14.03s2.29.03,2.29.03c.01,2.11-.29,3.98-.99,6.14l-1.83-1.98-4.04-4.03-.02-15.02c0-2.7.92-5.08,2.58-7.14,2.65-3.28,6.52-4.69,10.7-4.67s7.83,1.29,10.49,4.48c1.61,1.93,2.69,4.28,2.7,6.91l.02,15.44-5.88,5.99c-.66-2.03-1-4.04-1.06-6.12l2.34-.03-.04-14.46c0-3.35-2.44-6.27-5.68-7.12Z"/>
      <path class="st2" d="M96.8,96.03c-4.15-1.05-7.98-2.51-11.79-4.38-3.08-1.54-5.88-3.31-8.48-5.55.67-5.02.75-9.79.38-15.07,4.16,3.18,7.77,6.6,11.21,10.35,3.73,4.08,7.5,9.11,8.69,14.64Z"/>
      <path class="st0" d="M105.84,96.2c.1-1.8.77-3.25,1.47-4.87,2.14-4.26,5-7.91,8.27-11.4,3.02-3.27,6.11-6.28,9.77-9.05-.34,5.27-.31,10.14.44,15.26-3.36,2.73-6.98,4.89-10.9,6.71-2.95,1.31-5.72,2.39-9.05,3.34Z"/>
      <path class="st1" d="M87.85,75.33c-3.71-3.25-7.42-6-11.48-8.63l-1.87-7.92c-1.15-3.36-2.5-6.47-4.55-9.45h11c.92,4.93,1.92,9.66,3.12,14.5,1.04,3.94,2.24,7.57,3.77,11.51Z"/>
      <path class="st1" d="M126.01,66.64c-4.03,2.68-7.77,5.32-11.52,8.68,1.4-3.67,2.8-7.21,3.65-11.08l3.26-14.92h10.94c-1.77,2.7-2.99,5.27-4.07,8.11-.98,3-1.69,5.92-2.26,9.21Z"/>
      <path class="st0" d="M105.97,59.42c-2.34,3.54-3.82,7.14-4.82,11.08-.92-4.14-2.53-7.62-4.79-11.04,1.51-3.25,2.15-6.63,2.06-10.16h5.53c-.13,3.46.56,6.74,2.02,10.13Z"/>
      <path class="st1" d="M98.01,88.27l-3.72-6.3c-1.34-4.11-2.91-7.95-4.53-11.99,1.87-2.01,3.45-3.93,4.88-6.37,1.93,2.79,2.82,6.04,3.31,9.46.63,4.99.63,9.8.07,15.2Z"/>
      <path class="st2" d="M107.96,82.06l-3.66,6.32c-.49-5.24-.58-10.28.12-15.41.44-3.33,1.35-6.37,3.24-9.38,1.38,2.32,2.97,4.4,4.89,6.41l-4.6,12.07Z"/>
      <path class="st0" d="M82.95,94.81c-5.15,2.05-10.17,3.23-15.43,3.64l.72-13.62c4.53,4.27,9.31,7.31,14.71,9.98Z"/>
      <path class="st2" d="M134.79,98.44c-5.34-.41-10.32-1.72-15.47-3.62,5.38-2.67,10.19-5.63,14.77-9.95l.7,13.57Z"/>
      <path class="st1" d="M133.86,79.49l-4.9,4.67c-.65-5.2-.52-10.22.1-15.37l4.16-1.88.63,12.59Z"/>
      <path class="st0" d="M73.37,84.16l-4.88-4.63.61-12.65c1.52.55,2.8,1.17,4.15,1.94.61,5.09.74,9.92.12,15.34Z"/>
      <path class="st1" d="M113.82,65.54c-1.74-1.94-2.99-3.83-3.99-6.14l4.18-4.71c.69-.78,1.48-1.32,2.62-1.75-.59,4.37-1.56,8.33-2.81,12.6Z"/>
      <path class="st2" d="M92.5,59.4c-1.05,2.35-2.3,4.27-3.99,6.09-1.25-4.31-2.18-8.2-2.81-12.56l1.93,1.07c1.76,1.66,3.3,3.35,4.86,5.4Z"/>
      <path class="st1" d="M72.55,64.5l-3.27-1.1.38-8.19c1.66,2.96,2.18,5.91,2.89,9.3Z"/>
      <path class="st0" d="M133.04,63.35l-3.3,1.18c.66-3.31,1.35-6.38,2.9-9.34l.4,8.15Z"/>
    </g>
  </g>
  <rect class="st1" x="84.72" y="167.56" width="1" height="9.7"/>
  <rect class="st1" x="144.86" y="167.57" width="1" height="9.69"/>
  <circle class="st1" cx="67.88" cy="176.54" r=".77"/>
  <circle class="st1" cx="105.56" cy="176.55" r=".78"/>
  <circle class="st1" cx="167.22" cy="176.54" r=".77"/>
</svg>