<?xml version="1.0" encoding="UTF-8"?>
<svg id="Layer_1" xmlns="http://www.w3.org/2000/svg" version="1.1" viewBox="0 0 200 200">
  <!-- Generator: Adobe Illustrator 30.4.0, SVG Export Plug-In . SVG Version: 2.1.4 Build 226)  -->
  <defs>
    <style>
      .st0 {
        fill: #f7f5ee;
      }

      .st1 {
        fill: #0043ff;
      }

      .st2 {
        fill: #600;
      }

      .st3 {
        fill: #fff;
      }

      .st4 {
        fill: #000e35;
      }

      .st5 {
        fill: #ff1200;
      }
    </style>
  </defs>
  <g>
    <path d="M178.04,106.33l10.93-17.79h-10.5l-6.25,11.19-6.25-11.19h-10.93l10.93,17.44-7.46,12.15-10.06-29.58h-11.89l-10.67,31.15v-31.15h-11.28l-8.16,24.81-8.16-24.81h-3.99l-7.37,14.23v22.56h8.76v-21.69l7.03,21.69h7.03l7.11-21.78v21.78h16.83l2.26-7.03h12.75l2.17,7.03h13.71l7.11-12.84,7.63,12.84h11.02l-12.41-18.91.09-.09ZM138.3,110.41l4.08-13.71,4.08,13.71h-8.24.09Z"/>
    <g>
      <path d="M86.94,96.27v-7.72h-25.33v36.7h13.62l3.99-7.72h-7.98v-7.03h11.63l4.08-7.81h-15.7v-6.51h15.7v.09Z"/>
      <path d="M49.03,104.08c-.87.78-2.34,1.21-4.42,1.21h-4.95v-9.28h4.86c2.17,0,3.64.35,4.51,1.13s1.3,1.91,1.3,3.47-.43,2.78-1.3,3.56v-.09ZM53.97,110.58c3.73-2.17,5.64-5.64,5.64-10.41s-1.13-6.42-3.47-8.5-5.99-3.12-11.11-3.12h-14.75v36.7h9.28v-12.67h5.73l6.16,12.67h10.15l-7.63-14.75v.09Z"/>
    </g>
    <path d="M194.44,90.11c0,.95-.69,1.56-1.56,1.56s-1.56-.61-1.56-1.56.69-1.56,1.56-1.56,1.56.61,1.56,1.56ZM194.18,90.11c0-.78-.61-1.3-1.21-1.3s-1.21.52-1.21,1.3.61,1.3,1.21,1.3,1.21-.52,1.21-1.3ZM193.31,90.2l.35.69h-.43l-.35-.61h-.17v.61h-.43v-1.65h.69c.43,0,.61.17.61.52s-.09.35-.35.43h.09ZM192.7,89.94h.26c.17,0,.26,0,.26-.26s-.09-.26-.26-.26h-.26v.52Z"/>
  </g>
  <g>
    <path class="st3" d="M17.1,100.87c-.43,0-.78-.26-1.13-.52-2.08-1.74-5.73-4.95-7.11-6.77-1.21-1.47-2.34-2.86-2.86-4.68-.35-1.04-.43-2.08-.43-3.12s.26-2.78.78-4.08c1.74-4.25,5.99-7.03,10.76-7.03s9.02,2.78,10.76,7.11c.52,1.3.78,2.69.78,4.08s-.17,2.08-.43,3.12c-.52,1.74-1.56,3.12-2.86,4.68-1.47,1.74-5.12,4.95-7.11,6.68-.35.26-.69.52-1.13.52Z"/>
    <g>
      <g>
        <path class="st0" d="M27.34,81.95H6.86c-.52,1.21-.78,2.52-.78,3.82s.17,2,.43,2.95h21.08c.26-.95.43-1.91.43-2.95s-.26-2.69-.78-3.82h.09Z"/>
        <path class="st2" d="M17.1,75.27c-4.68,0-8.68,2.78-10.24,6.68h20.48c-1.56-3.9-5.55-6.68-10.24-6.68Z"/>
      </g>
      <path class="st4" d="M6.52,88.81c.52,1.74,1.65,3.12,2.78,4.51,1.47,1.82,5.55,5.38,7.11,6.77h0c.17.17.43.35.69.35s.43-.17.69-.35h0c1.56-1.39,5.64-4.95,7.11-6.77,1.13-1.39,2.26-2.78,2.78-4.51,0,0-21.17,0-21.17,0Z"/>
      <path class="st5" d="M27.34,81.95h-10.24v-4.86c0-1.04.95-1.82,2-1.65,3.82.69,6.94,3.21,8.24,6.51Z"/>
      <path class="st1" d="M27.6,88.81c-.52,1.74-1.65,3.12-2.78,4.51-1.47,1.82-5.55,5.38-7.11,6.77h0c-.17.17-.43.35-.69.35v-9.8c0-.95.78-1.74,1.74-1.74h8.76l.09-.09Z"/>
    </g>
  </g>
</svg>