<?xml version="1.0" encoding="UTF-8"?>
<svg id="Layer_1" xmlns="http://www.w3.org/2000/svg" version="1.1" viewBox="0 0 200 200">
  <!-- Generator: Adobe Illustrator 30.4.0, SVG Export Plug-In . SVG Version: 2.1.4 Build 226)  -->
  <defs>
    <style>
      .st0 {
        fill: #ec1c24;
      }
    </style>
  </defs>
  <path class="st0" d="M35.27,90.46c.03-.49.05-.97.05-1.44,0-3.93-1.07-6.98-3.18-9.07-3.32-3.27-7.96-2.96-8.16-2.95h-13.55s-5.58,47.28-5.58,47.28h11.41s1.14-9.79,1.35-11.61c.78,2.18,2.49,7.59,3.67,11.39l.06.2h14.41s-8.23-18.16-8.44-18.62c7.57-4.09,7.95-15.07,7.95-15.18ZM23.49,92.8c-.38,3.13-2.09,3.59-3.78,3.52.06-.55.75-6.46.79-6.85.44-.05,1.5-.1,2.22.54.62.55.88,1.49.77,2.8ZM182.31,90.32c0-.15,0-.3,0-.3,0,0,0-.22,0-.42.55,0,11.26-.01,11.26-.01l1.59-13.41-19.46.02-6.84,29.23.61-.4s4.96-3.29,8.64-3.29c2.83,0,4.14,2.26,4.2,4.51.06,2.59-1.49,5.28-4.54,5.41-1.81.08-4.75-.77-8.46-5.27l-.37-.45-3.36,14.65.12.11c3.19,2.97,8.75,4.93,12.93,4.57,9.92-.86,14.22-10.1,14.89-17.74.55-6.36-.61-11.25-3.37-14.16-1.93-2.03-4.63-3.08-7.82-3.03ZM97.34,108.59c-2.86,2.29-6.7,3.34-9.56,2.6-2-.52-3.5-1.87-4.34-3.92-1.69-4.13-.79-10.47,2.05-14.45,1.62-2.28,3.71-3.47,6.03-3.47,2.72,0,5.57,1.74,7.62,4.64l.43.6,2.09-16.22-.09-.1c-.11-.12-2.66-2.84-8.82-3.08h0c-5.58-.22-15.78,3.47-19.78,18.27-.98-9.98-6.84-17.07-14.98-17.87-5.3-.52-10.6,1.42-14.92,5.45-4.4,4.11-7.48,10.17-8.68,17.06-1.47,8.5-.05,16.31,3.91,21.44,2.68,3.47,6.35,5.49,10.64,5.85,10.18.86,19.1-6.55,22.64-18.58.52,7.36,3.35,17.87,15.21,18.28.19.01,4.99.35,9.13-1.92l.13-.07,1.84-14.96-.55.44ZM60.74,101.44h0c-.97,5.63-5.03,9.79-9.04,9.25-1.5-.2-2.84-1.03-3.85-2.41-1.6-2.17-2.21-5.44-1.64-8.74.97-5.63,5.03-9.79,9.04-9.25,1.51.2,2.84,1.03,3.86,2.42,1.6,2.17,2.21,5.44,1.64,8.74ZM122.04,76.41l-.08.18c-.21.42-5.54,8.48-8.66,13.18.24-2.02,1.62-13.35,1.62-13.35h-11.81s-5.76,47.42-5.76,47.42h11.82s1.52-12.56,1.73-14.29c.75,1.6,6.69,14.27,6.69,14.27h14.51s-11.98-24.17-12.14-24.48c.21-.28,16.81-22.93,16.81-22.93h-14.73ZM169.94,91.56s-.02-.27-.03-.43c.02-.34.04-.68.04-1.01,0-8.26-4.77-14.95-11.3-15.51-10.67-.92-17.09,8.28-18.54,17.23-.2,1.22-.31,2.54-.31,3.91,0,4.17,1.02,8.71,3.55,11.63,1.7,1.97,3.91,2.99,6.55,3.07-.6.83-9.55,13.2-9.55,13.2h13.19s.09-.12.09-.12c.68-.84,16.34-20.4,16.34-31.25,0-.24,0-.47-.02-.71ZM158.69,93.3h0c-.61,2.88-2.7,4.98-4.64,4.67-.69-.11-1.29-.51-1.74-1.17-.78-1.13-1.02-2.84-.64-4.58.62-2.88,2.7-4.98,4.64-4.67.69.11,1.29.51,1.75,1.17.77,1.13,1.01,2.83.64,4.57Z"/>
</svg>