<?xml version="1.0" encoding="UTF-8"?>
<svg id="Layer_1" xmlns="http://www.w3.org/2000/svg" version="1.1" viewBox="0 0 600 600">
  <!-- Generator: Adobe Illustrator 30.4.0, SVG Export Plug-In . SVG Version: 2.1.4 Build 226)  -->
  <defs>
    <style>
      .st0 {
        fill: #e12726;
      }
    </style>
  </defs>
  <g>
    <polygon class="st0" points="315.77 298.2 300.17 286.83 284.4 298.2 290.4 279.83 274.8 268.45 294.15 268.45 300.17 249.91 306.17 268.45 325.53 268.45 309.75 279.83 315.77 298.2"/>
    <polygon class="st0" points="300 221.46 310.57 243.74 324.71 204.55 315.28 204.55 309.11 222.76 300 204.06 290.73 222.76 284.55 204.55 275.29 204.55 289.26 243.74 300 221.46"/>
    <path class="st0" d="M349.11,281.62c0,27.15-22.11,49.11-49.11,49.11s-49.11-22.11-49.11-49.11v-67.32c0-27.15,22.11-49.11,49.11-49.11s49.11,22.11,49.11,49.11v67.32ZM300,158.04c-31.06,0-56.26,25.2-56.26,56.26v67.32c0,31.06,25.2,56.26,56.26,56.26s56.26-25.2,56.26-56.26v-67.32c0-31.06-25.38-56.26-56.26-56.26"/>
    <path class="st0" d="M334.81,281.62c0,19.18-15.6,34.81-34.81,34.81s-34.81-15.6-34.81-34.81v-67.32c0-19.18,15.6-34.81,34.81-34.81s34.81,15.6,34.81,34.81v67.32ZM300,172.35c-23.09,0-41.95,18.86-41.95,41.95v67.32c0,23.09,18.86,41.95,41.95,41.95s41.95-18.86,41.95-41.95v-67.32c0-23.09-18.86-41.95-41.95-41.95"/>
    <polygon class="st0" points="315.6 298.2 300 286.83 284.23 298.2 290.25 279.83 274.62 268.45 293.98 268.45 300 249.91 305.85 268.45 325.38 268.45 309.6 279.83 315.6 298.2"/>
  </g>
  <g>
    <path d="M30,374.32h15.28l10.42,31.38,15.13-32.2,15.13,32.2,10.42-31.38h15.28l-23.24,67.64-17.56-38.55-17.56,38.55-23.24-67.64h-.05Z"/>
    <path d="M113.09,407.81c0-18.86,15.28-34.15,34.15-34.15s34.15,15.28,34.15,34.15-15.45,34.15-34.15,34.15c-18.7.17-34.15-15.28-34.15-34.15h0ZM166.43,407.81c0-10.74-8.13-19.67-19.02-19.67s-19.02,8.95-19.02,19.67,8.13,19.67,19.02,19.67,19.02-8.95,19.02-19.67Z"/>
    <path d="M189.19,407.81c0-18.86,15.45-34.15,34.15-34.15s34.15,15.28,34.15,34.15-15.28,34.15-34.15,34.15c-18.86.17-34.15-15.28-34.15-34.15ZM242.36,407.81c0-10.74-8.13-19.67-19.02-19.67s-19.02,8.95-19.02,19.67,8.13,19.67,19.02,19.67,19.02-8.95,19.02-19.67Z"/>
    <path d="M267.07,374.32h23.41c18.86,0,33.98,14.96,33.98,33.49s-15.13,33.49-33.98,33.49h-23.41v-67h0ZM290.66,427.48c11.22,0,18.86-8.95,18.86-19.67s-7.64-19.67-18.86-19.67h-8.46v39.35h8.46Z"/>
    <path d="M334.07,374.32h25.2c10.89,0,19.85,8.95,19.85,19.85,0,4.72-1.79,8.62-4.72,11.54,5.69,3.1,9.43,8.46,9.43,15.6,0,11.06-8.95,19.85-20.32,19.85h-29.43v-66.83h.01-.01ZM357.65,401.46c4.06,0,7-2.93,7-6.68s-2.93-6.68-7-6.68h-8.46v13.33h8.46v.02ZM362.2,427.48c4.06,0,7-2.93,7-6.68s-2.93-6.68-7-6.68h-13v13.33h13v.02Z"/>
    <path d="M392.61,374.32h15.13v67h-15.13v-67h0Z"/>
    <path d="M435.53,406.35v34.96h-15.13v-67.64l42.28,35.77v-35.13h15.13v67.64l-42.28-35.62h0Z"/>
    <path d="M488.72,374.32h41.46v14.96h-26.34v11.38h20.81v14.47h-20.81v11.38h26.34v14.96h-41.46v-67.16h0Z"/>
    <path d="M545.95,376.75h-5.04v-2.28h12.36v2.28h-4.89v12.21h-2.43v-12.21h0Z"/>
    <path d="M555.7,374.32l7.15,7.64,7.15-7.64v14.8h-2.43v-8.95l-4.89,5.21-4.89-5.21v8.95h-2.43v-14.8h.33Z"/>
  </g>
</svg>