<?xml version="1.0" encoding="UTF-8"?>
<svg id="Layer_1" xmlns="http://www.w3.org/2000/svg" xmlns:xlink="http://www.w3.org/1999/xlink" version="1.1" viewBox="0 0 200 200">
  <!-- Generator: Adobe Illustrator 30.4.0, SVG Export Plug-In . SVG Version: 2.1.4 Build 226)  -->
  <defs>
    <style>
      .st0 {
        fill: none;
      }

      .st1, .st2 {
        fill: #231f20;
      }

      .st2 {
        stroke-width: .1px;
      }

      .st2, .st3 {
        stroke: #fff;
      }

      .st4 {
        fill: url(#radial-gradient);
      }

      .st5 {
        fill: url(#linear-gradient);
      }

      .st3, .st6, .st7 {
        fill: #fff;
      }

      .st3, .st7 {
        stroke-width: .19px;
      }

      .st8 {
        fill: url(#New_Gradient_Swatch_1);
      }

      .st7 {
        stroke: #231f20;
      }
    </style>
    <radialGradient id="New_Gradient_Swatch_1" data-name="New Gradient Swatch 1" cx="610.52" cy="614.58" fx="610.52" fy="614.58" r="31.37" gradientTransform="translate(-1066.3778 -549.3067) rotate(-.2539) scale(1.8962 1)" gradientUnits="userSpaceOnUse">
      <stop offset="0" stop-color="#ec1c24"/>
      <stop offset="1" stop-color="#961b1e"/>
    </radialGradient>
    <radialGradient id="radial-gradient" cx="610.39" cy="-274.14" fx="610.39" fy="-274.14" r="31.87" gradientTransform="translate(-1064.5121 -128.3577) rotate(-.2539) scale(1.8962 -1)" gradientUnits="userSpaceOnUse">
      <stop offset="0" stop-color="#008ed3"/>
      <stop offset="1" stop-color="#002f87"/>
    </radialGradient>
    <linearGradient id="linear-gradient" x1="1452.32" y1="604.64" x2="1543.12" y2="695.43" gradientTransform="translate(-1399.9999 -551.9998)" gradientUnits="userSpaceOnUse">
      <stop offset="0" stop-color="#fff100"/>
      <stop offset="1" stop-color="#fcba30"/>
    </linearGradient>
  </defs>
  <polygon class="st6" points="190.59 80.14 184.07 80.17 99.55 62.15 16.02 80.92 10.21 80.94 10.38 120.16 16.06 120.13 99.54 137.64 183.89 119.39 190.76 119.36 190.59 80.14"/>
  <g>
    <polygon class="st0" points="189.92 119.56 189.76 81.54 184.08 81.57 184.02 81.57 183.95 81.56 99.56 63.56 16.16 82.3 16.1 82.31 16.03 82.31 11.62 82.33 11.78 120.35 16.06 120.33 16.12 120.33 16.19 120.35 99.55 137.82 183.78 119.6 183.84 119.59 183.9 119.59 189.92 119.56"/>
    <path d="M190.35,80.34l-6.22.03-84.46-18.01-.13-.03-.13.03L15.96,81.12l-4.94.02h-.6s0,.6,0,.6l.17,39.22v.6s.6,0,.6,0l4.81-.02,83.42,17.49.12.03.12-.03,84.29-18.24,6.57-.03h.6s0-.6,0-.6l-.17-39.22v-.6s-.6,0-.6,0ZM183.78,119.6l-84.23,18.22-83.36-17.48h-.06s-.07-.01-.07-.01l-4.28.02-.17-38.02,4.41-.02h.07s.07-.02.07-.02l83.4-18.74,84.39,18h.06s.06.01.06.01l5.68-.03.17,38.02-6.03.03h-.06s-.06.01-.06.01Z"/>
  </g>
  <rect class="st1" x="15.13" y="84.77" width="171.3" height="32.26" transform="translate(-.45 .45) rotate(-.25)"/>
  <g>
    <polygon class="st1" points="31.16 81.96 167.48 81.36 100.31 67.31 31.16 81.96"/>
    <polygon class="st1" points="31.55 119.65 166.89 119.05 100.15 135.03 31.55 119.65"/>
  </g>
  <rect class="st2" x="13.84" y="83.5" width="171.3" height="32.26" transform="translate(-.44 .44) rotate(-.25)"/>
  <g>
    <path class="st3" d="M25.34,110.09l9.63-20.66-8.98.04-.02-3.57,13.43-.06v3.17s-9.61,20.65-9.61,20.65l9.72-.04.02,3.46-14.17.06v-3.05Z"/>
    <path class="st3" d="M48.97,85.8l11.93-.05.02,3.57-7.88.03.03,7.62,5.63-.02.02,3.39-5.63.02.04,9.2,8.28-.04.02,3.46-12.33.05-.12-27.24Z"/>
    <path class="st3" d="M70.06,85.71l4.34-.02,5.32,13.63c.82,2.13,1.45,3.86,1.94,5.37h.07s-.08-19.03-.08-19.03h3.24s.12,27.22.12,27.22l-3.46.02-6.22-15.43c-.71-1.73-1.64-4.3-1.9-5.18h-.11s.09,20.65.09,20.65h-3.24s-.12-27.22-.12-27.22Z"/>
    <path class="st3" d="M94.05,85.6l11.92-.05.02,3.57-7.88.03.03,7.62,5.63-.02.02,3.39-5.63.02.04,9.2,8.28-.04.02,3.46-12.33.05-.12-27.24Z"/>
    <path class="st3" d="M119.64,89.06l-5.15.02-.02-3.57,14.32-.06.02,3.57-5.12.02.1,23.67-4.05.02-.1-23.67Z"/>
    <path class="st3" d="M138.03,85.41l11.93-.05.02,3.57-7.88.03.03,7.62,5.63-.02.02,3.39-5.63.02.04,9.2,8.28-.04.02,3.46-12.33.05-.12-27.24Z"/>
    <path class="st3" d="M159.06,98.93c-.04-9.86,2.99-13.96,8.07-13.99,4.9-.02,6.86,3.43,7.37,9.35l-3.83.42c-.46-4.27-1.39-6.1-3.52-6.09-2.91.01-4.07,3.4-4.04,10.25.03,7.03,1.26,10.41,4.17,10.4,2.25,0,3.23-1.74,3.73-6.38l3.83.35c-.67,5.45-2.57,9.54-7.54,9.57-5.23.02-8.19-3.94-8.23-13.88Z"/>
  </g>
  <g>
    <path class="st7" d="M24.33,109.38l9.63-20.66-8.98.04-.02-3.57,13.43-.06v3.17s-9.61,20.65-9.61,20.65l9.72-.04.02,3.46-14.17.06v-3.05Z"/>
    <path class="st7" d="M47.96,85.09l11.93-.05.02,3.57-7.88.03.03,7.62,5.63-.02.02,3.39-5.63.02.04,9.2,8.28-.04.02,3.46-12.33.05-.12-27.24Z"/>
    <path class="st7" d="M69.04,85l4.34-.02,5.32,13.63c.82,2.13,1.45,3.86,1.94,5.37h.07s-.08-19.03-.08-19.03h3.24s.12,27.22.12,27.22l-3.46.02-6.22-15.43c-.71-1.73-1.64-4.3-1.9-5.18h-.11s.09,20.65.09,20.65h-3.24s-.12-27.22-.12-27.22Z"/>
    <path class="st7" d="M93.04,84.89l11.92-.05.02,3.57-7.88.03.03,7.62,5.63-.02.02,3.39-5.63.02.04,9.2,8.28-.04.02,3.46-12.33.05-.12-27.24Z"/>
    <path class="st7" d="M118.63,88.35l-5.15.02-.02-3.57,14.32-.06.02,3.57-5.12.02.1,23.67-4.05.02-.1-23.67Z"/>
    <path class="st7" d="M137.01,84.7l11.93-.05.02,3.57-7.88.03.03,7.62,5.63-.02.02,3.39-5.63.02.04,9.2,8.28-.04.02,3.46-12.33.05-.12-27.24Z"/>
    <path class="st7" d="M158.05,98.22c-.04-9.86,2.99-13.96,8.07-13.99,4.9-.02,6.86,3.43,7.37,9.35l-3.83.42c-.46-4.27-1.39-6.1-3.52-6.09-2.91.01-4.07,3.4-4.04,10.25.03,7.03,1.26,10.41,4.17,10.4,2.25,0,3.23-1.74,3.73-6.38l3.83.35c-.67,5.45-2.57,9.54-7.54,9.57-5.23.02-8.19-3.94-8.23-13.88Z"/>
  </g>
  <polygon class="st8" points="30.5 80.87 166.82 80.26 99.65 66.22 30.5 80.87"/>
  <polygon class="st4" points="30.89 118.56 166.23 117.96 99.49 133.94 30.89 118.56"/>
  <g>
    <polygon class="st0" points="188.46 118.2 188.29 80.95 184.07 80.97 183.97 80.97 183.87 80.95 99.56 62.97 16.25 81.69 16.14 81.72 16.03 81.72 10.85 81.74 11.02 118.98 16.05 118.96 16.16 118.96 16.27 118.98 99.54 136.44 183.69 118.24 183.79 118.22 183.89 118.22 188.46 118.2"/>
    <path class="st5" d="M189.27,78.98l-5.1.02-84.42-18.01-.21-.04-.21.05L15.9,79.75l-6.05.03h-.99s0,.99,0,.99l.17,39.22v.98s.99,0,.99,0l5.91-.03,83.38,17.48.21.04.21-.04,84.26-18.23,5.45-.02h.99s0-.99,0-.99l-.17-39.22v-.98s-.99,0-.99,0ZM183.69,118.24l-84.15,18.21-83.28-17.46-.11-.02h-.11s-5.03.02-5.03.02l-.17-37.24,5.17-.02h.11s.11-.03.11-.03l83.31-18.72,84.31,17.98.1.02h.1s4.22-.02,4.22-.02l.17,37.24-4.57.02h-.1s-.1.02-.1.02Z"/>
  </g>
</svg>