<?xml version="1.0" encoding="UTF-8"?>
<svg id="Layer_1" xmlns="http://www.w3.org/2000/svg" version="1.1" viewBox="0 0 128 128">
  <!-- Generator: Adobe Illustrator 29.5.0, SVG Export Plug-In . SVG Version: 2.1.0 Build 137)  -->
  <defs>
    <style>
      .st0 {
        fill: none;
      }

      .st1 {
        fill: #ea0029;
      }
    </style>
  </defs>
  <path class="st0" d="M263.65,41.5c-9.86.4-19.55,2.75-28.5,6.9l24.2-65.7c.7-2,1.9-3.2,3.4-3.2h29c1.5,0,2.7,1.2,3.4,3.2l24.2,65.7s-11.6-7-28.5-7l-10.6-32.9c-.4-1.7-1.6-2.8-2.9-2.8s-2.5,1.1-2.9,2.7l-10.8,33.1ZM258.35,49.5c-2,6.6-.6,15.8,4.2,20.2.06-.23.13-.47.2-.7.5-2.72,2.94-4.65,5.7-4.5,2.8.1,4.3,1.5,4.7,4.7.2,1.1.2,2.3.2,3.5v.4c0,2.7.7,5.2,2.2,7.4,1.38,2.16,3.36,3.86,5.7,4.9v-.3l-.2-.3c-1.8-5.6-.5-9.5,4.4-12.8l1.5-1c1.09-.7,2.15-1.44,3.2-2.2,3.81-2.64,6.29-6.79,6.8-11.4.3-2,.1-4-.6-6l-.8.6-1.6,1c-7,3.21-14.83,4.15-22.4,2.7-5-.7-9.7-2-13.2-6.2Z"/>
  <g>
    <path class="st1" d="M21.12,98.66c1.79-.21,3.54-.42,5.29-.63,2.2-.26,4.39-.54,6.59-.81,2.28-.28,4.56-.54,6.84-.83l5.45.04c1.83.25,3.66.44,5.49.66,1.83.22,3.66.45,5.49.67.67.08,1.33.16,2,.24-12.09-5.45-20.65-18.96-20.65-34.77"/>
    <path class="st1" d="M37.6,63.24c0-9.99,3.42-19.05,8.98-25.75-1.32-2.57-2.63-5.13-3.95-7.7-.07-.14-.14-.27-.24-.45-.08.14-.13.23-.17.32-1.6,3.12-3.2,6.25-4.81,9.37-.62,1.21-1.23,2.41-1.86,3.62-.48.92-1.14,1.33-2.03,1.2-.45-.07-.9-.22-1.31-.43-1.22-.62-2.41-1.29-3.62-1.94-.54-.29-1.07-.58-1.64-.89,0,.1,0,.16.01.22.19,1.06.38,2.12.57,3.18.57,3.17,1.15,6.34,1.72,9.5.46,2.54.92,5.08,1.37,7.62.12.7.24,1.39.09,2.11-.18.86-.79,1.3-1.61,1.13-.56-.12-.99-.44-1.35-.87-2.34-2.74-4.67-5.47-7.01-8.21-.59-.69-1.17-1.37-1.78-2.08-.04.13-.07.21-.09.3-.43,1.56-.85,3.13-1.28,4.69-.3,1.09-1.11,1.59-2.22,1.34-2.89-.63-5.79-1.28-8.68-1.92-.69-.15-1.37-.29-2.09-.45.02.09.03.13.04.17.58,2.21,1.16,4.41,1.73,6.62.54,2.07,1.08,4.14,1.59,6.22.25,1-.03,1.58-.84,1.97-.96.46-1.92.93-2.88,1.39-.42.21-.85.41-1.3.64.11.1.18.18.26.24,4.99,4.24,9.98,8.48,14.97,12.72,1.23,1.04,2.47,2.08,3.69,3.14.88.77,1.15,1.74.84,2.86-.23.84-.49,1.67-.73,2.5-.29,1-.58,1.99-.88,3.03"/>
    <path class="st1" d="M79.91,41.94c3.33-1.67,7.08-2.63,11.06-2.63s7.73.96,11.06,2.63h14.88c-6.25-7.34-15.54-12.01-25.93-12.01s-19.68,4.67-25.93,12.01h14.88Z"/>
    <path class="st1" d="M120.67,47.35h-11.5c4.03,4.4,6.51,10.24,6.51,16.67,0,13.65-11.06,24.71-24.71,24.71s-24.71-11.06-24.71-24.71c0-6.43,2.48-12.28,6.51-16.67h-11.5c-2.77,4.93-4.36,10.6-4.36,16.65,0,18.81,15.25,34.06,34.06,34.06s34.06-15.25,34.06-34.06c0-6.05-1.59-11.73-4.36-16.65"/>
    <path class="st1" d="M58.59,41.94c4.43-5.86,10.39-10.3,16.92-11.96-10.06-.21-19.14,4.5-25.21,11.96h8.28Z"/>
    <path class="st1" d="M50.85,62.59c.27-5.28,1.83-10.52,4.32-15.24h-8.46c-2.45,4.57-3.93,9.78-4.09,15.32-.55,18.98,14.33,35.61,32.89,35.39-13.11-4.49-25.48-19.36-24.67-35.47"/>
  </g>
</svg>