<?xml version="1.0" encoding="UTF-8"?>
<svg id="Layer_1" xmlns="http://www.w3.org/2000/svg" version="1.1" viewBox="0 0 420 340">
  <!-- Generator: Adobe Illustrator 29.7.1, SVG Export Plug-In . SVG Version: 2.1.1 Build 8)  -->
  <defs>
    <style>
      .st0 {
        fill: #1c355e;
      }

      .st1 {
        fill: #416ba9;
      }

      .st2 {
        fill: #ec1c3a;
      }
    </style>
  </defs>
  <g>
    <path class="st0" d="M32.16,281.87c3.11,0,5.77.56,7.99,1.67,2.21,1.12,3.89,2.64,5.02,4.57,1.13,1.93,1.7,4.08,1.7,6.44s-.57,4.52-1.7,6.44c-1.13,1.93-2.81,3.45-5.02,4.57-2.22,1.12-4.9,1.67-8.04,1.67h-6.95v7.51h-7.1v-32.87h14.1ZM37.49,299.24c1.28-1.27,1.93-2.83,1.93-4.69s-.64-3.42-1.93-4.69c-1.29-1.27-2.94-1.9-4.97-1.9h-7.36v13.19h7.31c2.06,0,3.74-.63,5.02-1.9Z"/>
    <path class="st0" d="M66.1,281.87c3.15,0,5.83.56,8.04,1.67,2.21,1.12,3.89,2.64,5.02,4.57,1.13,1.93,1.7,4.09,1.7,6.49,0,2.16-.54,4.18-1.62,6.04-1.08,1.86-2.62,3.33-4.62,4.41l6.85,9.69h-8.17l-5.07-7.71c-1.08.17-2.01.25-2.79.25h-6.34v7.46h-7.1v-32.87h14.1ZM69.93,300.31c1.07-.59,1.9-1.4,2.51-2.41.61-1.01.91-2.11.91-3.3,0-1.89-.66-3.48-1.98-4.77-1.32-1.28-2.99-1.93-5.02-1.93h-7.25v13.29h7.2c1.35,0,2.56-.3,3.63-.89Z"/>
    <path class="st0" d="M93.09,281.87v32.87h-7.1v-32.87h7.1Z"/>
    <path class="st0" d="M106.43,281.87l11.31,15.63c.78,1.05,1.56,2.22,2.36,3.5.79,1.29,1.31,2.13,1.55,2.54v-21.66h7.1v32.87h-6.85l-10.96-15.02c-.91-1.22-1.78-2.49-2.61-3.83-.83-1.34-1.36-2.21-1.6-2.61v21.46h-7.1v-32.87h6.8Z"/>
    <path class="st0" d="M133.07,287.96v-6.09h29.42v6.09h-11.16v26.79h-7.1v-26.79h-11.16Z"/>
    <path class="st1" d="M182.35,314.13c-1.78-.74-3.2-1.89-4.26-3.42-1.07-1.54-1.6-3.42-1.6-5.66,0-1.69.43-3.33,1.29-4.92.86-1.59,2.16-2.91,3.88-3.96-1.32-2.1-1.98-4.11-1.98-6.04,0-1.52.37-2.95,1.12-4.29.74-1.34,1.85-2.42,3.32-3.25,1.47-.83,3.2-1.24,5.2-1.24,4.4,0,7.59,2.18,9.59,6.54l-5.17,3.5c-.47-1.32-1.1-2.34-1.88-3.07-.78-.73-1.61-1.09-2.49-1.09s-1.59.28-2.13.84c-.54.56-.81,1.24-.81,2.05,0,.95.33,1.97.99,3.07.66,1.1,1.77,2.41,3.32,3.93l6.39,6.29c.51-.81.76-1.89.76-3.25h6.09c0,1.39-.19,2.78-.58,4.19-.39,1.4-.87,2.55-1.45,3.42l3.45,3.35-4.16,4.26-3.45-3.25c-1.32.98-2.83,1.74-4.54,2.28-1.71.54-3.42.81-5.15.81-2.06,0-3.98-.37-5.76-1.12ZM193.18,308l-7.91-7.61c-.74.47-1.31,1.07-1.7,1.8-.39.73-.58,1.46-.58,2.21,0,1.42.53,2.6,1.6,3.53,1.07.93,2.44,1.4,4.13,1.4,1.56,0,3.04-.44,4.46-1.32Z"/>
    <path class="st0" d="M234.53,281.87c3.11,0,5.77.56,7.99,1.67,2.21,1.12,3.89,2.64,5.02,4.57,1.13,1.93,1.7,4.08,1.7,6.44s-.57,4.52-1.7,6.44c-1.13,1.93-2.81,3.45-5.02,4.57-2.22,1.12-4.9,1.67-8.04,1.67h-6.95v7.51h-7.1v-32.87h14.1ZM239.85,299.24c1.28-1.27,1.93-2.83,1.93-4.69s-.64-3.42-1.93-4.69c-1.29-1.27-2.94-1.9-4.97-1.9h-7.36v13.19h7.31c2.06,0,3.74-.63,5.02-1.9Z"/>
    <path class="st0" d="M268.47,281.87c3.15,0,5.83.56,8.04,1.67,2.21,1.12,3.89,2.64,5.02,4.57,1.13,1.93,1.7,4.09,1.7,6.49,0,2.16-.54,4.18-1.62,6.04-1.08,1.86-2.62,3.33-4.62,4.41l6.85,9.69h-8.17l-5.07-7.71c-1.08.17-2.01.25-2.79.25h-6.34v7.46h-7.1v-32.87h14.1ZM272.3,300.31c1.07-.59,1.9-1.4,2.51-2.41.61-1.01.91-2.11.91-3.3,0-1.89-.66-3.48-1.98-4.77-1.32-1.28-2.99-1.93-5.02-1.93h-7.25v13.29h7.2c1.35,0,2.56-.3,3.63-.89Z"/>
    <path class="st0" d="M295.63,313.04c-2.66-1.5-4.73-3.56-6.21-6.16-1.49-2.6-2.23-5.46-2.23-8.57s.74-5.96,2.23-8.55c1.49-2.59,3.56-4.63,6.21-6.14,2.65-1.5,5.64-2.26,8.95-2.26s6.3.75,8.95,2.26c2.65,1.51,4.73,3.55,6.21,6.14,1.49,2.59,2.23,5.44,2.23,8.55s-.74,5.97-2.23,8.57c-1.49,2.6-3.56,4.66-6.21,6.16-2.66,1.51-5.64,2.26-8.95,2.26s-6.3-.75-8.95-2.26ZM309.71,307.46c1.52-.93,2.71-2.21,3.58-3.83.86-1.62,1.29-3.4,1.29-5.33s-.43-3.69-1.29-5.3c-.86-1.61-2.05-2.87-3.58-3.8-1.52-.93-3.21-1.4-5.07-1.4s-3.56.47-5.1,1.4c-1.54.93-2.75,2.2-3.63,3.8-.88,1.61-1.32,3.37-1.32,5.3s.44,3.7,1.32,5.33c.88,1.62,2.08,2.9,3.6,3.83,1.52.93,3.23,1.4,5.12,1.4s3.55-.46,5.07-1.4Z"/>
    <path class="st0" d="M333.45,281.87l5.17,7.31c1.15,1.62,2.32,3.29,3.5,5,1.18,1.71,2,2.88,2.44,3.53l5.94-8.47,5.17-7.36h6.14v32.87h-7.1v-20.8c-.14.24-.47.76-.99,1.57-.52.81-1.19,1.81-2,2.99l-7.15,10.2-7.2-10.25c-.71-.98-1.34-1.92-1.9-2.82-.56-.9-.91-1.46-1.04-1.7v20.8h-7.1v-32.87h6.14Z"/>
    <path class="st0" d="M375.58,313.04c-2.66-1.5-4.73-3.56-6.21-6.16-1.49-2.6-2.23-5.46-2.23-8.57s.74-5.96,2.23-8.55c1.49-2.59,3.56-4.63,6.21-6.14,2.65-1.5,5.64-2.26,8.95-2.26s6.3.75,8.95,2.26c2.65,1.51,4.73,3.55,6.21,6.14,1.49,2.59,2.23,5.44,2.23,8.55s-.74,5.97-2.23,8.57c-1.49,2.6-3.56,4.66-6.21,6.16-2.66,1.51-5.64,2.26-8.95,2.26s-6.3-.75-8.95-2.26ZM389.66,307.46c1.52-.93,2.71-2.21,3.58-3.83.86-1.62,1.29-3.4,1.29-5.33s-.43-3.69-1.29-5.3c-.86-1.61-2.05-2.87-3.58-3.8-1.52-.93-3.21-1.4-5.07-1.4s-3.56.47-5.1,1.4c-1.54.93-2.75,2.2-3.63,3.8-.88,1.61-1.32,3.37-1.32,5.3s.44,3.7,1.32,5.33c.88,1.62,2.08,2.9,3.6,3.83,1.52.93,3.23,1.4,5.12,1.4s3.55-.46,5.07-1.4Z"/>
  </g>
  <g>
    <g>
      <path class="st2" d="M167.69,78.94c0-16.01,5.48-30.54,14.4-41.28-2.11-4.11-4.22-8.23-6.33-12.34-.11-.22-.23-.44-.38-.72-.12.22-.2.37-.28.52-2.57,5.01-5.13,10.01-7.7,15.02-.99,1.93-1.98,3.87-2.98,5.8-.77,1.48-1.82,2.14-3.25,1.92-.72-.11-1.45-.36-2.1-.69-1.95-1-3.87-2.07-5.79-3.11-.86-.46-1.72-.93-2.62-1.42,0,.17,0,.26.02.35.3,1.7.61,3.4.92,5.1.92,5.08,1.84,10.15,2.76,15.23.74,4.07,1.48,8.14,2.2,12.22.2,1.11.38,2.23.14,3.37-.29,1.37-1.27,2.09-2.58,1.81-.89-.19-1.58-.71-2.16-1.39-3.75-4.39-7.49-8.77-11.24-13.16-.94-1.1-1.88-2.2-2.86-3.34-.06.2-.11.34-.15.48-.68,2.51-1.36,5.01-2.05,7.52-.48,1.75-1.78,2.54-3.56,2.15-4.64-1.02-9.28-2.05-13.91-3.07-1.1-.24-2.2-.47-3.36-.72.03.14.05.21.06.27.93,3.53,1.86,7.07,2.78,10.61.86,3.32,1.73,6.64,2.55,9.97.4,1.6-.05,2.53-1.35,3.16-1.54.74-3.08,1.49-4.61,2.23-.68.33-1.36.66-2.08,1.02.18.16.29.28.42.39,8,6.8,15.99,13.59,23.99,20.38,1.97,1.67,3.96,3.33,5.91,5.03,1.41,1.23,1.84,2.78,1.34,4.58-.37,1.34-.78,2.67-1.17,4.01-.46,1.6-.93,3.19-1.41,4.85,2.87-.34,5.67-.67,8.47-1,3.52-.42,7.04-.86,10.56-1.29,3.65-.44,7.31-.87,10.95-1.32l8.74.06c2.93.39,5.87.71,8.8,1.06,2.93.35,5.86.72,8.8,1.07,1.07.13,2.13.26,3.2.39-19.37-8.73-33.1-30.38-33.1-55.72"/>
      <path class="st2" d="M235.5,44.8c5.34-2.68,11.34-4.22,17.72-4.22s12.38,1.54,17.72,4.22h23.84c-10.01-11.76-24.91-19.25-41.56-19.25s-31.55,7.48-41.56,19.25h23.84Z"/>
      <path class="st2" d="M300.82,53.46h-18.43c6.46,7.05,10.43,16.41,10.43,26.72,0,21.87-17.73,39.61-39.61,39.61s-39.61-17.73-39.61-39.61c0-10.31,3.97-19.68,10.43-26.72h-18.43c-4.44,7.89-6.99,16.99-6.99,26.69,0,30.15,24.44,54.59,54.59,54.59s54.59-24.44,54.59-54.59c0-9.7-2.56-18.79-6.99-26.69"/>
      <path class="st2" d="M201.32,44.8c7.09-9.39,16.65-16.5,27.12-19.17-16.12-.34-30.68,7.21-40.4,19.17h13.27Z"/>
      <path class="st2" d="M188.93,77.89c.43-8.47,2.94-16.87,6.93-24.43h-13.55c-3.92,7.33-6.29,15.68-6.55,24.56-.88,30.42,22.96,57.07,52.72,56.73-21.01-7.19-40.84-31.03-39.54-56.85"/>
    </g>
    <g>
      <rect class="st0" x="74.44" y="203.82" width="23.56" height="61.89"/>
      <path class="st1" d="M231.29,211.18c0,10.32-2.47,19.81-7.4,28.44-4.94,8.64-11.81,15.45-20.62,20.44-8.81,5-18.71,7.49-29.7,7.49s-20.89-2.49-29.7-7.49c-8.81-4.99-15.68-11.8-20.62-20.44-4.94-8.64-7.4-18.12-7.4-28.44,0-2.5.14-4.96.44-7.36h24.83c-.47,2.37-.7,4.82-.7,7.36,0,6.39,1.46,12.29,4.38,17.67,2.91,5.38,6.9,9.62,11.95,12.7,5.04,3.09,10.71,4.63,16.99,4.63s11.78-1.54,16.83-4.63c5.04-3.08,9-7.32,11.87-12.7,2.86-5.39,4.29-11.28,4.29-17.67,0-2.54-.22-4.99-.68-7.36h24.81c.3,2.4.44,4.86.44,7.36Z"/>
      <path class="st1" d="M222.29,180.24h-33c-4.71-2.59-9.9-3.89-15.56-3.89s-10.87,1.3-15.62,3.89h-33.27c4.77-7.37,11.12-13.3,19.02-17.78,8.81-4.99,18.7-7.49,29.7-7.49s20.89,2.5,29.7,7.49c7.9,4.48,14.25,10.4,19.02,17.78Z"/>
      <rect class="st1" x="322" y="156.65" width="23.56" height="23.59"/>
      <path class="st1" d="M345.56,203.82v61.89h-22.72l-36.35-49.81c-2.88-3.85-5.64-7.87-8.27-12.08h27.44l3.38,4.67c2.58,3.48,5.18,7.35,7.82,11.61,2.64,4.26,4.35,7.07,5.13,8.42v-24.7h23.56Z"/>
      <rect class="st1" x="248.96" y="203.82" width="23.56" height="61.89"/>
      <polygon class="st1" points="288.59 180.24 248.96 180.24 248.96 156.65 271.51 156.65 288.59 180.24"/>
      <rect class="st0" x="74.44" y="156.65" width="23.56" height="23.59"/>
      <rect class="st0" x="98" y="156.65" width=".02" height="23.59"/>
    </g>
  </g>
</svg>