<?xml version="1.0" encoding="UTF-8"?>
<svg id="Layer_1" xmlns="http://www.w3.org/2000/svg" version="1.1" viewBox="0 0 20 20">
  <!-- Generator: Adobe Illustrator 29.8.2, SVG Export Plug-In . SVG Version: 2.1.1 Build 3)  -->
  <defs>
    <style>
      .st0 {
        fill: #dc2626;
      }
    </style>
  </defs>
  <path class="st0" d="M10,.12l-1.51,2.75c-.15.26-.47.37-.74.25l-1.28-.54.71,4.53c.04.25-.26.4-.44.22l-2-1.94-.31.9c-.11.33-.46.52-.8.44l-2-.5.57,2.77c.07.32-.1.64-.4.76l-.53.21,3.91,3.46c.28.25.4.63.32,1l-.23,1.03,3.7-.49c.37-.05.7.24.69.61l-.09,4.29h.87l-.09-4.29c0-.37.32-.66.69-.61l3.7.49-.23-1.03c-.08-.37.05-.75.33-1l3.91-3.46-1.04-.43.68-3.32-2.59.65-.51-1.48-2,1.94c-.18.18-.48.02-.44-.22l.71-4.53-1.28.54c-.28.12-.6.01-.74-.25L10,.12h0Z"/>
</svg>