<?xml version="1.0" encoding="UTF-8"?>
<svg id="Layer_1" xmlns="http://www.w3.org/2000/svg" version="1.1" viewBox="0 0 140 20">
  <!-- Generator: Adobe Illustrator 29.7.1, SVG Export Plug-In . SVG Version: 2.1.1 Build 8)  -->
  <defs>
    <style>
      .st0 {
        fill: #ec1c3a;
      }
    </style>
  </defs>
  <path class="st0" d="M10,.5l3.1,6.3,6.9,1-5,4.9,1.2,6.9-6.2-3.2-6.2,3.2,1.2-6.9L0,7.8l6.9-1L10,.5Z"/>
  <path class="st0" d="M40,.5l3.1,6.3,6.9,1-5,4.9,1.2,6.9-6.2-3.2-6.2,3.2,1.2-6.9-5-4.9,6.9-1s3.1-6.3,3.1-6.3Z"/>
  <path class="st0" d="M70,.5l3.1,6.3,6.9,1-5,4.9,1.2,6.9-6.2-3.2-6.2,3.2,1.2-6.9-5-4.9,6.9-1s3.1-6.3,3.1-6.3Z"/>
  <path class="st0" d="M100,.5l3.1,6.3,6.9,1-5,4.9,1.2,6.9-6.2-3.2-6.2,3.2,1.2-6.9-5-4.9,6.9-1s3.1-6.3,3.1-6.3Z"/>
  <path class="st0" d="M130,.5l3.1,6.3,6.9,1-5,4.9,1.2,6.9-6.2-3.2-6.2,3.2,1.2-6.9-5-4.9,6.9-1s3.1-6.3,3.1-6.3Z"/>
</svg>